<svg width="330" height="330" viewBox="0 0 324 329" fill="none" xmlns="http://www.w3.org/2000/svg">
<path d="M140.787 172.78C138.406 172.668 41.6863 217.726 37.3704 263.645C37.3704 263.645 8.05593 234.412 41.3873 200.266C74.7187 166.12 136.767 137.563 136.767 137.563L140.787 172.78Z" fill="#523DD8"/>
<path opacity="0.5" d="M109.254 276.325C109.655 276.503 111.983 277.534 114.386 276.679C128.85 271.53 99.2716 214.706 119.523 157.014C127.776 133.498 140.758 119.955 137.976 95.4573C137.471 91.0086 135.76 77.3219 126.557 63.9281C120.767 55.502 116.346 53.4977 108.526 46.1837C83.9692 23.2134 85.7798 3.87974 74.6007 2.68626C62.1242 1.35406 43.2976 23.6726 44.7338 44.1053C46.3148 66.5985 71.464 72.7991 69.8244 92.25C68.5484 107.38 52.9901 107.686 49.3511 125.84C44.521 149.936 67.2222 172.921 70.1174 175.777C83.0305 188.517 87.9084 183.497 96.2377 193.117C118.873 219.261 94.5132 269.794 109.254 276.325Z" fill="#EBEBEB"/>
<path d="M81.386 52.3247C83.2671 53.7514 85.0489 55.2821 86.7578 56.9013C88.4715 58.5133 90.123 60.1971 91.6956 61.9539C93.2706 63.7082 94.7941 65.514 96.2327 67.3915C97.6534 69.2798 99.0502 71.1956 100.331 73.1915C100.995 74.1745 101.575 75.2113 102.2 76.2206C102.773 77.261 103.386 78.2799 103.926 79.3407C104.475 80.3954 105.03 81.4502 105.523 82.5348C105.775 83.0754 106.041 83.6087 106.279 84.1553L106.973 85.8056C107.452 86.8986 107.828 88.0359 108.254 89.1528C108.658 90.2781 108.997 91.4262 109.373 92.5634C109.682 93.721 110.024 94.8703 110.301 96.0374L110.693 97.7942C110.828 98.379 110.958 98.9661 111.041 99.5617C111.871 104.294 112.18 109.13 111.921 113.94L111.823 115.744L111.675 117.487L111.377 120.969C111.172 123.29 111.007 125.613 110.82 127.935C110.105 137.224 109.562 146.522 109.176 155.823C108.429 174.429 108.434 193.032 110.324 211.565C111.138 220.926 111.374 230.292 111.364 239.647C111.344 249.003 111.047 258.348 110.452 267.679L109.914 267.656C109.997 258.326 109.854 248.992 109.55 239.677C109.379 235.021 109.164 230.366 108.855 225.723C108.551 221.08 108.183 216.442 107.638 211.835C106.453 202.572 105.785 193.16 105.451 183.801C105.162 174.428 105.233 165.052 105.497 155.691C105.759 146.329 106.331 136.983 106.991 127.65C107.169 125.318 107.326 122.984 107.522 120.653L107.806 117.157L107.948 115.409L108.053 113.718C108.334 109.209 108.086 104.667 107.342 100.198C107.186 99.0762 106.924 97.9712 106.721 96.8542C106.486 95.7445 106.191 94.6466 105.928 93.5417C105.599 92.4534 105.307 91.3532 104.949 90.2721C104.57 89.1982 104.245 88.1052 103.812 87.0493C102.207 82.78 100.264 78.6136 97.9428 74.6457C96.8211 72.639 95.5774 70.6993 94.3062 68.7751C93.0039 66.8725 91.6645 64.989 90.2546 63.1545C87.4108 59.5107 84.3828 55.9637 81.0439 52.7397L81.386 52.3247Z" fill="url(#paint0_linear_183_7209)"/>
<path d="M116.446 300.468C118.395 301.492 121.505 301.831 123.44 300.411C130.911 294.934 111.706 270.008 106.306 234.704C100.052 193.827 117.69 174.252 101.735 155.03C94.0624 145.785 87.4779 147.295 80.3625 135.645C70.4535 119.421 78.3546 108.524 70.4463 95.857C61.3517 81.2889 36.7633 73.0577 20.0223 81.2303C-2.4888 92.2204 -4.76813 129.925 7.25757 149.457C15.069 162.144 29.9277 168.808 28.1889 172.393C26.5291 175.815 13.5742 168.547 6.28173 174.201C-3.26851 181.606 -0.987978 209.527 13.0898 219.283C26.0483 228.263 47.6757 220.932 48.6981 225.319C49.1 227.044 45.7551 228.186 45.6283 230.371C45.4023 234.269 55.5278 239.755 92.0115 247.568C101.893 253.874 106.362 260.676 108.608 265.819C115.238 280.994 109.012 296.565 116.446 300.468Z" fill="url(#paint1_linear_183_7209)"/>
<path d="M39.5923 111.352C39.8506 119.882 40.9137 128.342 42.9778 136.537C45.0263 144.737 48.0818 152.61 52.0939 159.985C54.1114 163.67 56.3225 167.255 58.6593 170.773C59.8635 172.516 61.0355 174.271 62.2828 175.993C63.5001 177.73 64.7355 179.462 65.9804 181.19L73.4785 191.595L75.3393 194.217L77.1594 196.873C78.3828 198.636 79.5619 200.433 80.7506 202.225C83.1268 205.805 85.405 209.449 87.6448 213.116C88.7474 214.96 89.862 216.795 90.9131 218.669L92.5108 221.467L94.0679 224.287L95.6177 227.111L97.1197 229.961L98.6182 232.812L100.064 235.691L101.493 238.579L102.862 241.496C103.775 243.44 104.697 245.38 105.542 247.355L106.84 250.304L107.488 251.778L108.099 253.269C108.895 255.265 109.713 257.25 110.49 259.252L112.717 265.297C113.447 267.316 114.083 269.371 114.754 271.408C117.338 279.596 119.451 287.938 120.802 296.398L120.336 296.491C118.266 288.203 115.687 280.084 112.7 272.122L111.547 269.148C111.157 268.159 110.815 267.155 110.388 266.179L107.927 260.297C106.189 256.417 104.458 252.539 102.598 248.718C101.701 246.792 100.729 244.902 99.7674 243.008L98.324 240.167L96.8219 237.357L95.3379 234.538L93.8024 231.746L92.2645 228.956L90.6788 226.192C86.4262 218.837 81.9955 211.586 77.2706 204.527C72.5457 197.471 67.5841 190.569 62.626 183.583C61.3906 181.834 60.1493 180.087 58.9427 178.305C57.7241 176.539 56.5641 174.714 55.3814 172.914C53.0817 169.257 50.8646 165.529 48.9009 161.651C48.4154 160.68 47.9717 159.685 47.5054 158.705L46.8177 157.228L46.1947 155.72C45.7869 154.711 45.3468 153.718 44.9677 152.699L43.8723 149.629C43.4824 148.615 43.205 147.563 42.8941 146.523L42.436 144.962C42.2818 144.441 42.1263 143.922 42.0103 143.393C41.5152 141.282 40.9675 139.188 40.5729 137.062C38.9728 128.564 38.4562 119.888 39.1175 111.338L39.5923 111.352Z" fill="#91B3FA"/>
<path d="M273.42 119.997L275.658 137.216C275.971 139.625 274.22 148.071 276.555 148.743C282.404 150.428 296.965 145.44 303.536 135.188C310.227 124.749 309.824 95.406 295.854 93.709C290.896 93.1063 297.725 105.914 277.326 113.48C274.664 114.467 273.056 117.183 273.42 119.997Z" fill="#523DD8"/>
<path d="M97.3684 36.8593L262.091 36.216C271.179 36.1801 278.701 43.2728 279.198 52.3471L292.291 291.117C292.681 298.219 287.113 304.231 280.003 304.388L91.2228 308.557C84.5426 308.704 79.0392 303.343 79.0141 296.662L78.0754 56.3054C78.0323 45.6071 86.6701 36.9012 97.3684 36.8593Z" fill="#263238"/>
<path d="M118.797 304.336C118.796 304.336 118.795 304.336 118.795 304.336L97.6675 304.144C90.6322 304.081 84.8872 298.306 84.8597 291.271L84.7354 259.376C84.7342 259.157 84.9112 258.978 85.1312 258.977H85.1324C85.3512 258.977 85.5282 259.154 85.5294 259.373L85.6538 291.268C85.6789 297.871 91.0723 303.292 97.6747 303.35L118.801 303.541C119.02 303.544 119.197 303.722 119.194 303.942C119.192 304.16 119.015 304.336 118.797 304.336Z" fill="#EBEBEB"/>
<path d="M85.0941 249.892C84.8753 249.892 84.6983 249.715 84.6971 249.496L84.6768 244.331C84.6756 244.113 84.8526 243.934 85.0726 243.933H85.0738C85.2926 243.933 85.4696 244.11 85.4708 244.329L85.4912 249.494C85.4924 249.713 85.3154 249.891 85.0953 249.892H85.0941Z" fill="white"/>
<path d="M97.867 34.9222C120.373 37.8844 197.763 47.0173 261.698 41.8583C264.613 41.6227 267.154 43.8231 267.32 46.7434L281.007 286.576C281.194 289.864 278.694 292.687 275.406 292.895C248.515 294.592 137.765 301.177 98.2365 297.194C95.8304 296.951 93.9971 294.934 93.9732 292.516L91.5061 40.5596C91.4738 37.1358 94.4731 34.475 97.867 34.9222Z" fill="#455A64"/>
<path opacity="0.9" d="M100.3 41.1348C121.959 43.9857 196.434 52.7742 257.962 47.8089C260.767 47.5829 263.212 49.6996 263.372 52.5099L276.543 283.312C276.724 286.476 274.318 289.193 271.154 289.393C245.275 291.026 138.695 297.365 100.656 293.531C98.3404 293.298 96.5765 291.356 96.5538 289.03L94.18 46.5604C94.1477 43.2658 97.0345 40.7054 100.3 41.1348Z" fill="#EBEBEB"/>
<g opacity="0.6">
<path d="M251.282 93.5272C252.155 93.5236 252.82 92.8085 252.759 91.9379L252.748 91.7848C252.687 90.9142 251.923 90.1991 251.05 90.1955L111.18 89.6394C110.307 89.6358 110.04 90.1907 110.587 90.8712L112.158 92.83C112.704 93.5105 113.866 94.0653 114.739 94.0618L251.282 93.5272Z" fill="white"/>
</g>
<g opacity="0.6">
<path d="M111.217 98.8655C110.344 98.8619 110.077 99.4168 110.624 100.097L112.195 102.056C112.742 102.737 113.903 103.291 114.776 103.288L251.319 102.754C252.192 102.751 252.857 102.036 252.796 101.165L252.785 101.012C252.724 100.141 251.96 99.4264 251.087 99.4228L111.217 98.8655Z" fill="white"/>
</g>
<path d="M121.235 123.663C121.232 123.663 121.228 123.663 121.226 123.663L115.961 123.633C115.11 123.629 114.404 123.039 114.321 122.262L113.84 117.847C113.805 117.534 113.901 117.226 114.108 116.978C114.335 116.707 114.677 116.535 115.048 116.508C115.491 116.476 116.101 116.422 116.772 116.363C118.241 116.232 119.904 116.084 120.886 116.067C121.68 116.064 122.363 116.535 122.555 117.236C122.841 118.272 122.825 120.208 122.78 122.268C122.762 123.039 122.07 123.663 121.235 123.663ZM115.104 117.3C114.947 117.311 114.806 117.379 114.717 117.487C114.669 117.544 114.615 117.639 114.628 117.761L115.109 122.176C115.149 122.545 115.525 122.837 115.965 122.839L121.229 122.869C121.23 122.869 121.233 122.869 121.234 122.869C121.641 122.869 121.978 122.593 121.985 122.25C122.017 120.739 122.066 118.457 121.789 117.445C121.693 117.099 121.32 116.837 120.898 116.86C119.944 116.876 118.224 117.029 116.842 117.152C116.166 117.213 115.55 117.267 115.104 117.3Z" fill="white"/>
<g opacity="0.6">
<path d="M126.998 118.869C126.125 118.87 125.569 119.462 125.763 120.184C125.957 120.907 126.83 121.488 127.703 121.476L174 120.811C174.873 120.799 175.576 120.346 175.562 119.807C175.547 119.266 174.823 118.826 173.95 118.826L126.998 118.869Z" fill="white"/>
</g>
<path d="M115.885 118.251C116.275 118.02 116.779 118.155 117.001 118.55L118.046 120.407C118.152 120.592 118.423 120.58 118.509 120.385L121.062 114.642C121.189 114.355 121.616 114.45 121.612 114.764C121.593 116.518 121.141 119.853 118.349 122.654C118.349 122.654 116.803 122.06 115.548 119.334C115.368 118.941 115.512 118.472 115.885 118.251Z" fill="#523DD8"/>
<path d="M121.278 134.946C121.275 134.946 121.271 134.946 121.269 134.946L116.004 134.916C115.153 134.912 114.447 134.322 114.364 133.545L113.883 129.13C113.848 128.818 113.944 128.509 114.151 128.261C114.378 127.99 114.72 127.818 115.091 127.791C115.534 127.759 116.144 127.705 116.815 127.646C118.284 127.515 119.947 127.367 120.929 127.35C121.737 127.336 122.406 127.818 122.598 128.519C122.884 129.559 122.868 131.493 122.823 133.551C122.807 134.322 122.114 134.946 121.278 134.946ZM120.959 128.143C120.953 128.143 120.948 128.143 120.942 128.143C119.989 128.159 118.268 128.312 116.886 128.435C116.21 128.495 115.594 128.55 115.148 128.582C114.992 128.593 114.85 128.661 114.761 128.768C114.713 128.826 114.659 128.92 114.672 129.044L115.153 133.459C115.194 133.828 115.569 134.12 116.009 134.122L121.273 134.152C121.275 134.152 121.277 134.152 121.278 134.152C121.685 134.152 122.021 133.876 122.028 133.534C122.062 132.025 122.111 129.743 121.832 128.728C121.74 128.387 121.374 128.143 120.959 128.143Z" fill="white"/>
<path opacity="0.6" d="M115.702 128.842C116.807 128.761 119.211 128.508 120.35 128.49C120.833 128.482 121.258 128.772 121.373 129.191C121.596 130.004 121.574 131.625 121.541 133.122C121.532 133.57 121.122 133.929 120.618 133.926L116.411 133.902C115.893 133.899 115.463 133.548 115.413 133.089L115.029 129.561C114.99 129.195 115.292 128.871 115.702 128.842Z" fill="white"/>
<g opacity="0.6">
<path d="M127.044 130.152C126.171 130.153 125.615 130.745 125.809 131.467C126.003 132.19 126.876 132.771 127.749 132.759L174.046 132.094C174.919 132.082 175.622 131.629 175.608 131.089C175.593 130.549 174.869 130.109 173.996 130.109L127.044 130.152Z" fill="white"/>
</g>
<path d="M121.322 146.228C121.319 146.228 121.315 146.228 121.313 146.228L116.048 146.198C115.197 146.194 114.491 145.604 114.408 144.827L113.927 140.412C113.892 140.099 113.988 139.791 114.195 139.543C114.422 139.272 114.764 139.1 115.134 139.073C115.577 139.041 116.187 138.987 116.859 138.927C118.327 138.797 119.99 138.649 120.972 138.632C120.983 138.632 120.993 138.632 121.003 138.632C121.779 138.632 122.451 139.109 122.641 139.8C122.927 140.841 122.91 142.775 122.866 144.834C122.85 145.604 122.158 146.228 121.322 146.228ZM115.192 139.865C115.035 139.876 114.894 139.944 114.805 140.052C114.757 140.109 114.703 140.203 114.716 140.327L115.197 144.742C115.238 145.117 115.606 145.403 116.053 145.406L121.317 145.435C121.319 145.435 121.321 145.435 121.322 145.435C121.729 145.435 122.065 145.159 122.072 144.816C122.105 143.306 122.155 141.025 121.876 140.011C121.78 139.665 121.412 139.406 120.985 139.426C120.032 139.442 118.311 139.595 116.93 139.718C116.254 139.778 115.638 139.833 115.192 139.865Z" fill="white"/>
<path opacity="0.6" d="M115.746 140.124C116.852 140.044 119.255 139.791 120.394 139.773C120.878 139.765 121.302 140.055 121.417 140.474C121.641 141.287 121.618 142.908 121.586 144.405C121.576 144.853 121.166 145.212 120.662 145.209L116.455 145.185C115.937 145.183 115.507 144.831 115.457 144.372L115.073 140.844C115.033 140.478 115.336 140.154 115.746 140.124Z" fill="white"/>
<g opacity="0.6">
<path d="M127.087 141.435C126.214 141.436 125.658 142.028 125.852 142.751C126.046 143.473 126.919 144.054 127.792 144.042L174.089 143.377C174.962 143.365 175.665 142.912 175.651 142.373C175.636 141.832 174.911 141.392 174.038 141.392L127.087 141.435Z" fill="white"/>
</g>
<path d="M121.367 157.511C121.364 157.511 121.361 157.511 121.358 157.511L116.093 157.481C115.242 157.477 114.536 156.887 114.451 156.11L113.972 151.695C113.937 151.382 114.033 151.074 114.24 150.826C114.467 150.555 114.809 150.383 115.18 150.356C115.622 150.324 116.231 150.27 116.901 150.21C118.37 150.079 120.036 149.931 121.019 149.915C121.819 149.895 122.495 150.383 122.687 151.083C122.973 152.12 122.956 154.055 122.912 156.116C122.894 156.887 122.203 157.511 121.367 157.511ZM121.048 150.708C121.042 150.708 121.037 150.708 121.031 150.708C120.077 150.723 118.355 150.877 116.97 151.001C116.295 151.061 115.682 151.116 115.237 151.148C115.08 151.159 114.939 151.227 114.85 151.335C114.802 151.392 114.748 151.485 114.761 151.608L115.241 156.024C115.281 156.399 115.651 156.685 116.098 156.687L121.362 156.717C121.364 156.717 121.366 156.717 121.367 156.717C121.774 156.717 122.11 156.441 122.117 156.098C122.149 154.587 122.198 152.304 121.921 151.293C121.828 150.952 121.462 150.708 121.048 150.708Z" fill="white"/>
<path opacity="0.6" d="M115.79 151.408C116.895 151.327 119.299 151.074 120.438 151.056C120.922 151.048 121.346 151.338 121.461 151.757C121.684 152.57 121.662 154.192 121.629 155.688C121.62 156.136 121.21 156.495 120.706 156.492L116.499 156.468C115.981 156.466 115.551 156.114 115.501 155.655L115.117 152.127C115.077 151.762 115.38 151.436 115.79 151.408Z" fill="white"/>
<g opacity="0.6">
<path d="M127.131 152.718C126.258 152.719 125.702 153.311 125.896 154.034C126.09 154.756 126.963 155.337 127.836 155.325L174.133 154.66C175.006 154.648 175.709 154.195 175.694 153.656C175.68 153.115 174.955 152.675 174.082 152.675L127.131 152.718Z" fill="white"/>
</g>
<path d="M197.267 122.094C197.264 122.094 197.261 122.094 197.258 122.094L191.993 122.064C191.142 122.059 190.436 121.47 190.353 120.693L189.873 116.277C189.838 115.965 189.934 115.657 190.141 115.409C190.368 115.138 190.71 114.966 191.08 114.939C191.522 114.907 192.131 114.853 192.801 114.793C194.269 114.662 195.935 114.513 196.918 114.498C197.713 114.488 198.395 114.966 198.588 115.666C198.873 116.707 198.857 118.64 198.812 120.699C198.794 121.47 198.103 122.094 197.267 122.094ZM196.948 115.291C196.942 115.291 196.937 115.291 196.931 115.291C195.977 115.306 194.255 115.459 192.871 115.583C192.196 115.642 191.582 115.697 191.137 115.73C190.981 115.74 190.839 115.809 190.75 115.916C190.702 115.974 190.648 116.068 190.661 116.191L191.141 120.606C191.181 120.982 191.55 121.268 191.997 121.27L197.261 121.3C197.262 121.3 197.265 121.3 197.266 121.3C197.673 121.3 198.009 121.024 198.016 120.681C198.049 119.17 198.098 116.89 197.82 115.874C197.728 115.535 197.362 115.291 196.948 115.291Z" fill="white"/>
<g opacity="0.6">
<path d="M203.031 117.301C202.158 117.302 201.602 117.894 201.795 118.617C201.989 119.339 202.862 119.92 203.735 119.908L250.032 119.243C250.905 119.231 251.608 118.778 251.594 118.239C251.58 117.698 250.855 117.258 249.982 117.258L203.031 117.301Z" fill="white"/>
</g>
<path d="M197.311 133.377C197.308 133.377 197.304 133.377 197.302 133.377L192.038 133.347C191.186 133.343 190.481 132.753 190.396 131.976L189.916 127.561C189.881 127.248 189.977 126.94 190.184 126.692C190.411 126.421 190.753 126.249 191.123 126.222C191.565 126.19 192.176 126.136 192.847 126.077C194.316 125.945 195.979 125.798 196.961 125.781C197.746 125.761 198.438 126.249 198.629 126.949C198.915 127.986 198.898 129.922 198.854 131.982C198.839 132.753 198.147 133.377 197.311 133.377ZM191.18 127.014C191.024 127.025 190.882 127.093 190.793 127.201C190.745 127.258 190.691 127.351 190.704 127.474L191.184 131.89C191.224 132.265 191.594 132.551 192.041 132.553L197.305 132.583C197.307 132.583 197.309 132.583 197.31 132.583C197.717 132.583 198.053 132.307 198.06 131.965C198.092 130.455 198.141 128.172 197.864 127.16C197.769 126.814 197.377 126.563 196.973 126.575C196.02 126.591 194.299 126.744 192.917 126.867C192.242 126.927 191.626 126.982 191.18 127.014Z" fill="white"/>
<g opacity="0.6">
<path d="M203.077 128.583C202.204 128.584 201.648 129.176 201.841 129.899C202.035 130.621 202.908 131.202 203.781 131.19L250.078 130.525C250.951 130.513 251.654 130.06 251.64 129.521C251.625 128.98 250.901 128.54 250.027 128.54L203.077 128.583Z" fill="white"/>
</g>
<path d="M197.355 144.66C197.352 144.66 197.348 144.66 197.346 144.66L192.08 144.63C191.23 144.625 190.525 144.036 190.44 143.259L189.96 138.843C189.925 138.531 190.021 138.223 190.228 137.975C190.455 137.704 190.797 137.532 191.167 137.505C191.609 137.473 192.22 137.419 192.891 137.359C194.36 137.228 196.023 137.081 197.005 137.064C197.016 137.064 197.026 137.064 197.036 137.064C197.812 137.064 198.483 137.541 198.673 138.232C198.959 139.269 198.942 141.205 198.898 143.265C198.882 144.036 198.191 144.66 197.355 144.66ZM191.224 138.296C191.067 138.306 190.926 138.375 190.837 138.482C190.789 138.54 190.735 138.634 190.748 138.756L191.228 143.171C191.268 143.547 191.637 143.833 192.084 143.835L197.349 143.865C197.351 143.865 197.353 143.865 197.354 143.865C197.761 143.865 198.097 143.589 198.104 143.247C198.136 141.736 198.185 139.453 197.908 138.442C197.812 138.096 197.432 137.838 197.017 137.857C196.064 137.872 194.343 138.025 192.961 138.149C192.285 138.21 191.67 138.263 191.224 138.296Z" fill="white"/>
<g opacity="0.6">
<path d="M203.12 139.866C202.247 139.867 201.691 140.459 201.884 141.182C202.078 141.904 202.951 142.485 203.824 142.473L250.121 141.808C250.994 141.796 251.697 141.343 251.683 140.804C251.668 140.263 250.944 139.823 250.071 139.823L203.12 139.866Z" fill="white"/>
</g>
<path d="M197.398 155.943C197.395 155.943 197.392 155.943 197.389 155.943L192.125 155.913C191.273 155.909 190.568 155.319 190.484 154.542L190.003 150.127C189.968 149.814 190.064 149.506 190.271 149.258C190.498 148.987 190.84 148.815 191.21 148.788C191.653 148.756 192.264 148.702 192.935 148.643C194.403 148.512 196.066 148.364 197.048 148.347C197.836 148.335 198.525 148.815 198.717 149.516C199.003 150.552 198.986 152.487 198.942 154.548C198.925 155.319 198.234 155.943 197.398 155.943ZM197.079 149.139C197.073 149.139 197.068 149.139 197.062 149.139C196.109 149.154 194.39 149.307 193.007 149.431C192.33 149.49 191.714 149.545 191.268 149.578C191.112 149.588 190.971 149.657 190.881 149.764C190.833 149.822 190.779 149.916 190.792 150.039L191.273 154.454C191.314 154.824 191.689 155.116 192.129 155.118L197.394 155.148C197.395 155.148 197.397 155.148 197.398 155.148C197.805 155.148 198.142 154.871 198.149 154.529C198.182 153.018 198.231 150.735 197.953 149.724C197.86 149.384 197.493 149.139 197.079 149.139Z" fill="white"/>
<g opacity="0.6">
<path d="M203.164 151.149C202.291 151.15 201.734 151.742 201.928 152.464C202.122 153.187 202.995 153.768 203.868 153.756L250.165 153.091C251.038 153.079 251.741 152.626 251.727 152.087C251.712 151.546 250.988 151.106 250.115 151.106L203.164 151.149Z" fill="white"/>
</g>
<path d="M123.177 178.435C123.174 178.435 123.171 178.435 123.168 178.435L117.904 178.405C117.053 178.401 116.348 177.811 116.263 177.034L115.783 172.619C115.749 172.306 115.844 171.998 116.051 171.75C116.278 171.479 116.62 171.307 116.991 171.28C117.434 171.248 118.042 171.194 118.712 171.134C120.182 171.003 121.848 170.855 122.831 170.839C122.841 170.839 122.851 170.839 122.862 170.839C123.639 170.839 124.31 171.316 124.499 172.007C124.785 173.044 124.768 174.98 124.724 177.04C124.706 177.811 124.013 178.435 123.177 178.435ZM122.859 171.632C122.853 171.632 122.849 171.632 122.843 171.632C121.888 171.648 120.165 171.801 118.781 171.925C118.107 171.985 117.493 172.04 117.049 172.072C116.892 172.083 116.751 172.151 116.661 172.259C116.613 172.316 116.559 172.409 116.573 172.532L117.052 176.948C117.093 177.323 117.461 177.609 117.908 177.611L123.173 177.641C123.174 177.641 123.176 177.641 123.177 177.641C123.584 177.641 123.921 177.364 123.928 177.022C123.961 175.511 124.01 173.228 123.732 172.217C123.639 171.876 123.273 171.632 122.859 171.632Z" fill="white"/>
<g opacity="0.6">
<path d="M128.942 173.641C128.069 173.642 127.513 174.234 127.707 174.957C127.9 175.679 128.773 176.26 129.646 176.248L175.943 175.583C176.816 175.571 177.519 175.118 177.505 174.579C177.491 174.039 176.766 173.598 175.893 173.598L128.942 173.641Z" fill="white"/>
</g>
<path d="M123.221 189.718C123.218 189.718 123.215 189.718 123.212 189.718L117.948 189.688C117.096 189.684 116.391 189.094 116.307 188.317L115.827 183.902C115.793 183.59 115.888 183.281 116.095 183.033C116.322 182.762 116.664 182.59 117.035 182.563C117.479 182.531 118.089 182.477 118.76 182.418C120.228 182.287 121.892 182.139 122.873 182.122C122.884 182.122 122.894 182.122 122.904 182.122C123.682 182.122 124.353 182.599 124.543 183.291C124.829 184.33 124.812 186.263 124.768 188.323C124.75 189.094 124.057 189.718 123.221 189.718ZM117.091 183.354C116.935 183.365 116.794 183.433 116.704 183.54C116.656 183.598 116.602 183.692 116.615 183.816L117.096 188.231C117.137 188.6 117.512 188.892 117.952 188.894L123.217 188.924C123.218 188.924 123.22 188.924 123.221 188.924C123.628 188.924 123.964 188.648 123.971 188.305C124.005 186.794 124.054 184.513 123.775 183.5C123.679 183.154 123.307 182.902 122.884 182.915C121.931 182.931 120.21 183.084 118.828 183.207C118.153 183.267 117.537 183.322 117.091 183.354Z" fill="white"/>
<g opacity="0.6">
<path d="M128.988 184.924C128.115 184.925 127.559 185.517 127.752 186.24C127.946 186.962 128.819 187.543 129.692 187.531L175.989 186.866C176.862 186.854 177.565 186.401 177.551 185.862C177.537 185.322 176.812 184.881 175.939 184.881L128.988 184.924Z" fill="white"/>
</g>
<path d="M123.267 201C123.264 201 123.26 201 123.258 201L117.994 200.97C117.142 200.965 116.437 200.376 116.353 199.599L115.872 195.183C115.838 194.871 115.933 194.563 116.14 194.315C116.367 194.044 116.709 193.872 117.08 193.845C117.524 193.813 118.134 193.759 118.804 193.699C120.273 193.569 121.936 193.421 122.918 193.404C123.722 193.393 124.395 193.872 124.588 194.572C124.874 195.613 124.857 197.547 124.813 199.605C124.795 200.376 124.103 201 123.267 201ZM122.948 194.197C122.942 194.197 122.937 194.197 122.931 194.197C121.978 194.212 120.257 194.365 118.875 194.489C118.199 194.548 117.584 194.603 117.137 194.636C116.981 194.647 116.84 194.715 116.75 194.822C116.702 194.88 116.648 194.974 116.661 195.097L117.142 199.513C117.183 199.888 117.551 200.174 117.998 200.176L123.263 200.206C123.264 200.206 123.266 200.206 123.267 200.206C123.674 200.206 124.01 199.93 124.017 199.588C124.051 198.079 124.1 195.797 123.821 194.782C123.728 194.441 123.362 194.197 122.948 194.197Z" fill="white"/>
<g opacity="0.6">
<path d="M129.031 196.207C128.158 196.208 127.602 196.8 127.795 197.523C127.989 198.245 128.862 198.826 129.735 198.814L176.032 198.149C176.905 198.137 177.608 197.684 177.594 197.145C177.58 196.605 176.855 196.164 175.982 196.164L129.031 196.207Z" fill="white"/>
</g>
<path d="M123.31 212.283C123.307 212.283 123.303 212.283 123.301 212.283L118.037 212.253C117.185 212.249 116.48 211.659 116.396 210.882L115.915 206.467C115.88 206.154 115.976 205.846 116.183 205.598C116.41 205.327 116.752 205.155 117.122 205.128C117.564 205.096 118.175 205.042 118.846 204.982C120.315 204.851 121.978 204.704 122.96 204.687C123.731 204.67 124.436 205.155 124.628 205.855C124.914 206.895 124.897 208.83 124.853 210.888C124.839 211.659 124.146 212.283 123.31 212.283ZM117.18 205.92C117.024 205.931 116.883 205.999 116.793 206.107C116.745 206.164 116.691 206.258 116.704 206.382L117.185 210.797C117.226 211.172 117.594 211.458 118.041 211.46L123.306 211.49C123.307 211.49 123.309 211.49 123.31 211.49C123.717 211.49 124.053 211.214 124.06 210.872C124.094 209.362 124.143 207.081 123.864 206.067C123.768 205.722 123.399 205.467 122.973 205.482C122.02 205.498 120.299 205.651 118.916 205.774C118.241 205.833 117.626 205.888 117.18 205.92Z" fill="white"/>
<g opacity="0.6">
<path d="M129.075 207.489C128.202 207.49 127.646 208.082 127.839 208.804C128.033 209.527 128.906 210.108 129.779 210.096L176.076 209.431C176.949 209.419 177.652 208.966 177.638 208.427C177.623 207.886 176.899 207.446 176.025 207.446L129.075 207.489Z" fill="white"/>
</g>
<path d="M199.211 176.866C199.207 176.866 199.205 176.866 199.201 176.866L193.937 176.836C193.085 176.832 192.38 176.242 192.296 175.465L191.817 171.05C191.782 170.738 191.878 170.429 192.084 170.181C192.312 169.91 192.654 169.738 193.023 169.711C193.467 169.679 194.077 169.625 194.748 169.566C196.215 169.435 197.88 169.287 198.861 169.27C199.667 169.259 200.338 169.738 200.531 170.439C200.817 171.477 200.8 173.412 200.756 175.471C200.738 176.242 200.047 176.866 199.211 176.866ZM198.891 170.063C198.885 170.063 198.881 170.063 198.875 170.063C197.921 170.079 196.201 170.232 194.818 170.355C194.143 170.415 193.527 170.47 193.081 170.502C192.924 170.513 192.783 170.581 192.693 170.689C192.645 170.746 192.591 170.84 192.605 170.964L193.085 175.379C193.126 175.748 193.502 176.04 193.942 176.042L199.206 176.072C199.207 176.072 199.209 176.072 199.211 176.072C199.617 176.072 199.953 175.796 199.96 175.453C199.994 173.942 200.043 171.661 199.764 170.648C199.671 170.307 199.305 170.063 198.891 170.063Z" fill="white"/>
<g opacity="0.6">
<path d="M204.974 172.073C204.101 172.075 203.545 172.667 203.739 173.389C203.932 174.111 204.805 174.692 205.678 174.68L251.975 174.016C252.848 174.004 253.552 173.55 253.537 173.011C253.523 172.472 252.798 172.03 251.924 172.03L204.974 172.073Z" fill="white"/>
</g>
<path d="M199.255 188.149C199.251 188.149 199.249 188.149 199.245 188.149L193.981 188.12C193.13 188.115 192.424 187.525 192.34 186.748L191.86 182.333C191.825 182.021 191.92 181.712 192.127 181.464C192.355 181.193 192.697 181.021 193.066 180.995C193.509 180.962 194.117 180.908 194.787 180.849C196.257 180.717 197.923 180.569 198.906 180.553C198.916 180.553 198.927 180.553 198.937 180.553C199.714 180.553 200.385 181.03 200.575 181.722C200.861 182.762 200.844 184.696 200.8 186.755C200.782 187.525 200.091 188.149 199.255 188.149ZM198.935 181.346C198.929 181.346 198.925 181.346 198.919 181.346C197.964 181.362 196.241 181.515 194.858 181.639C194.183 181.699 193.57 181.754 193.125 181.786C192.968 181.797 192.827 181.865 192.737 181.973C192.689 182.03 192.636 182.125 192.649 182.248L193.13 186.663C193.17 187.038 193.539 187.324 193.986 187.327L199.25 187.357C199.251 187.357 199.254 187.357 199.255 187.357C199.661 187.357 199.997 187.08 200.005 186.737C200.038 185.228 200.087 182.946 199.808 181.931C199.715 181.59 199.349 181.346 198.935 181.346Z" fill="white"/>
<g opacity="0.6">
<path d="M205.02 183.355C204.147 183.356 203.591 183.948 203.785 184.671C203.978 185.393 204.851 185.974 205.724 185.962L252.021 185.297C252.894 185.285 253.598 184.832 253.583 184.293C253.569 183.752 252.844 183.312 251.971 183.312L205.02 183.355Z" fill="white"/>
</g>
<path d="M199.299 199.432C199.295 199.432 199.293 199.432 199.289 199.432L194.025 199.403C193.173 199.398 192.468 198.808 192.383 198.031L191.903 193.616C191.869 193.304 191.964 192.996 192.171 192.748C192.399 192.475 192.741 192.304 193.111 192.276C193.555 192.244 194.165 192.19 194.836 192.13C196.304 192 197.968 191.852 198.95 191.835C198.96 191.835 198.971 191.835 198.981 191.835C199.758 191.835 200.429 192.312 200.618 193.003C200.904 194.04 200.887 195.976 200.843 198.036C200.826 198.808 200.135 199.432 199.299 199.432ZM193.167 193.068C193.011 193.079 192.87 193.147 192.78 193.255C192.732 193.312 192.678 193.405 192.692 193.528L193.171 197.944C193.212 198.319 193.581 198.605 194.028 198.607L199.293 198.637C199.294 198.637 199.296 198.637 199.298 198.637C199.704 198.637 200.04 198.361 200.047 198.018C200.08 196.507 200.129 194.224 199.851 193.213C199.758 192.872 199.392 192.628 198.978 192.628C198.972 192.628 198.967 192.628 198.961 192.628C198.008 192.643 196.288 192.797 194.905 192.92C194.229 192.981 193.614 193.036 193.167 193.068Z" fill="white"/>
<g opacity="0.6">
<path d="M205.063 194.638C204.19 194.639 203.634 195.231 203.828 195.954C204.021 196.676 204.894 197.257 205.767 197.245L252.064 196.58C252.937 196.568 253.64 196.115 253.626 195.576C253.612 195.035 252.887 194.595 252.014 194.595L205.063 194.638Z" fill="white"/>
</g>
<path d="M199.342 210.716C199.338 210.716 199.336 210.716 199.332 210.716L194.068 210.686C193.216 210.681 192.511 210.091 192.427 209.314L191.946 204.899C191.912 204.587 192.007 204.278 192.214 204.031C192.442 203.759 192.784 203.587 193.154 203.561C193.597 203.528 194.208 203.475 194.879 203.415C196.347 203.283 198.011 203.136 198.992 203.119C199.785 203.098 200.468 203.587 200.661 204.288C200.947 205.325 200.93 207.261 200.886 209.32C200.87 210.091 200.178 210.716 199.342 210.716ZM193.212 204.351C193.055 204.362 192.914 204.43 192.824 204.538C192.776 204.595 192.723 204.69 192.736 204.812L193.216 209.227C193.257 209.596 193.633 209.888 194.073 209.89L199.337 209.92C199.338 209.92 199.341 209.92 199.342 209.92C199.748 209.92 200.086 209.643 200.093 209.301C200.125 207.79 200.174 205.507 199.897 204.496C199.801 204.15 199.419 203.897 199.006 203.911C198.053 203.927 196.332 204.08 194.949 204.203C194.272 204.264 193.658 204.319 193.212 204.351Z" fill="white"/>
<g opacity="0.6">
<path d="M205.107 205.921C204.234 205.922 203.678 206.514 203.872 207.237C204.065 207.959 204.938 208.54 205.811 208.528L252.108 207.863C252.981 207.851 253.684 207.398 253.67 206.859C253.656 206.318 252.931 205.878 252.058 205.878L205.107 205.921Z" fill="white"/>
</g>
<path d="M125.121 233.208C125.117 233.208 125.114 233.208 125.111 233.208L119.847 233.178C118.996 233.173 118.29 232.583 118.205 231.806L117.726 227.391C117.691 227.079 117.787 226.77 117.994 226.523C118.221 226.251 118.563 226.079 118.934 226.053C119.376 226.02 119.987 225.967 120.658 225.907C122.127 225.775 123.79 225.628 124.772 225.611C125.557 225.607 126.249 226.079 126.44 226.78C126.726 227.817 126.709 229.753 126.665 231.812C126.648 232.583 125.957 233.208 125.121 233.208ZM118.99 226.843C118.833 226.854 118.692 226.922 118.602 227.03C118.554 227.087 118.501 227.18 118.514 227.304L118.993 231.719C119.034 232.094 119.404 232.38 119.851 232.382L125.115 232.412C125.116 232.412 125.119 232.412 125.12 232.412C125.526 232.412 125.862 232.136 125.87 231.794C125.902 230.284 125.951 228.001 125.673 226.989C125.579 226.642 125.188 226.392 124.783 226.404C123.829 226.42 122.109 226.573 120.726 226.696C120.052 226.757 119.437 226.811 118.99 226.843Z" fill="white"/>
<g opacity="0.6">
<path d="M130.884 228.413C130.011 228.414 129.455 229.006 129.649 229.729C129.843 230.451 130.716 231.032 131.589 231.02L177.886 230.355C178.759 230.343 179.462 229.89 179.447 229.351C179.433 228.81 178.708 228.37 177.835 228.37L130.884 228.413Z" fill="white"/>
</g>
<path d="M125.165 244.489C125.161 244.489 125.158 244.489 125.155 244.489L119.891 244.459C119.04 244.455 118.334 243.865 118.25 243.088L117.77 238.673C117.735 238.361 117.831 238.052 118.038 237.804C118.265 237.533 118.607 237.361 118.976 237.334C119.42 237.302 120.031 237.248 120.703 237.189C122.17 237.058 123.834 236.91 124.816 236.893C124.827 236.893 124.836 236.893 124.847 236.893C125.624 236.893 126.295 237.37 126.485 238.063C126.771 239.1 126.754 241.034 126.71 243.095C126.692 243.866 126 244.489 125.165 244.489ZM124.846 237.686C124.84 237.686 124.835 237.686 124.829 237.686C123.876 237.702 122.156 237.855 120.774 237.978C120.097 238.039 119.481 238.093 119.034 238.125C118.877 238.136 118.736 238.204 118.646 238.311C118.598 238.369 118.545 238.463 118.558 238.587L119.038 243.002C119.079 243.371 119.455 243.663 119.895 243.665L125.159 243.695C125.16 243.695 125.163 243.695 125.164 243.695C125.57 243.695 125.908 243.418 125.915 243.076C125.947 241.565 125.996 239.283 125.719 238.271C125.625 237.931 125.259 237.686 124.846 237.686Z" fill="white"/>
<g opacity="0.6">
<path d="M130.93 239.696C130.057 239.698 129.501 240.29 129.695 241.012C129.889 241.734 130.761 242.315 131.634 242.303L177.932 241.638C178.804 241.627 179.508 241.173 179.493 240.634C179.479 240.093 178.754 239.653 177.881 239.653L130.93 239.696Z" fill="white"/>
</g>
<path d="M125.208 255.772C125.204 255.772 125.202 255.772 125.198 255.772L119.934 255.742C119.083 255.738 118.377 255.148 118.293 254.371L117.813 249.956C117.778 249.644 117.874 249.335 118.081 249.087C118.308 248.816 118.65 248.644 119.02 248.618C119.464 248.585 120.074 248.531 120.745 248.472C122.213 248.341 123.877 248.193 124.859 248.176C125.662 248.159 126.336 248.644 126.528 249.345C126.814 250.384 126.797 252.318 126.753 254.377C126.736 255.148 126.044 255.772 125.208 255.772ZM119.078 249.409C118.921 249.42 118.78 249.488 118.69 249.596C118.643 249.653 118.589 249.748 118.602 249.871L119.083 254.286C119.123 254.655 119.499 254.947 119.939 254.95L125.203 254.98C125.204 254.98 125.207 254.98 125.208 254.98C125.615 254.98 125.951 254.703 125.958 254.36C125.991 252.85 126.04 250.568 125.762 249.555C125.666 249.209 125.294 248.952 124.871 248.97C123.918 248.986 122.197 249.139 120.814 249.262C120.14 249.322 119.524 249.377 119.078 249.409Z" fill="white"/>
<g opacity="0.6">
<path d="M130.973 250.979C130.1 250.981 129.544 251.573 129.738 252.295C129.931 253.017 130.804 253.598 131.677 253.586L177.974 252.922C178.847 252.91 179.551 252.456 179.536 251.917C179.522 251.378 178.797 250.936 177.924 250.936L130.973 250.979Z" fill="white"/>
</g>
<path d="M125.253 267.056C125.249 267.056 125.247 267.056 125.243 267.056L119.979 267.026C119.127 267.021 118.422 266.431 118.338 265.654L117.859 261.239C117.824 260.927 117.92 260.618 118.126 260.371C118.354 260.099 118.696 259.927 119.065 259.901C119.509 259.868 120.119 259.815 120.791 259.755C122.258 259.624 123.922 259.476 124.903 259.459C124.914 259.459 124.924 259.459 124.935 259.459C125.712 259.459 126.383 259.937 126.573 260.628C126.859 261.668 126.842 263.602 126.798 265.66C126.781 266.431 126.089 267.056 125.253 267.056ZM119.123 260.692C118.966 260.703 118.825 260.771 118.735 260.879C118.687 260.936 118.633 261.031 118.647 261.153L119.127 265.568C119.168 265.943 119.536 266.229 119.984 266.232L125.248 266.261C125.249 266.261 125.251 266.261 125.253 266.261C125.659 266.261 125.995 265.985 126.002 265.642C126.036 264.132 126.085 261.851 125.806 260.836C125.712 260.49 125.323 260.237 124.915 260.251C123.962 260.267 122.241 260.42 120.86 260.543C120.185 260.605 119.569 260.66 119.123 260.692Z" fill="white"/>
<g opacity="0.6">
<path d="M131.017 262.261C130.144 262.262 129.588 262.854 129.782 263.577C129.975 264.299 130.848 264.88 131.721 264.868L178.018 264.203C178.891 264.191 179.595 263.738 179.58 263.199C179.566 262.658 178.841 262.218 177.968 262.218L131.017 262.261Z" fill="white"/>
</g>
<path d="M201.153 231.639C201.15 231.639 201.147 231.639 201.144 231.639L195.879 231.609C195.028 231.604 194.322 231.014 194.239 230.237L193.758 225.822C193.723 225.51 193.819 225.201 194.026 224.954C194.253 224.682 194.595 224.51 194.966 224.484C195.409 224.451 196.019 224.398 196.69 224.338C198.158 224.207 199.822 224.059 200.804 224.042C201.591 224.032 202.281 224.51 202.473 225.211C202.759 226.248 202.743 228.184 202.698 230.243C202.68 231.014 201.989 231.639 201.153 231.639ZM195.023 225.275C194.866 225.286 194.725 225.354 194.636 225.462C194.588 225.519 194.534 225.614 194.547 225.736L195.028 230.151C195.069 230.52 195.444 230.812 195.884 230.815L201.148 230.845C201.15 230.845 201.152 230.845 201.153 230.845C201.56 230.845 201.897 230.568 201.904 230.225C201.937 228.715 201.986 226.432 201.708 225.42C201.614 225.074 201.219 224.825 200.817 224.835C199.864 224.851 198.143 225.004 196.761 225.127C196.084 225.188 195.469 225.243 195.023 225.275Z" fill="white"/>
<g opacity="0.6">
<path d="M206.916 226.846C206.043 226.847 205.487 227.439 205.681 228.161C205.875 228.883 206.748 229.465 207.621 229.453L253.918 228.788C254.791 228.776 255.494 228.322 255.48 227.783C255.465 227.243 254.741 226.802 253.868 226.802L206.916 226.846Z" fill="white"/>
</g>
<path d="M201.197 242.922C201.194 242.922 201.191 242.922 201.188 242.922L195.923 242.892C195.072 242.887 194.366 242.297 194.283 241.52L193.802 237.105C193.767 236.793 193.863 236.484 194.07 236.237C194.297 235.965 194.639 235.793 195.009 235.767C195.452 235.734 196.062 235.681 196.734 235.621C198.202 235.49 199.865 235.342 200.848 235.325C201.649 235.318 202.325 235.793 202.517 236.494C202.803 237.534 202.786 239.468 202.742 241.526C202.724 242.297 202.033 242.922 201.197 242.922ZM195.066 236.558C194.909 236.569 194.768 236.637 194.678 236.745C194.631 236.802 194.577 236.897 194.59 237.02L195.071 241.435C195.111 241.811 195.48 242.096 195.927 242.099L201.191 242.129C201.192 242.129 201.195 242.129 201.196 242.129C201.603 242.129 201.939 241.852 201.946 241.51C201.979 240.001 202.028 237.72 201.75 236.704C201.654 236.359 201.273 236.098 200.859 236.119C199.906 236.135 198.185 236.288 196.802 236.411C196.128 236.471 195.513 236.526 195.066 236.558Z" fill="white"/>
<g opacity="0.6">
<path d="M206.962 238.127C206.089 238.128 205.533 238.72 205.727 239.443C205.921 240.165 206.794 240.746 207.667 240.734L253.964 240.069C254.837 240.057 255.54 239.604 255.526 239.065C255.511 238.525 254.786 238.084 253.913 238.084L206.962 238.127Z" fill="white"/>
</g>
<path d="M201.242 254.205C201.238 254.205 201.236 254.205 201.233 254.205L195.968 254.175C195.117 254.17 194.411 253.58 194.328 252.803L193.847 248.388C193.812 248.076 193.908 247.767 194.115 247.52C194.342 247.248 194.684 247.076 195.053 247.05C195.497 247.018 196.107 246.964 196.779 246.904C198.246 246.774 199.91 246.625 200.892 246.609C200.902 246.609 200.913 246.609 200.923 246.609C201.7 246.609 202.371 247.086 202.56 247.778C202.846 248.815 202.829 250.75 202.785 252.81C202.769 253.58 202.078 254.205 201.242 254.205ZM195.111 247.84C194.954 247.851 194.813 247.919 194.723 248.027C194.676 248.084 194.622 248.179 194.635 248.302L195.116 252.717C195.156 253.093 195.525 253.378 195.972 253.381L201.236 253.411C201.237 253.411 201.24 253.411 201.241 253.411C201.647 253.411 201.984 253.134 201.991 252.791C202.023 251.281 202.072 248.998 201.795 247.986C201.699 247.639 201.321 247.377 200.904 247.401C199.951 247.417 198.23 247.57 196.848 247.693C196.173 247.754 195.558 247.808 195.111 247.84Z" fill="white"/>
<g opacity="0.6">
<path d="M207.005 249.41C206.132 249.412 205.576 250.004 205.77 250.726C205.964 251.448 206.837 252.029 207.71 252.018L254.007 251.353C254.88 251.341 255.583 250.887 255.569 250.348C255.554 249.808 254.829 249.367 253.956 249.367L207.005 249.41Z" fill="white"/>
</g>
<path d="M201.286 265.487C201.283 265.487 201.28 265.487 201.277 265.487L196.012 265.457C195.161 265.452 194.455 264.862 194.371 264.085L193.89 259.67C193.855 259.358 193.951 259.049 194.158 258.802C194.385 258.53 194.727 258.358 195.096 258.332C195.539 258.299 196.148 258.246 196.817 258.186C198.287 258.054 199.953 257.906 200.936 257.89C201.713 257.881 202.413 258.358 202.604 259.059C202.89 260.096 202.873 262.031 202.829 264.091C202.813 264.862 202.122 265.487 201.286 265.487ZM200.967 258.683C200.961 258.683 200.956 258.683 200.95 258.683C199.996 258.699 198.274 258.852 196.889 258.976C196.215 259.036 195.601 259.091 195.156 259.123C195 259.134 194.858 259.202 194.769 259.31C194.721 259.367 194.667 259.462 194.68 259.584L195.161 263.999C195.202 264.374 195.571 264.66 196.018 264.663L201.283 264.693C201.284 264.693 201.286 264.693 201.287 264.693C201.694 264.693 202.03 264.416 202.037 264.073C202.07 262.563 202.119 260.28 201.841 259.268C201.747 258.928 201.381 258.683 200.967 258.683Z" fill="white"/>
<g opacity="0.6">
<path d="M207.049 260.694C206.176 260.695 205.62 261.287 205.814 262.009C206.008 262.731 206.881 263.313 207.754 263.301L254.051 262.636C254.924 262.624 255.627 262.17 255.612 261.631C255.598 261.092 254.873 260.651 254 260.651L207.049 260.694Z" fill="white"/>
</g>
<path d="M189.819 3.93588C183.853 -0.180309 178.679 -0.0774667 175.041 1.01078C171.723 2.00455 169.582 5.22025 169.912 8.66795L171.55 25.8048L190.246 27.3917C190.246 27.3917 201.519 12.008 189.819 3.93588ZM181.653 17.7984C179.08 17.808 176.985 15.7308 176.975 13.1561C176.966 10.5825 179.043 8.48737 181.618 8.47781C184.191 8.46824 186.286 10.5467 186.296 13.1202C186.305 15.6937 184.228 17.7889 181.653 17.7984Z" fill="#263238"/>
<path d="M173.386 18.5327C173.184 18.5327 173.011 18.3797 172.992 18.174L172.731 15.445C172.711 15.2273 172.87 15.0336 173.088 15.0121C173.311 14.9918 173.5 15.152 173.521 15.3697L173.782 18.0986C173.802 18.3163 173.643 18.51 173.424 18.5315C173.411 18.5327 173.399 18.5327 173.386 18.5327ZM172.876 13.1848C172.673 13.1848 172.5 13.0317 172.481 12.826L172.282 10.7536C171.97 7.49364 174.01 4.45014 177.132 3.51617C179.351 2.85126 181.64 2.74961 183.935 3.21002C184.15 3.25307 184.289 3.46235 184.246 3.67761C184.203 3.89286 183.994 4.03039 183.778 3.98854C181.614 3.55324 179.453 3.6501 177.359 4.27674C174.599 5.10309 172.797 7.795 173.072 10.6783L173.27 12.7507C173.291 12.9683 173.131 13.1621 172.913 13.1836C172.901 13.1848 172.888 13.1848 172.876 13.1848Z" fill="#EBEBEB"/>
<path d="M146.084 36.985L146.051 28.3663C146.039 25.391 148.496 22.998 151.469 23.0889L210.903 24.8923C213.541 24.9724 215.684 27.0461 215.853 29.6794L216.381 37.9596L146.084 36.985Z" fill="#263238"/>
<path d="M165.644 26.2257C165.425 26.2257 165.248 26.0488 165.247 25.8299C165.246 25.6111 165.423 25.4329 165.643 25.4317L168.198 25.4221H168.2C168.419 25.4221 168.597 25.5991 168.597 25.818C168.598 26.0368 168.421 26.215 168.201 26.2162L165.645 26.2257H165.644Z" fill="#EBEBEB"/>
<path d="M149.288 34.2117C149.07 34.2117 148.893 34.0347 148.891 33.8159L148.877 30.3299C148.867 27.6655 151.026 25.4902 153.69 25.4795L163.086 25.4424H163.088C163.306 25.4424 163.485 25.6194 163.485 25.8382C163.486 26.0571 163.309 26.2352 163.089 26.2364L153.693 26.2735C151.466 26.2819 149.661 28.1008 149.67 30.3275L149.684 33.8147C149.685 34.0335 149.508 34.2117 149.288 34.2129V34.2117Z" fill="#EBEBEB"/>
<path d="M127.452 33.9032L231.368 33.4942C235.105 33.4798 238.31 36.1562 238.962 39.8347L239.052 40.343C239.766 44.3731 236.675 48.0731 232.582 48.0898L125.97 48.506C123.521 48.5156 121.561 46.4754 121.668 44.0286L121.879 39.2559C122.012 36.271 124.463 33.9151 127.452 33.9032Z" fill="#523DD8"/>
<path opacity="0.6" d="M250.184 81.6808H115.666C114.876 81.6808 114.23 81.035 114.23 80.2457V60.2627C114.23 59.4734 114.876 58.8276 115.666 58.8276H250.184C250.974 58.8276 251.62 59.4734 251.62 60.2627V80.2457C251.62 81.035 250.974 81.6808 250.184 81.6808Z" fill="white"/>
<path d="M26.1924 226.8C26.1924 226.8 21.5608 252.592 53.6174 254.044C89.5031 255.669 154.219 181.26 177.589 152.226C212.973 108.265 247.957 81.1558 278.624 81.4715C309.291 81.7872 315.093 113.01 305.813 129.165C305.813 129.165 306.456 99.1034 287.553 102.758C268.648 106.413 241.121 127.045 177.59 197.582C140.909 238.308 96.1749 270.992 56.0139 268.905C17.1959 266.888 14.3748 241.653 26.1924 226.8Z" fill="url(#paint2_linear_183_7209)"/>
<mask id="mask0_183_7209" style="mask-type:luminance" maskUnits="userSpaceOnUse" x="20" y="81" width="290" height="188">
<path d="M27.4766 226.007C27.4766 226.007 17.7003 253.431 53.6172 254.044C89.534 254.658 154.219 181.26 177.589 152.226C212.973 108.265 247.957 81.1555 278.624 81.4712C309.291 81.7869 315.092 113.01 305.812 129.165C305.812 129.165 306.456 99.1032 287.553 102.758C268.648 106.412 241.12 127.045 177.59 197.582C140.909 238.308 96.2178 269.856 56.0137 268.905C15.8109 267.954 15.659 240.86 27.4766 226.007Z" fill="white"/>
</mask>
<g mask="url(#mask0_183_7209)">
<g opacity="0.29">
<path d="M264.867 100.878C264.712 100.878 264.562 100.799 264.471 100.654L251.518 79.9765C251.376 79.7481 251.437 79.4432 251.656 79.2949C251.873 79.1466 252.166 79.21 252.31 79.4384L265.262 100.116C265.405 100.345 265.344 100.65 265.125 100.798C265.045 100.852 264.955 100.878 264.867 100.878Z" fill="white"/>
<path d="M241.725 115.485C241.571 115.485 241.422 115.409 241.331 115.265L228.387 95.0013C228.242 94.7753 228.301 94.4691 228.519 94.3185C228.736 94.1678 229.029 94.2288 229.174 94.456L242.118 114.72C242.263 114.946 242.204 115.252 241.986 115.403C241.905 115.459 241.814 115.485 241.725 115.485Z" fill="white"/>
<path d="M222.794 128.853C222.653 128.853 222.514 128.788 222.421 128.664L209.797 111.794C209.637 111.58 209.673 111.27 209.88 111.103C210.085 110.935 210.383 110.973 210.543 111.188L223.167 128.058C223.327 128.272 223.291 128.581 223.085 128.749C222.999 128.819 222.896 128.853 222.794 128.853Z" fill="white"/>
<path d="M207.485 143.067C207.374 143.067 207.262 143.026 207.172 142.943L193.099 129.956C192.904 129.775 192.885 129.464 193.058 129.261C193.232 129.057 193.529 129.038 193.725 129.219L207.798 142.206C207.993 142.387 208.013 142.698 207.839 142.901C207.746 143.012 207.615 143.067 207.485 143.067Z" fill="white"/>
<path d="M277.222 96.6601C276.994 96.6601 276.794 96.4879 276.756 96.2463C276.726 96.0562 273.815 77.2033 273.609 76.2047C273.554 75.938 273.717 75.6773 273.973 75.6199C274.228 75.5637 274.479 75.7323 274.534 75.9978C274.744 77.0203 277.569 95.3112 277.688 96.0885C277.73 96.3576 277.554 96.6099 277.297 96.6529C277.272 96.6577 277.247 96.6601 277.222 96.6601Z" fill="white"/>
<path d="M294.236 96.6602C293.975 96.6602 293.764 96.4402 293.764 96.1675V79.7075C293.764 79.4361 293.975 79.2148 294.236 79.2148C294.497 79.2148 294.708 79.4349 294.708 79.7075V96.1675C294.71 96.439 294.498 96.6602 294.236 96.6602Z" fill="white"/>
<path d="M189.374 165.089C189.259 165.089 189.143 165.046 189.052 164.958C186.493 162.48 173.702 150.086 173.273 149.415C173.128 149.189 173.187 148.883 173.404 148.732C173.62 148.583 173.908 148.641 174.055 148.861C174.524 149.487 183.661 158.393 189.697 164.237C189.888 164.422 189.899 164.733 189.722 164.933C189.627 165.037 189.501 165.089 189.374 165.089Z" fill="white"/>
<path d="M172.197 185.097C172.071 185.097 171.945 185.045 171.852 184.942L157.569 169.095C157.39 168.897 157.399 168.585 157.589 168.399C157.779 168.213 158.078 168.224 158.257 168.421L172.541 184.267C172.719 184.466 172.711 184.778 172.521 184.963C172.429 185.053 172.313 185.097 172.197 185.097Z" fill="white"/>
<path d="M153.209 210.061C153.07 210.061 152.931 209.997 152.838 209.872L138.006 190.179C137.845 189.965 137.881 189.655 138.086 189.487C138.292 189.319 138.589 189.357 138.75 189.571L153.581 209.265C153.743 209.479 153.707 209.789 153.501 209.956C153.414 210.028 153.311 210.061 153.209 210.061Z" fill="white"/>
<path d="M134.807 227.484C134.66 227.484 134.514 227.412 134.422 227.277L121.608 208.532C121.456 208.31 121.507 208.003 121.72 207.845C121.932 207.687 122.228 207.739 122.378 207.961L135.192 226.706C135.344 226.928 135.294 227.235 135.081 227.393C134.997 227.454 134.902 227.484 134.807 227.484Z" fill="white"/>
<path d="M119.683 238.791C119.538 238.791 119.395 238.721 119.303 238.591L106.069 219.922C105.914 219.703 105.959 219.395 106.168 219.233C106.378 219.072 106.674 219.119 106.83 219.336L120.063 238.005C120.219 238.224 120.173 238.532 119.964 238.694C119.879 238.758 119.781 238.791 119.683 238.791Z" fill="white"/>
<path d="M101.146 251.205C101.001 251.205 100.859 251.136 100.765 251.005L90.2345 236.2C90.0791 235.982 90.1233 235.673 90.3326 235.512C90.5419 235.349 90.8384 235.396 90.9939 235.614L101.525 250.419C101.68 250.638 101.636 250.947 101.427 251.108C101.343 251.174 101.244 251.205 101.146 251.205Z" fill="white"/>
<path d="M84.1848 259.742C84.0233 259.742 83.8667 259.656 83.7782 259.502L76.0062 245.903C75.8723 245.669 75.9464 245.367 76.17 245.227C76.3937 245.088 76.6843 245.165 76.8182 245.398L84.5902 258.997C84.7241 259.231 84.65 259.533 84.4264 259.673C84.3498 259.721 84.2673 259.742 84.1848 259.742Z" fill="white"/>
<path d="M71.7913 263.026C71.6179 263.026 71.4505 262.926 71.368 262.754L65.0669 249.542C64.9509 249.298 65.0466 249.002 65.2798 248.882C65.513 248.76 65.7976 248.859 65.9136 249.103L72.2146 262.315C72.3306 262.559 72.235 262.854 72.0018 262.975C71.9348 263.01 71.863 263.026 71.7913 263.026Z" fill="white"/>
<path d="M57.7167 265.216C57.4883 265.216 57.2874 265.043 57.2503 264.8L55.1503 250.79C55.1097 250.521 55.2867 250.27 55.5438 250.227C55.7997 250.189 56.0437 250.369 56.0831 250.637L58.1831 264.647C58.2237 264.916 58.0468 265.167 57.7896 265.21C57.7657 265.214 57.7406 265.216 57.7167 265.216Z" fill="white"/>
<path d="M46.7963 264.121C46.7724 264.121 46.7485 264.118 46.7246 264.115C46.4663 264.074 46.2893 263.822 46.3287 263.554L48.4287 249.247C48.4682 248.978 48.7085 248.792 48.968 248.835C49.2263 248.876 49.4033 249.128 49.3639 249.396L47.2639 263.702C47.2268 263.946 47.0247 264.121 46.7963 264.121Z" fill="white"/>
<path d="M36.7121 260.837C36.6571 260.837 36.6009 260.827 36.5459 260.806C36.3019 260.71 36.1776 260.427 36.2696 260.172L40.2603 249.075C40.3524 248.821 40.625 248.692 40.869 248.787C41.1129 248.883 41.2373 249.166 41.1452 249.421L37.1546 260.517C37.0828 260.716 36.9035 260.837 36.7121 260.837Z" fill="white"/>
<path d="M26.8389 248.638C26.7253 248.638 26.6105 248.595 26.5196 248.508C26.327 248.324 26.3139 248.013 26.4909 247.812L34.0524 239.217C34.2282 239.017 34.5271 239.002 34.7197 239.187C34.9122 239.371 34.9254 239.682 34.7484 239.883L27.1869 248.479C27.0948 248.584 26.9668 248.638 26.8389 248.638Z" fill="white"/>
<path d="M24.8983 236.181C24.7297 236.181 24.5671 236.087 24.481 235.922C24.3578 235.682 24.4439 235.384 24.6735 235.255C27.1561 233.867 31.9791 231.159 32.4646 230.833C32.6847 230.686 32.9765 230.753 33.1176 230.982C33.2587 231.211 33.1941 231.515 32.9741 231.662C32.3355 232.088 25.4138 235.958 25.1196 236.123C25.0502 236.162 24.9737 236.181 24.8983 236.181Z" fill="white"/>
<path d="M281.214 88.2663C281.056 88.2663 280.919 88.1431 280.901 87.9757L279.799 77.8729C279.78 77.6923 279.904 77.5297 280.076 77.5094C280.245 77.4867 280.405 77.6182 280.425 77.7988L281.528 87.9015C281.547 88.0821 281.424 88.2447 281.251 88.2651C281.237 88.2651 281.225 88.2663 281.214 88.2663Z" fill="white"/>
<path d="M285.624 87.8405C285.46 87.8405 285.322 87.7078 285.31 87.5344L284.679 77.8562C284.668 77.6756 284.799 77.519 284.972 77.5058C285.149 77.4998 285.297 77.6302 285.308 77.8119L285.939 87.4902C285.951 87.6707 285.819 87.8274 285.646 87.8405C285.639 87.8405 285.633 87.8405 285.624 87.8405Z" fill="white"/>
<path d="M290.351 88.2664C290.176 88.2664 290.036 88.1193 290.036 87.9375V79.7075C290.036 79.5258 290.177 79.3787 290.351 79.3787C290.524 79.3787 290.665 79.5258 290.665 79.7075V87.9375C290.665 88.1193 290.524 88.2664 290.351 88.2664Z" fill="white"/>
<path d="M273.178 88.9983C273.041 88.9983 272.916 88.9062 272.875 88.7627C270.414 80.1058 270.632 79.6968 270.704 79.5628C270.744 79.4851 270.83 79.4133 270.913 79.3906C271.081 79.3428 271.254 79.4456 271.3 79.6214C271.322 79.7015 271.312 79.7841 271.279 79.8534C271.287 80.5219 272.404 84.7936 273.479 88.5773C273.528 88.7507 273.434 88.9337 273.266 88.9851C273.239 88.9947 273.208 88.9983 273.178 88.9983Z" fill="white"/>
<path d="M269.083 90.3745C268.947 90.3745 268.823 90.2836 268.781 90.1425L265.946 80.5576C265.894 80.3842 265.988 80.2 266.154 80.1474C266.32 80.0936 266.496 80.1905 266.547 80.3651L269.383 89.95C269.434 90.1234 269.341 90.3076 269.175 90.3614C269.145 90.3709 269.114 90.3745 269.083 90.3745Z" fill="white"/>
<path d="M264.867 91.4616C264.763 91.4616 264.662 91.409 264.601 91.3109L259.366 82.8513C259.271 82.6995 259.313 82.4962 259.46 82.3969C259.607 82.2989 259.801 82.3431 259.896 82.495L265.131 90.9546C265.226 91.1065 265.184 91.3098 265.037 91.409C264.984 91.4437 264.926 91.4616 264.867 91.4616Z" fill="white"/>
<path d="M254.905 96.4962C254.8 96.4962 254.697 96.4412 254.637 96.3407L249.123 87.0763C249.031 86.922 249.076 86.7199 249.224 86.6243C249.373 86.5298 249.566 86.5764 249.659 86.7295L255.173 95.9939C255.265 96.1482 255.219 96.3503 255.071 96.446C255.018 96.4795 254.961 96.4962 254.905 96.4962Z" fill="white"/>
<path d="M247.658 99.5265C247.556 99.5265 247.457 99.4763 247.396 99.3818L241.462 90.2298C241.365 90.0803 241.402 89.8758 241.547 89.7742C241.692 89.6725 241.887 89.712 241.985 89.8627L247.919 99.0147C248.015 99.1642 247.978 99.3687 247.834 99.4703C247.78 99.5086 247.718 99.5265 247.658 99.5265Z" fill="white"/>
<path d="M241.724 103.447C241.622 103.447 241.523 103.397 241.462 103.302L234.99 93.2878C234.893 93.1371 234.931 92.9339 235.075 92.8322C235.22 92.7306 235.415 92.7712 235.513 92.9207L241.985 102.935C242.082 103.086 242.043 103.289 241.9 103.391C241.845 103.428 241.784 103.447 241.724 103.447Z" fill="white"/>
<path d="M231.746 110.013C231.647 110.013 231.55 109.964 231.489 109.874L225.188 100.575C225.087 100.427 225.121 100.223 225.263 100.117C225.404 100.012 225.602 100.048 225.702 100.196L232.003 109.495C232.104 109.644 232.07 109.848 231.928 109.953C231.873 109.994 231.809 110.013 231.746 110.013Z" fill="white"/>
<path d="M226.223 113.141C226.121 113.141 226.02 113.089 225.959 112.993L220.298 104.12C220.201 103.969 220.241 103.765 220.386 103.664C220.531 103.564 220.726 103.605 220.822 103.757L226.483 112.63C226.58 112.781 226.541 112.985 226.396 113.086C226.343 113.123 226.282 113.141 226.223 113.141Z" fill="white"/>
<path d="M221.822 117.894C221.725 117.894 221.629 117.847 221.567 117.76L215.108 108.57C215.005 108.424 215.035 108.218 215.176 108.111C215.316 108.003 215.513 108.035 215.616 108.181L222.075 117.371C222.178 117.517 222.148 117.723 222.007 117.831C221.951 117.874 221.886 117.894 221.822 117.894Z" fill="white"/>
<path d="M212.684 126.266C212.592 126.266 212.501 126.224 212.438 126.146L205.4 117.115C205.29 116.974 205.311 116.767 205.445 116.654C205.58 116.54 205.779 116.561 205.889 116.702L212.928 125.732C213.038 125.873 213.016 126.08 212.882 126.193C212.824 126.242 212.754 126.266 212.684 126.266Z" fill="white"/>
<path d="M207.485 131.356C207.412 131.356 207.339 131.33 207.279 131.276L198.772 123.601C198.64 123.482 198.626 123.274 198.74 123.138C198.853 123 199.052 122.986 199.185 123.104L207.692 130.78C207.824 130.898 207.838 131.106 207.724 131.242C207.661 131.318 207.572 131.356 207.485 131.356Z" fill="white"/>
<path d="M197.875 142.028C197.802 142.028 197.728 142.002 197.668 141.947L189.168 134.231C189.036 134.112 189.023 133.904 189.137 133.768C189.25 133.632 189.45 133.617 189.582 133.736L198.082 141.451C198.213 141.57 198.227 141.778 198.113 141.914C198.05 141.99 197.962 142.028 197.875 142.028Z" fill="white"/>
<path d="M194.883 146.582C194.817 146.582 194.751 146.56 194.695 146.517L185.401 139.3C185.261 139.191 185.232 138.987 185.336 138.841C185.44 138.695 185.637 138.665 185.777 138.774L195.072 145.991C195.211 146.1 195.24 146.306 195.136 146.45C195.073 146.536 194.978 146.582 194.883 146.582Z" fill="white"/>
<path d="M190.235 152.356C190.162 152.356 190.089 152.329 190.029 152.275L181.315 144.411C181.183 144.293 181.169 144.085 181.283 143.949C181.396 143.811 181.595 143.797 181.728 143.915L190.442 151.779C190.573 151.897 190.588 152.106 190.474 152.242C190.411 152.316 190.322 152.356 190.235 152.356Z" fill="white"/>
<path d="M179.758 163.207C179.678 163.207 179.597 163.175 179.536 163.111L171.974 155.23C171.851 155.102 171.851 154.894 171.974 154.766C172.097 154.638 172.297 154.638 172.42 154.766L179.982 162.647C180.105 162.775 180.105 162.983 179.982 163.111C179.92 163.175 179.839 163.207 179.758 163.207Z" fill="white"/>
<path d="M175.977 168.165C175.89 168.165 175.804 168.128 175.742 168.054L168.18 159.155C168.066 159.019 168.077 158.812 168.208 158.691C168.338 158.572 168.538 158.584 168.653 158.72L176.214 167.618C176.329 167.755 176.317 167.962 176.188 168.082C176.126 168.139 176.052 168.165 175.977 168.165Z" fill="white"/>
<path d="M171.288 173.221C171.211 173.221 171.132 173.191 171.071 173.13C168.157 170.241 163.698 165.855 163.356 165.613C163.213 165.511 163.173 165.307 163.27 165.157C163.367 165.007 163.561 164.966 163.705 165.066C164.187 165.401 170.757 171.913 171.505 172.654C171.63 172.78 171.635 172.987 171.516 173.118C171.455 173.188 171.371 173.221 171.288 173.221Z" fill="white"/>
<path d="M162.114 183.236C162.029 183.236 161.944 183.201 161.882 183.13C161.17 182.322 154.923 175.216 154.604 174.707C154.508 174.556 154.549 174.352 154.694 174.253C154.84 174.154 155.035 174.196 155.131 174.346C155.357 174.703 159.57 179.529 162.347 182.685C162.464 182.819 162.456 183.027 162.328 183.149C162.266 183.208 162.189 183.236 162.114 183.236Z" fill="white"/>
<path d="M156.443 189.146C156.34 189.146 156.24 189.094 156.179 188.998L150.98 180.722C150.885 180.57 150.925 180.366 151.071 180.267C151.217 180.168 151.412 180.211 151.508 180.362L156.706 188.638C156.802 188.79 156.761 188.993 156.615 189.093C156.562 189.13 156.502 189.146 156.443 189.146Z" fill="white"/>
<path d="M153.202 195.549C153.12 195.549 153.036 195.516 152.974 195.448L144.556 186.254C144.436 186.122 144.44 185.915 144.567 185.79C144.693 185.664 144.892 185.669 145.013 185.8L153.431 194.994C153.55 195.126 153.546 195.333 153.42 195.458C153.359 195.519 153.28 195.549 153.202 195.549Z" fill="white"/>
<path d="M143.367 205.892C143.267 205.892 143.171 205.845 143.11 205.754L136.64 196.231C136.539 196.083 136.573 195.878 136.715 195.773C136.858 195.669 137.054 195.704 137.154 195.851L143.624 205.373C143.724 205.522 143.691 205.726 143.548 205.831C143.493 205.873 143.43 205.892 143.367 205.892Z" fill="white"/>
<path d="M138.378 209.897C138.276 209.897 138.177 209.846 138.116 209.753L131.762 199.906C131.666 199.755 131.704 199.552 131.849 199.45C131.993 199.349 132.188 199.389 132.286 199.54L138.64 209.387C138.737 209.537 138.699 209.741 138.554 209.842C138.499 209.879 138.438 209.897 138.378 209.897Z" fill="white"/>
<path d="M133.6 214.248C133.508 214.248 133.415 214.206 133.353 214.125L126.264 204.851C126.155 204.708 126.178 204.503 126.314 204.389C126.451 204.277 126.648 204.299 126.757 204.442L133.846 213.716C133.955 213.858 133.932 214.064 133.796 214.177C133.737 214.224 133.668 214.248 133.6 214.248Z" fill="white"/>
<path d="M125.092 222.09C124.994 222.09 124.897 222.042 124.836 221.954L118.535 212.815C118.433 212.668 118.466 212.462 118.607 212.357C118.748 212.251 118.945 212.285 119.047 212.432L125.348 221.571C125.449 221.718 125.417 221.924 125.276 222.029C125.22 222.071 125.155 222.09 125.092 222.09Z" fill="white"/>
<path d="M120.996 225.543C120.898 225.543 120.801 225.495 120.74 225.405L114.439 216.263C114.338 216.116 114.37 215.91 114.511 215.805C114.652 215.698 114.849 215.733 114.951 215.88L121.252 225.023C121.354 225.17 121.321 225.375 121.18 225.481C121.124 225.523 121.06 225.543 120.996 225.543Z" fill="white"/>
<path d="M117.845 228.386C117.75 228.386 117.656 228.341 117.594 228.255L111.45 219.828C111.345 219.683 111.372 219.477 111.51 219.367C111.648 219.257 111.846 219.286 111.951 219.431L118.095 227.858C118.201 228.003 118.173 228.209 118.035 228.319C117.979 228.363 117.912 228.386 117.845 228.386Z" fill="white"/>
<path d="M111.701 234.578C111.61 234.578 111.519 234.537 111.457 234.458L104.329 225.423C104.219 225.283 104.238 225.077 104.372 224.962C104.507 224.846 104.705 224.866 104.816 225.007L111.943 234.042C112.053 234.182 112.034 234.389 111.9 234.504C111.842 234.554 111.771 234.578 111.701 234.578Z" fill="white"/>
<path d="M106.449 238.082C106.348 238.082 106.248 238.031 106.189 237.937L99.8875 228.241C99.7894 228.091 99.8277 227.887 99.9712 227.785C100.115 227.684 100.311 227.723 100.409 227.873L106.71 237.569C106.808 237.718 106.77 237.923 106.625 238.024C106.572 238.063 106.51 238.082 106.449 238.082Z" fill="white"/>
<path d="M101.877 241.629C101.78 241.629 101.685 241.583 101.623 241.496L95.627 233.101C95.5229 232.956 95.5516 232.749 95.6915 232.642C95.8315 232.533 96.0288 232.564 96.1328 232.709L102.129 241.104C102.233 241.248 102.204 241.455 102.064 241.563C102.008 241.607 101.942 241.629 101.877 241.629Z" fill="white"/>
<path d="M92.1665 248.474C92.0625 248.474 91.962 248.421 91.901 248.323L85.8093 238.475C85.7148 238.323 85.7567 238.12 85.9037 238.021C86.0508 237.923 86.2458 237.966 86.339 238.119L92.4308 247.967C92.5253 248.119 92.4834 248.322 92.3363 248.421C92.2849 248.457 92.2251 248.474 92.1665 248.474Z" fill="white"/>
<path d="M86.0745 251.041C85.9705 251.041 85.8688 250.987 85.8091 250.889L80.033 241.477C79.9397 241.324 79.9816 241.12 80.1287 241.023C80.2746 240.925 80.4695 240.97 80.564 241.123L86.34 250.535C86.4333 250.688 86.3914 250.892 86.2444 250.989C86.1917 251.025 86.1331 251.041 86.0745 251.041Z" fill="white"/>
<path d="M76.4125 255.476C76.3001 255.476 76.1913 255.412 76.1351 255.302L71.5142 246.326C71.4317 246.166 71.4891 245.967 71.6434 245.881C71.7977 245.795 71.9878 245.856 72.0703 246.015L76.6912 254.991C76.7737 255.152 76.7163 255.35 76.562 255.436C76.513 255.462 76.4628 255.476 76.4125 255.476Z" fill="white"/>
<path d="M73.0513 256.882C72.9461 256.882 72.8444 256.828 72.7846 256.729L68.3731 249.425C68.2798 249.271 68.324 249.068 68.4723 248.971C68.6194 248.876 68.8143 248.921 68.9064 249.074L73.318 256.379C73.4113 256.532 73.367 256.735 73.2187 256.832C73.1673 256.865 73.1087 256.882 73.0513 256.882Z" fill="white"/>
<path d="M65.49 259.579C65.3608 259.579 65.2389 259.495 65.1934 259.361L62.2528 250.77C62.1942 250.599 62.2803 250.411 62.4441 250.35C62.6079 250.288 62.7885 250.378 62.8471 250.549L65.7878 259.14C65.8464 259.311 65.7603 259.499 65.5964 259.56C65.5606 259.573 65.5247 259.579 65.49 259.579Z" fill="white"/>
<path d="M61.493 260.673C61.3519 260.673 61.2227 260.574 61.188 260.424L58.8824 250.793C58.8405 250.617 58.9434 250.439 59.112 250.394C59.2818 250.352 59.4516 250.458 59.4935 250.633L61.7991 260.265C61.841 260.441 61.7381 260.619 61.5695 260.663C61.5444 260.67 61.5193 260.673 61.493 260.673Z" fill="white"/>
<path d="M53.3057 260.673C53.1311 260.673 52.9912 260.526 52.9912 260.344V250.712C52.9912 250.531 53.1323 250.384 53.3057 250.384C53.4791 250.384 53.6202 250.531 53.6202 250.712V260.344C53.6214 260.526 53.4803 260.673 53.3057 260.673Z" fill="white"/>
<path d="M50.5557 260.673C50.3823 260.673 50.2412 260.526 50.2412 260.344V250.659C50.2412 250.477 50.3823 250.33 50.5557 250.33C50.7303 250.33 50.8702 250.477 50.8702 250.659V260.344C50.8702 260.526 50.7291 260.673 50.5557 260.673Z" fill="white"/>
<path d="M44.0646 259.579C44.0491 259.579 44.0323 259.577 44.0168 259.575C43.8446 259.548 43.7274 259.38 43.7537 259.201L45.0141 250.663C45.0404 250.484 45.2019 250.361 45.3729 250.388C45.5451 250.416 45.6623 250.583 45.636 250.763L44.3755 259.3C44.3516 259.463 44.2177 259.579 44.0646 259.579Z" fill="white"/>
<path d="M40.7027 258.047C40.6716 258.047 40.6393 258.042 40.6082 258.031C40.442 257.976 40.3499 257.792 40.4025 257.62C41.48 254.047 42.4666 250.031 42.2513 249.497C42.1509 249.349 42.1891 249.152 42.3314 249.048C42.4738 248.943 42.6747 248.987 42.7751 249.134C43.3049 249.916 41.7132 255.467 41.004 257.817C40.961 257.957 40.8366 258.047 40.7027 258.047Z" fill="white"/>
<path d="M34.5217 255.476C34.4643 255.476 34.4069 255.46 34.3555 255.425C34.2072 255.33 34.1629 255.128 34.255 254.973L38.4406 247.972C38.5326 247.817 38.7264 247.771 38.8747 247.866C39.0217 247.962 39.0672 248.164 38.9751 248.318L34.7896 255.32C34.7298 255.421 34.6269 255.476 34.5217 255.476Z" fill="white"/>
<path d="M31.6708 250.987C31.6206 250.987 31.5692 250.976 31.5225 250.948C31.3694 250.862 31.312 250.663 31.3934 250.503L35.1747 243.156C35.2572 242.997 35.4474 242.936 35.6016 243.022C35.7547 243.108 35.8121 243.306 35.7308 243.467L31.9494 250.814C31.892 250.924 31.7832 250.987 31.6708 250.987Z" fill="white"/>
<path d="M26.84 241.629C26.7228 241.629 26.6116 241.56 26.5566 241.444C26.4801 241.282 26.5446 241.084 26.7013 241.006L32.5826 238.003C32.7393 237.923 32.9282 237.991 33.0048 238.153C33.0813 238.316 33.0167 238.513 32.86 238.592L26.9787 241.595C26.9333 241.618 26.8867 241.629 26.84 241.629Z" fill="white"/>
<path d="M26.8403 237.892C26.7375 237.892 26.637 237.84 26.5772 237.743C26.4816 237.591 26.5222 237.388 26.6669 237.289L31.4982 233.976C31.6441 233.876 31.8391 233.919 31.9347 234.07C32.0304 234.221 31.9898 234.425 31.8451 234.524L27.0137 237.837C26.9599 237.874 26.8989 237.892 26.8403 237.892Z" fill="white"/>
</g>
</g>
<path d="M228.621 213.563C222.685 215.78 216.149 215.839 210.141 213.826C203.455 211.586 192.602 211.107 176.156 218.478C143.911 232.93 145.05 295.986 190.819 305.416C250.595 317.732 278.636 288.123 283.796 266.822C288.956 245.523 275.302 218.437 248.771 212.649C240.083 210.755 233.413 211.774 228.621 213.563Z" fill="url(#paint3_linear_183_7209)"/>
<path opacity="0.23" d="M187.311 223.211C192.563 223.551 202.354 225.793 193.377 237.27C184.401 248.747 176.873 267.701 180.706 279.991C184.539 292.281 159.607 277.091 158.184 260.747C156.762 244.403 170.999 222.155 187.311 223.211Z" fill="white"/>
<path d="M236.681 220.745C236.681 223.734 228.977 226.157 219.475 226.157C209.972 226.157 202.269 223.734 202.269 220.745C202.269 217.757 209.972 220.745 219.475 220.745C228.977 220.745 236.681 217.756 236.681 220.745Z" fill="url(#paint4_linear_183_7209)"/>
<path d="M215.014 220.011C215.014 220.011 209.54 197.287 235.494 182.741C261.448 168.194 260.864 166.879 262.281 174.573C263.698 182.267 271.53 209.537 243.089 221.252C214.648 232.968 215.014 220.011 215.014 220.011Z" fill="url(#paint5_linear_183_7209)"/>
<path d="M257.598 175.417C253.526 182.047 234.619 211.966 217.982 223.794C217.982 223.794 237.716 226.34 251.871 213.083C263.978 201.747 260.15 181.29 258.787 175.604C258.652 175.039 257.902 174.922 257.598 175.417Z" fill="#523DD8"/>
<path d="M218.308 224.216C218.843 227.948 222.021 223.833 220.532 216.42C219.043 209.007 217.514 191.378 206.812 194.46C196.109 197.541 216.044 208.465 218.308 224.216Z" fill="url(#paint6_linear_183_7209)"/>
<path d="M307.354 307.408L220.723 311.595C220.34 311.613 220.011 311.315 219.993 310.932L219.054 291.51C219.037 291.127 219.334 290.798 219.717 290.78L306.348 286.594C306.731 286.576 307.06 286.874 307.078 287.256L308.017 306.678C308.035 307.061 307.737 307.389 307.354 307.408Z" fill="url(#paint7_linear_183_7209)"/>
<g opacity="0.22">
<path d="M304.715 292.347L221.895 296.349C220.463 296.419 219.236 295.304 219.167 293.873C219.098 292.441 220.212 291.214 221.644 291.145L304.464 287.142C305.895 287.073 307.122 288.188 307.192 289.619C307.26 291.051 306.145 292.278 304.715 292.347Z" fill="url(#paint8_linear_183_7209)"/>
</g>
<path d="M192.603 282.793L200.972 274.107L212.438 273.552L221.27 281.408L223.112 319.518L214.733 328.035L202.424 328.631L194.444 320.903L192.603 282.793Z" fill="url(#paint9_linear_183_7209)"/>
<g opacity="0.22">
<path d="M214.733 328.035L212.438 273.552L221.27 281.408L223.112 319.518L214.733 328.035Z" fill="url(#paint10_linear_183_7209)"/>
</g>
<g opacity="0.54">
<path d="M192.994 282.793L201.363 274.107L212.83 273.552L221.66 281.408L192.994 282.793Z" fill="#523DD8"/>
</g>
<g opacity="0.54">
<path d="M194.836 320.903L202.815 328.631L215.125 328.035L223.502 319.518L194.836 320.903Z" fill="#523DD8"/>
</g>
<path d="M322.09 276.113L312.922 268.274L301.456 268.829L293.423 277.499L295.264 315.609L304.425 323.279L316.734 322.684L323.932 314.223L322.09 276.113Z" fill="#523DD8"/>
<g opacity="0.22">
<path d="M304.426 323.279L301.456 268.829L293.424 277.499L295.265 315.609L304.426 323.279Z" fill="url(#paint11_linear_183_7209)"/>
</g>
<g opacity="0.54">
<path d="M322.091 276.113L312.923 268.274L301.456 268.829L293.424 277.499L322.091 276.113Z" fill="#523DD8"/>
</g>
<g opacity="0.54">
<path d="M323.933 314.223L316.735 322.684L304.426 323.279L295.266 315.609L323.933 314.223Z" fill="#523DD8"/>
</g>
<defs>
<linearGradient id="paint0_linear_183_7209" x1="63.2277" y1="154.304" x2="128.338" y2="165.726" gradientUnits="userSpaceOnUse">
<stop stop-color="#41A362"/>
<stop offset="1" stop-color="#204F2E"/>
</linearGradient>
<linearGradient id="paint1_linear_183_7209" x1="62.6048" y1="77.9998" x2="62.6048" y2="301.359" gradientUnits="userSpaceOnUse">
<stop offset="0.025" stop-color="#0E327E"/>
<stop offset="0.365" stop-color="#2144B4"/>
<stop offset="1" stop-color="#BE6BC5"/>
</linearGradient>
<linearGradient id="paint2_linear_183_7209" x1="164.944" y1="81.4688" x2="164.944" y2="269" gradientUnits="userSpaceOnUse">
<stop offset="0.025" stop-color="#0E327E"/>
<stop offset="0.365" stop-color="#2144B4"/>
<stop offset="1" stop-color="#BE6BC5"/>
</linearGradient>
<linearGradient id="paint3_linear_183_7209" x1="219.558" y1="216.93" x2="219.293" y2="286.771" gradientUnits="userSpaceOnUse">
<stop stop-color="#FF928E"/>
<stop offset="1" stop-color="#FE7062"/>
</linearGradient>
<linearGradient id="paint4_linear_183_7209" x1="230.908" y1="206.483" x2="214.045" y2="227.687" gradientUnits="userSpaceOnUse">
<stop stop-color="#E1473D"/>
<stop offset="1" stop-color="#E9605A"/>
</linearGradient>
<linearGradient id="paint5_linear_183_7209" x1="239.433" y1="169.932" x2="239.433" y2="226.156" gradientUnits="userSpaceOnUse">
<stop offset="0.025" stop-color="#0E327E"/>
<stop offset="0.365" stop-color="#2144B4"/>
<stop offset="1" stop-color="#BE6BC5"/>
</linearGradient>
<linearGradient id="paint6_linear_183_7209" x1="203.675" y1="209.859" x2="220.925" y2="209.859" gradientUnits="userSpaceOnUse">
<stop stop-color="#E1473D"/>
<stop offset="1" stop-color="#E9605A"/>
</linearGradient>
<linearGradient id="paint7_linear_183_7209" x1="225.944" y1="254.859" x2="306.028" y2="349.096" gradientUnits="userSpaceOnUse">
<stop stop-color="#4F52FF"/>
<stop offset="1" stop-color="#4042E2"/>
</linearGradient>
<linearGradient id="paint8_linear_183_7209" x1="263.179" y1="287.139" x2="263.179" y2="296.353" gradientUnits="userSpaceOnUse">
<stop offset="0.025" stop-color="#0E327E"/>
<stop offset="0.365" stop-color="#2144B4"/>
<stop offset="1" stop-color="#BE6BC5"/>
</linearGradient>
<linearGradient id="paint9_linear_183_7209" x1="1038.82" y1="425.956" x2="1212.33" y2="452.015" gradientUnits="userSpaceOnUse">
<stop stop-color="#4F52FF"/>
<stop offset="1" stop-color="#4042E2"/>
</linearGradient>
<linearGradient id="paint10_linear_183_7209" x1="217.775" y1="273.552" x2="217.775" y2="328.035" gradientUnits="userSpaceOnUse">
<stop offset="0.025" stop-color="#0E327E"/>
<stop offset="0.365" stop-color="#2144B4"/>
<stop offset="1" stop-color="#BE6BC5"/>
</linearGradient>
<linearGradient id="paint11_linear_183_7209" x1="298.925" y1="268.829" x2="298.925" y2="323.279" gradientUnits="userSpaceOnUse">
<stop offset="0.025" stop-color="#0E327E"/>
<stop offset="0.365" stop-color="#2144B4"/>
<stop offset="1" stop-color="#BE6BC5"/>
</linearGradient>
</defs>
</svg>
