<svg width="20" height="20" viewBox="0 0 20 20" fill="none" xmlns="http://www.w3.org/2000/svg">
<path d="M12.8281 10L19.4141 3.41406C19.7917 3.03645 20 2.53387 20 2C20 1.46613 19.7917 0.963555 19.4141 0.585938C19.0364 0.20832 18.5339 0 18 0C17.4661 0 16.9636 0.20832 16.5859 0.585938L10 7.17188L3.41406 0.585938C3.03645 0.20832 2.53387 0 2 0C1.46613 0 0.963555 0.20832 0.585938 0.585938C0.20832 0.963555 0 1.46613 0 2C0 2.53387 0.20832 3.03645 0.585938 3.41406L7.17188 10L0.585938 16.5859C0.20832 16.9635 0 17.4661 0 18C0 18.5339 0.20832 19.0364 0.585938 19.4141C0.96418 19.7917 1.46613 20 2 20C2.53387 20 3.03582 19.7917 3.41406 19.4141L10 12.8281L16.5859 19.4141C16.9642 19.7917 17.4661 20 18 20C18.5339 20 19.0358 19.7917 19.4141 19.4141C19.7917 19.0365 20 18.5339 20 18C20 17.4661 19.7917 16.9636 19.4141 16.5859L12.8281 10Z" fill="white" fill-opacity="0.5"/>
</svg>
