<svg width="330" height="330" viewBox="0 0 330 331" fill="none" xmlns="http://www.w3.org/2000/svg">
<path d="M215.41 73.3404C215.41 73.3404 190.106 91.0834 178.902 118.753C178.902 118.753 167.5 148.302 143.389 162.64C143.389 162.64 105.282 187.905 101.571 181.961C101.571 181.961 98.5896 179.371 111.106 172.361C112.883 171.365 114.551 170.184 116.083 168.841C117.467 167.628 119.128 166.124 120.357 164.867L104.372 174.858C103.079 175.666 101.792 176.483 100.519 177.319C98.3617 178.736 92.9387 181.954 90.6083 180.198C87.6634 177.977 93.9649 172.54 97.9971 169.578C102.029 166.616 108.721 161.111 108.721 161.111L100.648 166.132C98.8724 167.236 97.1392 168.406 95.4483 169.634C91.1284 172.773 81.6197 179.215 79.2736 176.946C76.2109 173.984 83.518 168.644 89.4674 164.189C95.4153 159.734 103.783 152.936 103.783 152.936L103.107 153.317C98.6226 155.837 94.3027 158.638 90.14 161.661C85.9459 164.706 80.3862 168.211 78.7974 166.697C76.3822 164.395 79.8644 160.528 88.5843 152.874C90.0583 151.58 91.5669 150.326 93.1053 149.108C98.9793 144.454 117.002 129.568 121.814 118.528C121.814 118.528 117.997 117.941 107.459 122.33C106.318 122.804 105.144 123.196 103.939 123.469C100.196 124.319 93.1556 125.15 92.2001 119.707C92.2001 119.707 93.4259 117.322 105.667 111.001C105.667 111.001 112.589 107.136 120.134 99.5094C123.756 95.848 127.633 92.4458 131.816 89.4413C136.008 86.432 141.139 83.2498 146.095 81.4851C151.825 79.4454 157.124 76.3434 161.543 72.1666C168.209 65.8667 176.525 55.9243 180.995 42.5781C180.997 42.5781 205.95 46.0038 215.41 73.3404Z" fill="#804034"/>
<path d="M193.138 53.685C188.47 57.4046 184.874 62.3404 182.794 67.9394C182.286 69.3066 181.779 70.7476 181.563 72.1933C181.317 73.8543 182.478 75.0203 184.085 75.2136C185.442 75.3754 187.326 74.9339 188.248 73.8511C188.606 73.4316 188.861 72.7449 188.493 72.2341C187.915 71.4327 187.087 72.2797 186.688 72.8313C185.932 73.8779 184.335 72.6616 185.093 71.6134C185.943 70.4364 187.403 69.4779 188.892 70.053C190.071 70.5071 190.703 71.7706 190.657 72.99C190.538 76.1769 186.304 77.5911 183.65 77.181C182.138 76.9469 180.749 76.0889 180.003 74.7343C179.187 73.254 179.586 71.6496 180.003 70.1111C180.897 66.8049 182.303 63.6651 184.125 60.7659C186.202 57.458 188.855 54.5336 191.908 52.101C192.917 51.2964 194.15 52.8789 193.138 53.685Z" fill="#333333"/>
<path d="M190.068 49.8664C185.822 52.1073 184.508 57.5209 180.328 59.8937C178.172 61.1163 175.664 60.2017 175.683 57.5287C175.698 55.1119 177.177 52.2503 180.021 53.1884C181.247 53.5923 180.477 55.4466 179.255 55.0427C177.678 54.5226 176.486 60.0524 179.624 57.9813C180.95 57.106 181.97 55.8457 182.916 54.5886C184.78 52.1136 186.46 49.5082 189.277 48.0216C190.42 47.4182 191.204 49.2662 190.068 49.8664Z" fill="#333333"/>
<path d="M196.974 52.1528C196.395 54.1187 195.866 56.0971 195.401 58.0928C195.006 59.7852 194.572 61.5987 195.13 63.3052C195.529 64.5247 193.688 65.3245 193.287 64.0972C192.649 62.1439 192.872 60.2158 193.318 58.2452C193.84 55.9399 194.453 53.6535 195.121 51.3875C195.484 50.1508 197.337 50.9239 196.974 52.1528Z" fill="#333333"/>
<path d="M173.903 65.7317C173.935 65.5211 173.996 65.3105 174.092 65.1078C174.518 64.1995 175.503 63.6291 176.505 63.7532C177.357 63.8601 178.115 64.4415 178.435 65.2351C178.811 66.167 178.517 67.3235 177.741 67.9615C177.021 68.5539 175.979 68.6859 175.138 68.2805C174.17 67.8154 173.521 66.7971 173.903 65.7317Z" fill="#333333"/>
<path d="M196.618 59.1694C196.634 59.0547 196.662 58.9415 196.706 58.8315C196.794 58.6131 196.935 58.4245 197.108 58.2768C197.204 58.159 197.316 58.0615 197.452 57.9955C197.595 57.8934 197.756 57.8337 197.933 57.8132C198.274 57.7787 198.673 57.8352 198.939 58.0741C199.156 58.269 199.333 58.4544 199.436 58.7341C199.575 59.1128 199.593 59.5135 199.436 59.8922C199.407 59.9598 199.373 60.0242 199.335 60.0871C199.315 60.1248 199.291 60.1625 199.267 60.1987C199.23 60.2662 199.186 60.3338 199.134 60.3982C198.829 60.7801 198.325 61.0111 197.831 60.942C197.451 60.8885 197.11 60.7172 196.869 60.4124C196.593 60.0635 196.503 59.5968 196.618 59.1694Z" fill="#333333"/>
<path d="M170.075 69.3804C170.149 69.2217 170.257 69.0912 170.402 68.9875C170.538 68.8728 170.692 68.799 170.862 68.766C171.03 68.7031 171.206 68.6858 171.387 68.7141C171.503 68.744 171.618 68.7754 171.734 68.8052C171.951 68.8964 172.132 69.0347 172.278 69.2185C172.336 69.316 172.394 69.415 172.452 69.5124C172.547 69.734 172.58 69.965 172.551 70.2054C172.548 70.2305 172.545 70.2557 172.542 70.2808C172.526 70.4647 172.466 70.6297 172.364 70.7774C172.29 70.9361 172.182 71.0665 172.037 71.1702C171.901 71.285 171.747 71.3588 171.577 71.3918C171.409 71.4547 171.233 71.472 171.052 71.4437C170.936 71.4138 170.821 71.3824 170.705 71.3525C170.488 71.2614 170.307 71.1231 170.161 70.9392C170.103 70.8418 170.045 70.7428 169.987 70.6454C169.892 70.4238 169.859 70.1928 169.888 69.9524C169.891 69.9272 169.894 69.9021 169.897 69.877C169.913 69.6947 169.971 69.5281 170.075 69.3804Z" fill="#333333"/>
<path d="M94.5893 176.326C94.5893 176.326 96.4578 178.764 93.0148 180.275C93.0148 180.275 90.0086 181.983 89.0061 180.546C88.0019 179.11 89.3738 177.723 90.5618 176.656C91.7498 175.587 93.0399 174.916 94.5893 176.326Z" fill="#523DD8"/>
<path d="M83.5672 172.549C83.5672 172.549 85.4797 175.07 81.8905 176.684C81.8905 176.684 78.7524 178.497 77.7278 177.012C76.7032 175.526 78.1411 174.064 79.3857 172.939C80.6287 171.812 81.9754 171.097 83.5672 172.549Z" fill="#523DD8"/>
<path d="M82.9338 162.266C82.9338 162.266 84.95 164.706 81.4268 166.476C81.4268 166.476 78.3641 168.428 77.2767 166.985C76.1908 165.542 77.569 164.018 78.7664 162.838C79.9654 161.655 81.2838 160.882 82.9338 162.266Z" fill="#523DD8"/>
<path d="M98.3541 114.928C98.538 115.043 98.7265 115.18 98.9167 115.338C98.9167 115.338 101.395 118.244 97.2934 120.163C97.2934 120.163 93.7404 122.311 92.4031 120.595C92.4 120.589 92.3952 120.585 92.3921 120.579C92.2821 120.276 92.1941 119.947 92.1328 119.591C92.1344 119.592 92.8274 118.249 98.3541 114.928Z" fill="#523DD8"/>
<path d="M106.081 178.87C106.081 178.87 107.71 181.315 104.329 182.541C104.329 182.541 101.352 183.983 100.485 182.55C99.6174 181.115 101.014 179.879 102.215 178.934C103.419 177.988 104.693 177.429 106.081 178.87Z" fill="#523DD8"/>
<path d="M305.001 0.5C318.808 0.5 330 11.6929 330 25.5V33.7871C330 53.6401 317.428 72.4962 297.617 71.2034C288.967 70.6389 279.488 68.8489 269.1 65.6011C269.1 65.6011 252.472 103.975 213.041 75.1303C212.96 75.0706 212.876 75.0124 212.799 74.9511C212.799 74.9511 209.115 65.4079 196.13 55.1684C195.577 54.7316 195.007 54.2931 194.419 53.8563C194.113 53.6269 193.803 53.399 193.487 53.1696C192.984 52.805 192.467 52.4404 191.939 52.0759C191.092 51.4913 190.214 50.9067 189.301 50.3237C188.716 49.9513 188.116 49.5773 187.503 49.2064C185.225 47.8251 182.754 46.4627 180.078 45.1411C180.078 45.1411 180.078 45.1411 180.077 45.1396C179.852 44.9479 157.835 26.1096 181.515 3.21857C181.515 3.21857 181.601 0.5 183.05 0.5L305.001 0.5Z" fill="#523DD8"/>
<path d="M135.703 150.015C135.899 150.169 135.932 150.452 135.778 150.648C130.921 156.827 122.68 162.734 122.597 162.794C122.394 162.939 122.112 162.891 121.969 162.689C121.824 162.486 121.871 162.205 122.074 162.06C122.156 162.002 130.294 156.169 135.07 150.092C135.224 149.896 135.506 149.861 135.703 150.015Z" fill="#6D3129"/>
<path d="M131.353 139.674C131.549 139.828 131.582 140.11 131.428 140.307C123.917 149.864 110.692 160.024 110.558 160.126C110.36 160.277 110.077 160.239 109.926 160.041C109.776 159.843 109.813 159.56 110.011 159.409C110.143 159.309 123.279 149.215 130.72 139.749C130.872 139.554 131.156 139.52 131.353 139.674Z" fill="#6D3129"/>
<path d="M119.663 138.141C119.671 138.148 119.679 138.154 119.686 138.162C119.872 138.328 119.888 138.614 119.719 138.798C113.968 145.189 104.937 152.309 104.846 152.38C104.649 152.534 104.367 152.5 104.213 152.305C104.059 152.108 104.093 151.825 104.288 151.671C104.378 151.601 113.349 144.529 119.048 138.196C119.209 138.017 119.477 137.997 119.663 138.141Z" fill="#6D3129"/>
<path d="M186.489 3.19979C186.381 3.02379 186.19 2.90122 185.969 2.88707C184.375 2.78336 183.506 2.8195 183.47 2.82107C183.106 2.83679 182.823 3.14636 182.839 3.51093C182.854 3.8755 183.164 4.15993 183.528 4.14422C183.536 4.14422 184.371 4.10964 185.882 4.20864C186.247 4.23222 186.563 3.95564 186.586 3.59107C186.596 3.44807 186.56 3.31293 186.489 3.19979Z" fill="#523DD8"/>
<path d="M196.15 4.73508C196.06 4.59051 195.919 4.48051 195.739 4.43808C194.099 4.04679 192.468 3.71679 190.892 3.46379C190.532 3.40408 190.189 3.64922 190.133 4.01065C190.074 4.37051 190.318 4.71151 190.679 4.76965C192.224 5.02108 193.821 5.34322 195.431 5.72665C195.788 5.81151 196.146 5.59151 196.23 5.23636C196.272 5.05879 196.239 4.87808 196.15 4.73508ZM205.506 7.60765C205.43 7.48508 205.317 7.38765 205.173 7.33422C203.619 6.75436 202.047 6.21851 200.504 5.74393C200.154 5.63551 199.783 5.83194 199.676 6.18079C199.567 6.52965 199.764 6.90051 200.113 7.00736C201.634 7.47722 203.179 8.00522 204.711 8.57722C205.053 8.70294 205.434 8.53008 205.562 8.18751C205.636 7.98794 205.61 7.77422 205.506 7.60765ZM214.474 11.5221C214.413 11.4215 214.322 11.3351 214.208 11.2785C212.728 10.5399 211.227 9.83594 209.744 9.18693C209.409 9.04079 209.02 9.19322 208.873 9.52794C208.726 9.86265 208.878 10.2555 209.214 10.4001C210.676 11.0396 212.156 11.7342 213.616 12.4634C213.944 12.6268 214.34 12.4932 214.504 12.1664C214.611 11.9542 214.59 11.7106 214.474 11.5221ZM223.01 16.3118C222.958 16.2269 222.886 16.1531 222.798 16.0981C221.399 15.2259 219.972 14.3821 218.56 13.5885C218.242 13.4094 217.838 13.5225 217.659 13.8415C217.48 14.1589 217.593 14.5644 217.912 14.7419C219.308 15.5261 220.714 16.3605 222.097 17.2232C222.407 17.4165 222.815 17.3206 223.008 17.0095C223.147 16.7895 223.139 16.5177 223.01 16.3118ZM231.086 21.8417C231.043 21.7725 230.987 21.7112 230.917 21.6594C229.599 20.6725 228.252 19.7092 226.918 18.7931C226.615 18.5872 226.203 18.6627 225.996 18.9659C225.79 19.2661 225.868 19.6794 226.169 19.8868C227.489 20.7919 228.82 21.7458 230.125 22.7201C230.418 22.9385 230.834 22.8804 231.053 22.5865C231.219 22.3634 231.222 22.0664 231.086 21.8417ZM238.69 28.0001C238.658 27.9451 238.616 27.8948 238.562 27.8508C237.321 26.7665 236.054 25.7011 234.799 24.6844C234.516 24.4534 234.098 24.4958 233.867 24.7787C233.639 25.0631 233.682 25.4811 233.964 25.7121C235.209 26.7194 236.461 27.7754 237.692 28.8471C237.967 29.0891 238.385 29.0608 238.625 28.7842C238.822 28.5595 238.839 28.2421 238.69 28.0001ZM245.833 34.6928C245.807 34.6504 245.774 34.6111 245.738 34.5734C244.573 33.4074 243.387 32.2555 242.21 31.1508C241.943 30.8994 241.523 30.9135 241.272 31.1822C241.022 31.4462 241.036 31.8658 241.303 32.1172C242.469 33.2125 243.648 34.3518 244.799 35.5084C245.059 35.7661 245.478 35.7677 245.736 35.5099C245.959 35.2868 245.991 34.9474 245.833 34.6928ZM252.523 41.8365C252.504 41.8051 252.481 41.7737 252.457 41.7454C251.949 41.1702 251.437 40.5951 250.92 40.0262C250.332 39.3804 249.74 38.7377 249.152 38.1091C248.901 37.8404 248.483 37.8262 248.217 38.0761C248.011 38.2678 247.955 38.5632 248.057 38.8099C248.087 38.8854 248.129 38.9514 248.186 39.0126C249.283 40.1849 250.386 41.3997 251.462 42.6207C251.704 42.8957 252.122 42.9208 252.397 42.6804C252.642 42.4635 252.691 42.1052 252.523 41.8365ZM258.784 49.3589C258.771 49.3385 258.757 49.3165 258.741 49.2976C257.724 48.0044 256.684 46.7189 255.652 45.4775C255.419 45.1978 255 45.1569 254.72 45.3926C254.437 45.6268 254.401 46.0432 254.633 46.3261C255.658 47.5581 256.689 48.8341 257.699 50.1179C257.926 50.4039 258.342 50.4527 258.628 50.2279C258.898 50.0174 258.96 49.6434 258.784 49.3589ZM264.637 57.2051C264.628 57.1941 264.621 57.1815 264.614 57.1705C263.666 55.8316 262.695 54.4959 261.725 53.1964C261.508 52.9041 261.092 52.8428 260.8 53.0628C260.506 53.2812 260.446 53.6961 260.666 53.9899C261.625 55.2769 262.59 56.6048 263.532 57.9358C263.743 58.2328 264.156 58.3051 264.455 58.0929C264.742 57.8902 264.819 57.5005 264.637 57.2051Z" fill="#523DD8"/>
<path d="M268.777 63.2771C268.774 63.2723 268.771 63.2661 268.768 63.2613C268.318 62.5778 267.869 61.9021 267.419 61.2326C267.215 60.9293 266.803 60.8492 266.5 61.0535C266.197 61.2578 266.126 61.6695 266.321 61.9728C266.769 62.6375 267.215 63.3101 267.661 63.9889C267.862 64.2953 268.273 64.3802 268.579 64.1791C268.878 63.9811 268.964 63.5803 268.777 63.2771Z" fill="#523DD8"/>
<path d="M285.692 24.3636C285.634 24.2709 285.551 24.1892 285.45 24.131C285.129 23.9566 284.729 24.0698 284.551 24.3888C284.513 24.4532 281.426 29.6263 270.196 28.6819C263.962 28.157 258.604 30.577 254.821 33.1008C255.043 32.7488 255.258 32.3842 255.469 32.0102C258.629 26.3593 258.852 20.7933 256.118 15.9125C255.94 15.5982 255.535 15.4803 255.216 15.6595C254.897 15.837 254.784 16.2425 254.963 16.5599C257.464 21.0243 256.91 25.4479 255.385 29.1125C255.444 27.9213 255.209 26.7443 254.532 25.649C254.333 25.3253 254.094 25.0095 253.812 24.7015C252.585 23.3626 251.462 23.3516 250.736 23.5795C248.473 24.2866 247.192 28.0706 246.78 31.094C246.408 33.8283 246.592 37.0985 248.058 38.8098C248.275 39.0628 248.521 39.2843 248.796 39.4619C248.875 39.5122 248.965 39.542 249.054 39.5578C249.142 39.6458 249.254 39.7102 249.381 39.7385C249.48 39.762 250.047 39.8846 250.921 40.026C254.141 40.5619 261.516 41.3932 264.728 38.5458C265.922 37.4866 266.44 36.0488 266.271 34.2683C266.191 33.4512 265.986 32.777 265.658 32.2459C265.323 31.7053 264.861 31.3172 264.273 31.0815C263.769 30.8803 263.191 30.8143 262.564 30.8568C264.869 30.1512 267.401 29.7772 270.085 30.0019C282.258 31.028 285.574 25.2766 285.709 25.0315C285.829 24.8146 285.813 24.56 285.692 24.3636ZM249.956 37.0686C249.546 37.4756 249.255 37.7899 249.089 37.9738C248.987 37.8559 248.891 37.7286 248.803 37.584C248.012 36.308 247.726 33.9619 248.092 31.2732C248.534 28.0093 249.841 25.2468 251.132 24.8429C251.325 24.7832 251.92 24.5962 252.835 25.5972C256.041 29.0968 252.126 34.5496 249.956 37.0686ZM263.782 32.3103C264.459 32.5822 264.842 33.2658 264.952 34.3956C265.083 35.7486 264.721 36.7826 263.849 37.5542C261.047 40.0386 254.003 39.1932 251.025 38.6966C254.422 35.9388 261.066 31.2245 263.782 32.3103Z" fill="#523DD8"/>
<path d="M267.29 126.232C267.29 126.232 249.944 136.143 238.147 174.124C238.146 174.124 278.711 186.851 267.29 126.232Z" fill="#251C5E"/>
<path d="M275.523 184.639C275.523 184.639 250.79 166.108 221.008 164.067C221.008 164.067 189.379 162.42 168.254 143.965C168.254 143.965 132.389 115.606 136.885 110.23C136.885 110.23 138.419 106.592 148.974 116.307C150.473 117.686 152.114 118.903 153.868 119.941C155.452 120.879 157.397 121.99 158.973 122.768L144.507 110.684C143.337 109.707 142.16 108.737 140.969 107.786C138.952 106.176 134.206 102.024 135.15 99.2613C136.344 95.7727 143.473 100.071 147.543 102.981C151.613 105.891 158.924 110.539 158.924 110.539L151.642 104.43C150.041 103.086 148.39 101.802 146.696 100.577C142.369 97.4478 133.288 90.4141 134.715 87.4771C136.579 83.646 143.925 88.9291 150.01 93.1971C156.094 97.4651 165.157 103.303 165.157 103.303L164.585 102.778C160.794 99.3005 156.789 96.065 152.621 93.0494C148.422 90.0103 143.363 85.8161 144.307 83.8361C145.743 80.8253 150.501 82.9325 160.489 88.838C162.177 89.8358 163.838 90.8808 165.474 91.9635C171.725 96.098 191.478 108.597 203.465 109.738C203.465 109.738 202.836 105.927 195.388 97.2765C194.582 96.34 193.845 95.3453 193.21 94.2861C191.238 90.9924 188.258 84.5605 193.134 81.9583C193.134 81.9583 195.784 82.3825 205.597 92.05C205.597 92.05 211.424 97.4258 221.019 102.225C225.625 104.529 230.064 107.155 234.221 110.197C238.385 113.245 243.005 117.132 246.224 121.294C249.943 126.104 254.54 130.176 259.884 133.077C267.944 137.453 279.981 142.265 294.056 142.362C294.058 142.364 298.563 167.144 275.523 184.639Z" fill="#FBBC9D"/>
<path d="M321.6 140.252C326.203 140.042 330.001 143.751 330.001 148.358V267.339C330.001 267.468 329.854 267.538 329.754 267.457C329.754 267.457 329.755 267.458 329.754 267.457C329.739 267.445 326.99 265.199 325.702 264.082C322.227 261.076 319.161 258.114 316.476 255.298C315.204 253.967 314.023 252.669 312.923 251.412C309.434 247.434 306.771 243.886 304.849 241.09C304.761 240.96 304.673 240.833 304.586 240.705C303.658 239.343 302.718 237.988 301.766 236.648C299.163 232.987 296.464 229.402 293.655 225.903C292.54 224.509 291.408 223.129 290.256 221.763C287.748 218.779 285.156 215.864 282.484 213.022C282.068 212.58 281.653 212.14 281.236 211.703C280 210.402 278.768 209.131 277.545 207.889C274.214 204.509 270.948 201.351 267.813 198.431C266.49 197.199 265.189 196.009 263.915 194.864C260.203 191.518 256.725 188.542 253.603 185.963C252.159 184.774 250.795 183.667 249.516 182.649C247.635 181.151 245.941 179.842 244.47 178.727C240.604 175.798 238.278 174.215 238.149 174.127V174.124H238.153C240.01 173.117 241.746 172.029 243.374 170.873C244.108 170.351 244.82 169.817 245.51 169.268L245.512 169.267C246.322 168.624 247.103 167.964 247.855 167.288C247.878 167.269 247.902 167.249 247.924 167.227C258.793 157.445 263.592 144.625 265.692 135.945V135.943C267.072 130.237 267.282 126.32 267.285 126.235V126.233H267.287C267.29 126.23 267.29 126.23 267.29 126.23C270.813 128.749 274.206 130.845 277.434 132.593C279.044 133.462 280.613 134.246 282.134 134.948C287.088 137.239 291.559 138.696 295.395 139.611C297.32 140.071 299.083 140.393 300.667 140.618C304.814 141.206 307.734 141.116 309.076 141.017C311.125 140.862 313.18 140.706 315.231 140.587C315.439 140.572 315.644 140.561 315.849 140.55C317.794 140.437 319.711 140.337 321.6 140.252Z" fill="#523DD8"/>
<path d="M140.005 101.925C140.005 101.925 138.272 104.462 135.762 101.662C135.762 101.662 133.201 99.3396 134.252 97.9379C135.304 96.5362 137.049 97.4052 138.434 98.2003C139.82 98.9954 140.862 100.012 140.005 101.925Z" fill="#F6C7B0"/>
<path d="M140.15 90.2742C140.15 90.2742 138.352 92.8781 135.7 89.971C135.7 89.971 132.997 87.5572 134.089 86.1178C135.181 84.68 137.018 85.5898 138.476 86.4211C139.933 87.2524 141.033 88.31 140.15 90.2742Z" fill="#F6C7B0"/>
<path d="M149.723 86.4619C149.723 86.4619 148.036 89.138 145.254 86.344C145.254 86.344 142.444 84.0434 143.475 82.5616C144.506 81.0797 146.386 81.9126 147.88 82.6826C149.376 83.451 150.522 84.4614 149.723 86.4619Z" fill="#F6C7B0"/>
<path d="M199.508 86.3299C199.456 86.5405 199.385 86.762 199.294 86.993C199.294 86.993 197.308 90.2553 194.204 86.9585C194.204 86.9585 191.055 84.254 192.267 82.4469C192.271 82.4422 192.273 82.4375 192.278 82.4312C192.532 82.2316 192.817 82.0462 193.136 81.8765C193.136 81.8765 194.627 82.1169 199.508 86.3299Z" fill="#F6C7B0"/>
<path d="M141.176 113.637C141.176 113.637 139.363 115.948 137.142 113.12C137.142 113.12 134.842 110.742 135.934 109.471C137.026 108.199 138.638 109.139 139.91 109.986C141.182 110.832 142.113 111.867 141.176 113.637Z" fill="#F6C7B0"/>
<path d="M175.523 133.435C175.42 133.661 175.153 133.764 174.925 133.66C167.763 130.424 160.055 123.837 159.978 123.771C159.789 123.609 159.766 123.323 159.929 123.134C160.091 122.946 160.377 122.924 160.566 123.086C160.641 123.152 168.255 129.656 175.298 132.836C175.524 132.942 175.625 133.209 175.523 133.435Z" fill="#E8A185"/>
<path d="M184.521 126.734C184.419 126.961 184.151 127.063 183.924 126.959C172.847 121.956 159.815 111.548 159.684 111.443C159.489 111.287 159.46 111.003 159.615 110.808C159.771 110.613 160.055 110.582 160.25 110.739C160.379 110.842 173.324 121.179 184.296 126.136C184.522 126.241 184.624 126.508 184.521 126.734Z" fill="#E8A185"/>
<path d="M183.21 115.019C183.205 115.029 183.202 115.038 183.196 115.046C183.078 115.266 182.804 115.349 182.586 115.232C175.004 111.179 165.929 104.115 165.838 104.045C165.641 103.891 165.607 103.608 165.759 103.411C165.913 103.215 166.196 103.18 166.392 103.333C166.482 103.403 175.497 110.42 183.01 114.436C183.221 114.548 183.306 114.804 183.21 115.019Z" fill="#E8A185"/>
<path d="M282.133 134.948C280.612 134.246 279.044 133.462 277.433 132.591C276.475 134.822 275.488 137.043 274.47 139.248C272.776 142.931 271 146.575 269.147 150.18V150.182C265.068 158.124 260.608 165.869 255.766 173.379C255.738 173.423 255.71 173.465 255.682 173.509V173.511C253.691 176.599 251.635 179.643 249.514 182.647C250.793 183.666 252.157 184.772 253.599 185.961C254.896 184.128 256.17 182.276 257.421 180.413C258.476 178.841 259.514 177.257 260.533 175.665C267.722 164.45 274.08 152.737 279.607 140.635C280.469 138.751 281.312 136.853 282.133 134.948Z" fill="#CAABD0"/>
<path d="M300.667 140.618C299.083 140.393 297.319 140.071 295.395 139.611C294.969 140.61 294.536 141.608 294.097 142.604V142.606C287.987 156.478 280.781 169.85 272.479 182.539C270.273 185.914 267.986 189.243 265.624 192.519C265.059 193.303 264.488 194.084 263.913 194.862C265.186 196.008 266.487 197.197 267.812 198.429C270.328 195.033 272.759 191.581 275.11 188.072C276.61 185.834 278.076 183.573 279.513 181.291C279.514 181.288 279.514 181.288 279.514 181.286C284.643 173.126 289.34 164.709 293.602 156.076C293.602 156.074 293.604 156.073 293.604 156.071C296.107 150.996 298.464 145.84 300.667 140.618Z" fill="#CAABD0"/>
<path d="M321.6 140.252C319.711 140.337 317.794 140.437 315.848 140.552C307.463 161.659 296.613 181.736 283.314 200.18C281.436 202.785 279.512 205.355 277.545 207.891C278.767 209.131 280.001 210.404 281.236 211.705C285.283 206.521 289.139 201.192 292.799 195.734C304.445 178.361 314.052 159.723 321.6 140.252Z" fill="#CAABD0"/>
<path d="M330 156.709V169.295C324.301 181.089 317.794 192.488 310.485 203.39C305.266 211.174 299.648 218.694 293.655 225.903C292.539 224.509 291.408 223.129 290.256 221.763C293.988 217.244 297.569 212.597 301 207.839C312.504 191.887 322.173 174.715 330 156.709Z" fill="#CAABD0"/>
<path d="M330.001 198.464V208.285C329.398 209.211 328.788 210.133 328.172 211.051C321.112 221.584 313.314 231.64 304.849 241.09C304.761 240.96 304.673 240.833 304.586 240.705C303.658 239.343 302.718 237.988 301.766 236.648C307.757 229.894 313.404 222.826 318.688 215.497C322.68 209.96 326.451 204.278 330.001 198.464Z" fill="#CAABD0"/>
<path d="M330.001 231.645V240.05C325.686 245.3 321.174 250.389 316.476 255.298C315.205 253.967 314.023 252.669 312.923 251.412C318.935 245.11 324.633 238.509 330.001 231.645Z" fill="#CAABD0"/>
<path d="M330.001 259.709V267.211C329.919 267.294 329.836 267.376 329.754 267.457C328.344 266.331 326.993 265.202 325.701 264.082C327.152 262.641 328.585 261.184 330.001 259.709Z" fill="#CAABD0"/>
<path d="M157.379 248.622C154.474 247.524 151.002 241.821 147.984 236.967C144.058 230.654 138.01 221.732 138.01 221.732L138.33 222.436C140.453 227.122 142.87 231.668 145.523 236.077C147.036 238.595 148.659 241.56 149.48 243.922C150.11 245.729 150.272 247.183 149.558 247.813C148.853 248.437 148.059 248.58 147.137 248.254C144.784 247.429 141.561 243.576 136.632 236.869C135.469 235.289 134.352 233.678 133.272 232.039C129.142 225.785 115.872 206.544 105.29 200.793C105.29 200.793 104.373 204.545 107.834 215.426C108.208 216.603 108.498 217.806 108.665 219.031C109.151 222.555 109.374 228.905 105.013 230.194C104.672 230.296 104.301 230.365 103.902 230.4C103.902 230.4 103.883 230.389 103.845 230.359C103.844 230.357 103.844 230.357 103.844 230.357C103.83 230.345 103.809 230.329 103.789 230.31C103.772 230.295 103.753 230.277 103.734 230.258C103.72 230.246 103.704 230.23 103.688 230.213C103.655 230.182 103.618 230.144 103.578 230.1C103.558 230.078 103.539 230.056 103.515 230.031C103.385 229.889 103.225 229.696 103.031 229.443C102.978 229.372 102.92 229.294 102.86 229.21C102.184 228.277 101.172 226.646 99.7848 223.833C98.8341 221.906 97.7089 219.422 96.3952 216.229C96.3952 216.229 93.1439 208.999 86.1967 200.822C82.8621 196.899 79.8088 192.741 77.1782 188.314C74.5414 183.876 71.8149 178.489 70.4855 173.399C68.9754 167.613 66.4045 162.151 62.7211 157.44C62.6598 157.36 62.6001 157.283 62.5372 157.204C62.5105 157.171 62.4854 157.14 62.4587 157.107C61.9904 156.516 61.4954 155.911 60.9768 155.297C55.2175 148.459 46.5338 140.385 34.7402 135.266C34.7402 135.266 36.1247 129.168 40.9819 122.174C41.4329 121.523 41.9138 120.867 42.4292 120.205C47.4751 113.704 55.5884 106.857 68.3641 103.641C68.3641 103.641 72.7295 111.177 80.8035 120.276C80.8318 120.307 80.8601 120.34 80.8884 120.372C83.7405 123.577 87.0515 126.976 90.7962 130.305C91.3384 130.79 91.8931 131.273 92.4541 131.752C97.6932 136.229 103.717 140.506 110.453 143.938C110.453 143.938 120.039 148.626 130.467 157.5C138.005 163.913 145.986 172.512 151.105 183.111C151.105 183.111 167.979 214.081 167.858 223.778C167.84 225.121 167.499 226.056 166.739 226.445C166.739 226.445 166.211 226.957 165.136 226.485C163.72 225.869 161.355 223.55 157.998 216.116C157.158 214.258 156.125 212.497 154.92 210.854C153.831 209.371 152.476 207.586 151.331 206.252L159.901 223.039C160.596 224.397 161.297 225.75 162.021 227.09C162.9 228.717 164.55 232.089 164.701 234.671C164.762 235.697 164.586 236.598 164.031 237.215C163.434 237.878 162.699 237.985 161.888 237.705C159.342 236.836 156.062 232.174 154.092 228.934C151.488 224.66 146.582 217.517 146.582 217.517L150.886 225.994C151.834 227.857 152.849 229.685 153.925 231.476C156.066 235.036 159.93 241.893 160.379 245.775C160.51 246.883 160.36 247.749 159.813 248.223C159.069 248.867 158.25 248.952 157.379 248.622Z" fill="#B45D44"/>
<path d="M97.3264 129.525C96.3238 129.942 95.2458 130.413 94.105 130.951C93.566 131.204 93.0128 131.469 92.4503 131.75C88.0581 133.939 82.907 137.012 77.6396 141.316C77.2074 141.668 76.7737 142.028 76.3431 142.397C70.2806 147.567 65.8601 152.919 62.7188 157.439C62.2568 158.103 61.8231 158.746 61.4161 159.371C60.9007 160.16 60.4308 160.915 59.9971 161.63L52.1887 154.384L33 136.576C33 136.576 29.6407 136.265 23.7622 135.253C9.5758 132.811 0 119.916 0 105.52V15.5C0 7.21573 6.71573 0.5 15 0.5H18.2146C26.0064 0.5 33.089 5.0279 36.3647 12.0977C38.8745 17.5145 40.6249 21.2859 40.9404 21.9421C41.3568 22.8049 41.7701 23.6739 42.1819 24.5476C43.1561 26.6124 44.1147 28.704 45.0623 30.8129V30.8144C45.2681 31.2701 45.4708 31.7227 45.6736 32.1831C53.3688 49.4814 60.0694 67.6959 64.7837 81.3814L64.7853 81.383C67.1361 88.2093 68.992 93.9057 70.2318 97.7997C71.3051 101.178 71.9148 103.199 71.9793 103.425C71.9856 103.441 97.3264 129.525 97.3264 129.525Z" fill="#523DD8"/>
<path d="M140.749 189.306C140.936 189.141 141.22 189.156 141.385 189.343C146.606 195.219 150.958 204.376 151.002 204.468C151.109 204.693 151.013 204.963 150.787 205.069C150.562 205.175 150.294 205.078 150.187 204.853C150.144 204.762 145.845 195.72 140.711 189.942C140.545 189.757 140.562 189.471 140.749 189.306Z" fill="#804034"/>
<path d="M129.799 191.754C129.986 191.589 130.27 191.605 130.435 191.792C138.509 200.878 146.165 215.695 146.241 215.844C146.355 216.065 146.267 216.337 146.046 216.452C145.824 216.567 145.552 216.479 145.438 216.257C145.362 216.109 137.756 201.393 129.759 192.392C129.596 192.205 129.613 191.919 129.799 191.754Z" fill="#804034"/>
<path d="M126.219 202.986C126.227 202.98 126.235 202.974 126.243 202.968C126.439 202.815 126.724 202.85 126.876 203.048C132.147 209.841 137.552 219.991 137.607 220.093C137.724 220.313 137.64 220.586 137.42 220.703C137.2 220.819 136.927 220.736 136.811 220.516C136.757 220.415 131.386 210.331 126.164 203.601C126.016 203.411 126.043 203.144 126.219 202.986Z" fill="#804034"/>
<path d="M160.688 232.325C160.688 232.325 163.264 230.648 164.505 234.197C164.505 234.197 165.978 237.324 164.468 238.215C162.957 239.106 161.681 237.632 160.707 236.365C159.733 235.099 159.164 233.761 160.688 232.325Z" fill="#7AD86C"/>
<path d="M145.776 242.868C145.776 242.868 148.363 241.045 149.857 244.694C149.857 244.694 151.569 247.898 150.046 248.871C148.525 249.843 147.111 248.352 146.025 247.067C144.94 245.781 144.269 244.408 145.776 242.868Z" fill="#7AD86C"/>
<path d="M99.7607 223.863C99.8896 223.688 100.04 223.511 100.213 223.333C100.213 223.333 103.301 221.085 104.899 225.321C104.899 225.321 106.769 229.028 104.954 230.23C104.948 230.233 104.945 230.237 104.939 230.24C104.627 230.326 104.293 230.389 103.933 230.422C103.933 230.424 102.647 229.628 99.7607 223.863Z" fill="#7AD86C"/>
<path d="M164.106 221.061C164.106 221.061 166.669 219.623 167.632 223.088C167.632 223.088 168.842 226.167 167.346 226.921C165.85 227.675 164.723 226.189 163.873 224.919C163.023 223.649 162.562 222.335 164.106 221.061Z" fill="#7AD86C"/>
<path d="M35.8206 38.3981L34.3073 30.8553L26.667 29.9627L33.3739 26.1913L31.8621 18.6484L37.5177 23.8624L40.9403 21.9406C41.3567 22.8033 41.77 23.6739 42.1817 24.5476L41.0157 27.0854L45.0621 30.8129L45.0637 30.8144C45.268 31.2702 45.4723 31.7227 45.675 32.1816L39.0326 31.4053L35.8206 38.3981Z" fill="#CAABD0"/>
<path d="M43.3139 74.1498L35.6736 73.2588L32.4631 80.2501L30.9499 72.7072L23.3096 71.8147L30.0164 68.0448L28.5031 60.502L34.1603 65.7144L40.8671 61.9461L37.6567 68.9374L43.3139 74.1498Z" fill="#CAABD0"/>
<path d="M10.0031 37.9052L2.36283 37.0127L0.000976562 42.156V28.6872L0.849548 29.4698L7.55641 25.7L4.34598 32.6912L10.0031 37.9052Z" fill="#CAABD0"/>
<path d="M2.343 59.2572L0 58.9838V57.0996L2.343 59.2572Z" fill="#CAABD0"/>
<path d="M0.260857 96.2786L0 96.8458V96.4247L0.260857 96.2786Z" fill="#FEBB62"/>
<path d="M2.70757 108.482L0 108.166V105.987L2.70757 108.482Z" fill="#CAABD0"/>
<path d="M45.0834 122.652L37.4431 121.759L34.2327 128.751L32.7194 121.208L25.0791 120.315L31.7844 116.547L30.2727 109.004L35.9298 114.217L42.6367 110.447L39.4262 117.44L45.0834 122.652Z" fill="#CAABD0"/>
<path d="M83.4184 132.384L75.7781 131.491L72.5676 138.483L71.0559 130.94L63.4141 130.047L70.1209 126.277L68.6076 118.734L74.2648 123.948L80.9716 120.179L77.7612 127.17L83.4184 132.384Z" fill="#CAABD0"/>
<path d="M59.9978 161.629L52.1893 154.384L51.7305 152.1L57.3876 157.311L64.0929 153.543L61.4168 159.371C60.9013 160.16 60.4315 160.914 59.9978 161.629Z" fill="#CAABD0"/>
<path d="M68.7161 101.104L67.2028 93.56L59.5625 92.6674L66.2678 88.8992L64.7545 81.3547L64.7844 81.3814L64.7859 81.383C67.1368 88.2077 68.9942 93.9042 70.2325 97.7997L68.7161 101.104Z" fill="#CAABD0"/>
<path d="M186.8 281.861C186.8 281.861 193.895 251.782 183.86 223.668C183.86 223.668 172.721 194.018 181.191 167.276C181.191 167.276 192.845 123.063 199.571 125.034C199.571 125.034 203.518 124.985 198.835 138.545C198.171 140.472 197.71 142.461 197.46 144.484C197.234 146.31 196.992 148.538 196.91 150.293L202.203 132.201C202.63 130.738 203.048 129.272 203.444 127.8C204.114 125.306 206.021 119.297 208.932 119.058C212.607 118.758 211.518 127.009 210.476 131.903C209.436 136.796 208.099 145.357 208.099 145.357L210.788 136.24C211.378 134.235 211.895 132.209 212.342 130.166C213.481 124.951 216.297 113.814 219.558 113.949C223.815 114.125 221.909 122.972 220.43 130.256C218.951 137.539 217.223 148.181 217.223 148.181L217.474 147.447C219.146 142.582 220.51 137.618 221.608 132.591C222.715 127.528 224.536 121.212 226.73 121.286C230.064 121.399 230.036 126.604 228.614 138.118C228.373 140.065 228.08 142.004 227.742 143.935C226.452 151.318 222.892 174.421 226.64 185.864C226.64 185.864 229.882 183.765 234.834 173.478C235.369 172.365 235.985 171.292 236.704 170.286C238.933 167.162 243.638 161.86 247.972 165.288C247.972 165.288 248.643 167.885 243.704 180.746C243.704 180.746 241.105 188.237 240.544 198.949C240.274 204.093 239.642 209.212 238.515 214.238C237.387 219.274 235.671 225.062 233.143 229.677C230.221 235.01 228.328 240.851 227.805 246.909C227.016 256.047 227.42 269.004 232.957 281.943C232.957 281.947 212.046 295.983 186.8 281.861Z" fill="#C77665"/>
<path d="M193.138 171.55C192.888 171.547 192.69 171.342 192.693 171.093C192.796 163.234 195.751 153.535 195.781 153.438C195.854 153.199 196.107 153.065 196.345 153.139C196.584 153.213 196.718 153.464 196.644 153.703C196.614 153.799 193.696 163.377 193.595 171.105C193.591 171.355 193.386 171.553 193.138 171.55Z" fill="#AF6154"/>
<path d="M202.876 177.121C202.627 177.117 202.429 176.913 202.432 176.663C202.59 164.508 206.92 148.403 206.962 148.242C207.027 148.002 207.276 147.861 207.515 147.925C207.756 147.989 207.897 148.238 207.833 148.478C207.789 148.638 203.489 164.637 203.334 176.676C203.331 176.924 203.126 177.124 202.876 177.121Z" fill="#AF6154"/>
<path d="M213.09 171.234C213.081 171.234 213.07 171.234 213.06 171.232C212.812 171.212 212.627 170.995 212.647 170.747C213.331 162.176 216.176 151.033 216.206 150.922C216.269 150.68 216.514 150.535 216.756 150.596C216.998 150.659 217.143 150.904 217.082 151.146C217.053 151.258 214.226 162.325 213.549 170.817C213.527 171.056 213.326 171.237 213.09 171.234Z" fill="#AF6154"/>
<path d="M194.092 330.5C179.817 330.5 169.258 317.025 174.781 303.863C180.182 290.99 185.338 283.283 186.694 281.353L186.693 281.352C186.845 281.133 186.95 280.989 187.002 280.921L187.004 280.918C187.004 280.918 187.004 280.918 187.005 280.917C187.027 280.888 187.038 280.871 187.038 280.871C187.038 280.871 187.208 281.096 187.463 281.363C187.843 281.76 188.377 281.927 188.886 281.853C188.888 281.852 188.888 281.853 188.891 281.852C188.896 281.85 188.899 281.85 188.904 281.848C188.91 281.85 188.913 281.85 188.918 281.848C188.973 281.839 189.028 281.828 189.083 281.812H189.084C189.086 281.811 189.087 281.812 189.089 281.811C189.267 281.762 189.436 281.685 189.592 281.575C190.088 281.231 190.774 280.879 191.534 280.847C191.905 280.835 192.167 280.917 192.362 281.058C192.964 281.484 192.955 282.42 193.679 282.519C194.639 282.648 194.847 280.588 196.564 280.687C197.902 280.769 197.609 282.02 198.577 282.512C199.126 282.796 199.789 282.62 200.19 282.16C200.73 281.531 201.763 280.583 203.103 280.555C205.102 280.519 204.417 281.757 205.33 281.927C206.243 282.092 206.846 280.444 208.861 280.629C210.877 280.814 210.168 281.918 211.461 281.872C212.502 281.833 212.376 280.948 213.544 280.794C214.081 280.728 214.628 280.866 215.101 281.138C215.107 281.141 215.115 281.149 215.123 281.154C215.97 281.635 217.027 281.602 217.815 281.044C218.093 280.849 218.439 280.692 218.811 280.715C219.612 280.767 220.126 281.248 220.921 281.22C221.165 281.215 221.396 281.116 221.589 280.972C221.933 280.731 222.678 280.338 223.884 280.409C225.601 280.508 225.123 281.152 226.173 281.25C227.229 281.35 227.363 280.059 228.807 280.055C229.272 280.052 229.591 280.208 229.844 280.418C230.372 280.857 231.122 280.822 231.631 280.368C231.631 280.368 231.903 280.45 232.431 280.676C232.915 280.884 233.614 281.214 234.514 281.712C234.583 281.751 234.654 281.79 234.725 281.831C234.8 281.874 234.877 281.918 234.956 281.962C235.463 282.254 236.024 282.595 236.64 282.991C236.644 282.991 236.645 282.992 236.645 282.992C241.068 285.841 248.247 291.581 257.505 302.811C266.934 314.248 257.883 330.5 243.06 330.5H194.092Z" fill="#AE9BFF"/>
<path d="M232.209 280.121C231.981 280.128 231.789 280.23 231.632 280.368C231.632 280.368 233.392 280.898 236.642 282.991C233.936 280.899 232.477 280.148 232.477 280.148C232.381 280.125 232.29 280.117 232.209 280.121Z" fill="#FEBB62"/>
<path d="M270.209 294.42C268.319 291.068 263.942 286.714 253.824 284.991C244.254 283.362 237.974 278.009 234.39 273.806C233.105 272.307 232.069 270.834 231.25 269.539C234.995 272.816 241.278 276.961 248.99 276.782C249.416 276.771 249.755 276.419 249.744 275.992C249.735 275.564 249.38 275.226 248.954 275.237C241.644 275.406 235.559 271.259 232.023 268.122C234.291 269.041 236.89 269.915 239.334 270.553C244.636 271.936 247.984 271.964 249.29 270.635C249.887 270.023 250.345 268.861 249.124 266.793C246.155 261.773 238.666 262.281 233.483 263.362C239.628 260.073 244.227 256.743 247.183 253.429C248.915 251.492 248.539 249.138 247.398 247.662C246.256 246.193 244.078 245.239 241.773 246.422C235.103 249.851 229.869 259.676 228.06 263.431L228.059 263.433C227.836 263.9 227.664 264.27 227.548 264.525C226.06 264.819 220.282 265.842 213.426 265.506C206.175 265.146 196.193 263.144 189.816 255.646C189.662 255.466 189.439 255.371 189.218 255.375C189.043 255.376 188.87 255.436 188.727 255.558C188.401 255.835 188.363 256.322 188.638 256.647C188.694 256.712 188.751 256.779 188.808 256.845C188.947 257.006 189.089 257.164 189.233 257.32C194.6 263.183 202.93 266.541 213.388 267.05C218.195 267.284 222.416 266.881 225.122 266.499C212.682 275.481 187.585 280.552 187.313 280.604C187.213 280.624 187.125 280.662 187.044 280.715H187.043L187.041 280.717C186.829 280.855 186.694 281.091 186.692 281.352L186.694 281.353C186.691 281.407 186.696 281.459 186.705 281.515C186.725 281.614 186.763 281.705 186.817 281.787C186.834 281.814 186.853 281.839 186.873 281.863C186.903 281.897 186.931 281.927 186.967 281.954C186.969 281.955 186.969 281.955 186.971 281.957C187.044 282.02 187.132 282.067 187.227 282.098H187.228C187.349 282.139 187.481 282.149 187.615 282.12C187.745 282.095 188.185 282.007 188.886 281.853C188.888 281.852 188.888 281.853 188.891 281.852C188.896 281.85 188.899 281.85 188.903 281.848C188.91 281.85 188.913 281.85 188.918 281.848C188.971 281.836 189.024 281.825 189.083 281.812H189.084C189.086 281.811 189.087 281.812 189.089 281.811C189.903 281.633 191.019 281.382 192.362 281.058C200.887 279.004 218.658 274.024 227.768 266.403C228.012 266.937 228.376 267.679 228.87 268.567L228.871 268.568C229.803 270.243 231.202 272.439 233.153 274.741L233.174 274.763C236.929 279.18 243.514 284.804 253.563 286.516C261.051 287.79 266.326 290.757 268.82 295.099C270.692 298.356 270.362 301.292 270.357 301.322C270.305 301.744 270.605 302.131 271.028 302.184C271.451 302.238 271.839 301.939 271.892 301.515C271.909 301.377 272.294 298.111 270.209 294.42ZM242.48 247.797C244.034 246.999 245.37 247.654 246.088 248.5C246.116 248.537 246.146 248.572 246.176 248.608C246.867 249.507 247.247 251.037 246.031 252.4C242.731 256.099 237.252 259.847 229.728 263.557C231.697 259.614 236.593 250.824 242.48 247.797ZM247.23 266.786C247.434 267.028 247.625 267.294 247.794 267.58C248.121 268.131 248.605 269.123 248.186 269.552C247.538 270.212 244.975 270.429 239.725 269.057C236.548 268.229 232.995 266.95 230.422 265.737C234.299 264.597 243.562 262.465 247.23 266.786Z" fill="#AE9BFF"/>
<path d="M208.538 124.495C208.538 124.495 205.521 123.912 207.094 120.497C207.094 120.497 208.208 117.224 209.911 117.633C211.616 118.041 211.511 119.988 211.33 121.575C211.153 123.161 210.633 124.52 208.538 124.495Z" fill="#FEBB62"/>
<path d="M219.289 120.001C219.289 120.001 216.185 119.385 217.799 115.796C217.799 115.796 218.942 112.356 220.695 112.786C222.449 113.217 222.342 115.264 222.16 116.933C221.974 118.601 221.442 120.029 219.289 120.001Z" fill="#FEBB62"/>
<path d="M226.59 127.27C226.59 127.27 223.463 126.784 224.922 123.121C224.922 123.121 225.917 119.628 227.688 119.986C229.458 120.345 229.439 122.399 229.327 124.077C229.214 125.757 228.743 127.209 226.59 127.27Z" fill="#FEBB62"/>
<path d="M246.483 172.908C246.269 172.944 246.038 172.966 245.79 172.974C245.79 172.974 242.008 172.446 243.801 168.288C243.801 168.288 245.031 164.323 247.171 164.717C247.178 164.719 247.182 164.719 247.19 164.722C247.475 164.876 247.758 165.063 248.04 165.289C248.04 165.291 248.411 166.755 246.483 172.908Z" fill="#FEBB62"/>
<path d="M198.255 130.221C198.255 130.221 195.414 129.475 197.128 126.313C197.128 126.313 198.396 123.258 199.996 123.755C201.596 124.251 201.374 126.104 201.102 127.608C200.832 129.112 200.251 130.378 198.255 130.221Z" fill="#FEBB62"/>
<path d="M226.098 243.495L223.218 240.18L225.48 236.418C225.603 236.213 225.581 235.952 225.424 235.771C225.267 235.59 225.012 235.532 224.791 235.625L220.75 237.339L217.87 234.025C217.714 233.844 217.458 233.786 217.238 233.879C217.018 233.973 216.883 234.198 216.904 234.435L217.285 238.809L213.244 240.523C213.024 240.617 212.889 240.84 212.911 241.079C212.92 241.199 212.969 241.307 213.043 241.394C213.118 241.48 213.219 241.543 213.335 241.57L217.612 242.558L217.994 246.931C218.015 247.17 218.187 247.367 218.42 247.422C218.653 247.475 218.895 247.373 219.017 247.167L221.278 243.405L225.556 244.393C225.79 244.447 226.03 244.345 226.155 244.14C226.277 243.936 226.254 243.675 226.098 243.495ZM221.137 242.239C220.904 242.186 220.662 242.288 220.54 242.494L218.946 245.143L218.678 242.063C218.667 241.944 218.62 241.834 218.544 241.749C218.47 241.662 218.368 241.599 218.252 241.573L215.239 240.877L218.085 239.668C218.305 239.575 218.44 239.351 218.42 239.113L218.151 236.032L220.18 238.365C220.337 238.546 220.592 238.606 220.812 238.512L223.659 237.305L222.066 239.956C221.942 240.16 221.965 240.421 222.122 240.602L224.149 242.935L221.137 242.239Z" fill="#333333"/>
<path d="M192.432 235.95C190.345 236.441 187.677 236.978 184.284 237.537C184.284 237.537 176.507 239.081 166.978 244.009C162.404 246.374 157.666 248.415 152.76 249.983C147.843 251.553 141.983 252.997 136.723 253.146C130.644 253.319 124.645 254.636 119.153 257.248C110.872 261.184 99.8923 268.08 91.526 279.394C91.526 279.394 68.8472 268.441 68.2783 239.519C68.2783 239.519 97.8196 230.446 117.011 207.578C117.011 207.578 136.972 182.987 164.326 176.783C164.326 176.783 208.368 164.502 210.065 171.3C210.065 171.3 212.102 174.683 198.034 177.492C196.035 177.891 194.087 178.499 192.215 179.305C190.524 180.033 188.48 180.95 186.923 181.767L205.211 177.193C206.688 176.822 208.165 176.443 209.636 176.04C212.127 175.358 218.277 173.967 219.953 176.359C222.069 179.379 214.398 182.607 209.649 184.183C204.972 185.731 197.087 188.831 196.843 188.927L206.063 186.642C208.093 186.139 210.101 185.562 212.089 184.913C217.166 183.26 228.199 180.064 229.732 182.948C231.73 186.71 223.133 189.535 216.099 191.939C209.177 194.306 199.324 198.107 199.02 198.227L199.772 198.074C204.817 197.061 209.789 195.726 214.68 194.136C219.61 192.532 225.981 190.915 227.022 192.844C228.608 195.778 224.104 198.385 213.448 202.977C211.648 203.75 209.825 204.479 207.989 205.163C200.965 207.781 179.232 216.381 171.249 225.397C171.249 225.397 174.699 227.136 186.077 226.209C187.308 226.11 188.546 226.099 189.776 226.211C193.35 226.534 199.659 227.762 199.84 232.388C199.852 232.712 199.835 233.051 199.785 233.409C199.779 233.408 198.708 234.475 192.432 235.95Z" fill="#FFB792"/>
<path d="M101.258 282.873C101.189 282.994 101.121 283.118 101.054 283.239C100.113 284.918 99.1241 286.599 98.0886 288.284C91.2416 299.436 82.4122 310.723 72.5385 321.731C67.438 327.418 60.0863 330.5 52.4472 330.5H42C18.804 330.5 0 311.696 0 288.5V273.22C0 263.76 6.06132 255.39 14.9663 252.198C34.8963 245.053 49.5902 238.803 57.7437 235.152C60.3774 233.973 62.3276 233.065 63.5533 232.487C64.5621 232.009 65.076 231.756 65.076 231.756L68.9637 237.247L70.1281 238.89V238.892L80.4838 253.522L84.3606 259.002L95.4187 274.626L95.4203 274.628L96.2201 275.761L97.2416 277.202L100.67 282.043L101.258 282.873Z" fill="#523DD8"/>
<path d="M114.815 281.616C111.127 283.788 106.598 284.715 102.276 283.607C101.861 283.5 101.453 283.379 101.052 283.239C97.9344 282.168 95.2284 280.173 92.8131 277.709C89.7897 274.628 87.2236 270.817 84.8743 267.17L84.3463 266.411C83.2164 264.797 82.2359 263.087 81.3417 261.334C78.873 256.5 74.7213 252.601 71.0677 248.511C70.2789 247.626 69.501 246.702 68.7593 245.74L68.7577 245.739C65.7092 241.771 63.3174 237.198 63.5532 232.487C63.5626 232.295 63.5767 232.105 63.594 231.915C63.9837 227.839 66.5514 224.22 70.1421 222.683C73.7329 221.146 78.2256 221.748 81.5979 224.213C81.8619 220.868 83.7067 217.813 86.4489 216.183C87.5614 215.522 88.8123 215.101 90.1103 214.925C92.0133 214.667 94.02 214.932 95.8523 215.739C96.154 215.871 96.4494 216.017 96.737 216.177C98.959 217.385 100.807 219.299 102.295 221.46C102.727 222.087 103.128 222.736 103.497 223.393C105.312 226.611 106.513 230.114 108.001 233.489C111.073 240.459 115.398 246.914 120.673 252.394C121.641 253.399 122.656 254.393 123.564 255.456C124.298 256.318 124.966 257.221 125.485 258.213C125.486 258.214 125.486 258.214 125.486 258.214C125.59 258.415 125.694 258.621 125.785 258.832C125.788 258.835 125.79 258.843 125.791 258.846C125.799 258.865 125.808 258.885 125.816 258.904C127.77 263.411 126.055 268.455 123.665 272.395C122.871 273.701 121.998 274.961 121.038 276.141C119.699 277.782 118.192 279.268 116.504 280.503C115.962 280.901 115.398 281.273 114.815 281.616Z" fill="#AE9BFF"/>
<path d="M214.754 178.631C214.754 178.631 213.718 175.738 217.458 175.351C217.458 175.351 220.841 174.643 221.358 176.316C221.875 177.991 220.147 178.893 218.69 179.547C217.232 180.201 215.799 180.446 214.754 178.631Z" fill="#A8A8FE"/>
<path d="M224.097 185.589C224.097 185.589 223.046 182.605 226.956 182.165C226.956 182.165 230.498 181.395 231.019 183.124C231.543 184.852 229.726 185.804 228.197 186.496C226.668 187.187 225.171 187.458 224.097 185.589Z" fill="#A8A8FE"/>
<path d="M221.562 195.575C221.562 195.575 220.387 192.637 224.282 192.027C224.282 192.027 227.794 191.103 228.388 192.808C228.982 194.513 227.205 195.544 225.703 196.303C224.202 197.064 222.711 197.398 221.562 195.575Z" fill="#A8A8FE"/>
<path d="M192.433 235.95C192.293 235.785 192.156 235.597 192.022 235.388C192.022 235.388 190.548 231.865 195.04 231.288C195.04 231.288 199.078 230.326 199.829 232.369C199.831 232.375 199.834 232.38 199.836 232.386C199.848 232.71 199.831 233.049 199.781 233.408C199.779 233.408 198.709 234.475 192.433 235.95Z" fill="#A8A8FE"/>
<path d="M204.584 172.7C204.584 172.7 203.778 169.875 207.372 169.738C207.372 169.738 210.647 169.273 211.035 170.902C211.423 172.532 209.715 173.285 208.283 173.819C206.852 174.352 205.467 174.498 204.584 172.7Z" fill="#A8A8FE"/>
<path d="M168.987 189.755C168.854 189.544 168.916 189.266 169.127 189.133C175.763 184.923 185.501 182.096 185.599 182.069C185.838 182 186.089 182.138 186.157 182.379C186.226 182.618 186.087 182.867 185.847 182.937C185.751 182.965 176.134 185.756 169.609 189.896C169.399 190.028 169.121 189.966 168.987 189.755Z" fill="#F4A582"/>
<path d="M169.645 200.955C169.512 200.744 169.575 200.466 169.785 200.332C180.05 193.822 195.902 188.642 196.063 188.592C196.3 188.515 196.555 188.646 196.632 188.883C196.709 189.12 196.578 189.375 196.341 189.452C196.184 189.504 180.436 194.647 170.269 201.096C170.059 201.228 169.779 201.165 169.645 200.955Z" fill="#F4A582"/>
<path d="M180.159 206.291C180.154 206.283 180.148 206.274 180.143 206.265C180.023 206.046 180.105 205.771 180.324 205.653C187.874 201.541 198.761 197.834 198.87 197.798C199.105 197.718 199.361 197.845 199.442 198.081C199.522 198.316 199.394 198.572 199.159 198.653C199.05 198.689 188.236 202.372 180.754 206.445C180.545 206.56 180.284 206.491 180.159 206.291Z" fill="#F4A582"/>
<path d="M198.021 178.945C198.021 178.945 197.339 183.072 201.3 187.242C201.3 187.242 199.59 188.985 197.197 188.798C197.197 188.798 193.181 185.052 194.196 179.949C194.194 179.949 196.578 178.596 198.021 178.945Z" fill="#523DD8"/>
<path d="M197.794 185.275C197.622 185.349 197.419 185.357 197.232 185.28L196.88 185.138L195.513 184.59V184.588L196.063 183.223V183.221L196.203 182.875C196.355 182.498 196.784 182.316 197.16 182.467C197.348 182.542 197.488 182.688 197.563 182.861C197.637 183.034 197.644 183.235 197.568 183.425L197.43 183.769L197.782 183.911C198.159 184.063 198.341 184.492 198.19 184.869C198.112 185.061 197.969 185.201 197.794 185.275Z" fill="#FFB792"/>
<path d="M125.832 261.068C126.407 259.226 125.38 257.266 123.538 256.69C121.695 256.115 119.735 257.142 119.16 258.984C118.585 260.827 119.612 262.787 121.454 263.362C123.296 263.938 125.256 262.91 125.832 261.068Z" fill="#523DD8"/>
<path d="M108.744 258.184C108.799 256.255 107.279 254.647 105.349 254.592C103.42 254.537 101.812 256.057 101.757 257.987C101.702 259.916 103.222 261.524 105.152 261.579C107.081 261.634 108.689 260.114 108.744 258.184Z" fill="#523DD8"/>
<path d="M107.814 242.238C109.433 241.185 109.89 239.019 108.837 237.401C107.784 235.782 105.619 235.325 104 236.378C102.382 237.431 101.925 239.596 102.977 241.215C104.03 242.833 106.196 243.292 107.814 242.238Z" fill="#523DD8"/>
<path d="M91.7701 237.926C92.9375 236.388 92.6377 234.196 91.1005 233.029C89.5633 231.861 87.3709 232.161 86.2035 233.698C85.0362 235.235 85.336 237.428 86.8731 238.595C88.4103 239.762 90.6028 239.463 91.7701 237.926Z" fill="#523DD8"/>
<path d="M95.1608 219.386C93.5438 220.439 91.3783 219.98 90.3255 218.363C89.6309 217.296 89.5932 215.992 90.1118 214.925C92.0148 214.667 94.0215 214.932 95.8538 215.739C96.1555 215.871 96.4509 216.017 96.7385 216.177C96.8359 217.412 96.2718 218.661 95.1608 219.386Z" fill="#523DD8"/>
<path d="M71.8973 232.418C73.3522 231.15 73.5035 228.942 72.2352 227.487C70.9669 226.032 68.7593 225.881 67.3043 227.149C65.8494 228.418 65.6981 230.625 66.9664 232.08C68.2347 233.535 70.4423 233.686 71.8973 232.418Z" fill="#523DD8"/>
<path d="M85.3594 258.474C86.8879 257.295 87.1715 255.101 85.9927 253.572C84.814 252.044 82.6193 251.76 81.0908 252.939C79.5623 254.118 79.2788 256.312 80.4576 257.841C81.6363 259.369 83.8309 259.653 85.3594 258.474Z" fill="#523DD8"/>
<path d="M103.932 278.942C104.15 277.024 102.772 275.293 100.854 275.075C98.9359 274.857 97.2047 276.235 96.987 278.153C96.7693 280.071 98.1475 281.802 100.065 282.02C101.983 282.238 103.714 280.859 103.932 278.942Z" fill="#523DD8"/>
<path d="M116.505 280.502C116.026 279.032 116.568 277.371 117.921 276.49C118.883 275.864 120.038 275.772 121.039 276.139C119.7 277.78 118.193 279.267 116.505 280.502Z" fill="#523DD8"/>
</svg>
