<svg width="430" height="932" viewBox="0 0 430 932" fill="none" xmlns="http://www.w3.org/2000/svg">
<g clip-path="url(#clip0_146_372)">
<rect width="430" height="932" fill="url(#paint0_linear_146_372)"/>
<path d="M536.272 240.307C536.272 292.648 493.387 917.75 449 944.5C386.123 982.392 282.322 977.5 201 977.5C130.243 977.5 33.4117 993.753 -17 966C-80.9839 930.775 -90.8416 390.877 -90.8416 331.558C-90.8416 274.747 -113.279 89.2665 -53.9151 54.1079C55.6935 -10.808 110.09 141.453 184.644 141.453C253.064 141.453 328.248 51.2728 405.032 88.6546C476.188 123.296 536.272 179.444 536.272 240.307Z" fill="#D9D9D9" fill-opacity="0.2"/>
<path d="M637.038 422.807C637.038 475.148 720.088 815.75 675.701 842.5C612.825 880.392 411.087 990.326 329.766 990.326C259.009 990.326 44.1773 998.08 -6.23438 970.326C-70.2183 935.101 -121.234 566.319 -121.234 507C-121.234 450.189 -70.7344 291.326 31.2656 317.826C154.562 349.859 193.211 179.826 267.766 179.826C336.186 179.826 331.981 222.945 408.766 260.326C479.922 294.968 637.038 361.944 637.038 422.807Z" fill="#D9D9D9" fill-opacity="0.2"/>
<path d="M436.001 470.5C436.001 519.5 504.887 935.75 460.5 962.5C397.624 1000.39 280.822 1036.5 199.501 1036.5C128.744 1036.5 -2.58786 949.253 -52.9995 921.5C-116.983 886.275 -114.31 692.966 -114.31 633.646C-114.31 576.835 -68.3633 246.158 -8.99924 211C100.609 146.084 134.75 416.288 209.304 416.288C277.724 416.288 237.404 332.788 322.804 332.788C402.804 332.788 436.001 409.637 436.001 470.5Z" fill="#D9D9D9" fill-opacity="0.2"/>
<path d="M8.16797 424.861C-164.832 446.571 -77.8132 1224.18 -33.4263 1250.93C29.4503 1288.82 146.252 1324.93 227.573 1324.93C298.33 1324.93 429.662 1237.68 480.074 1209.93C544.058 1174.71 541.384 981.396 541.384 922.076C541.384 865.265 495.437 534.588 436.073 499.43C326.465 434.514 292.325 704.718 217.77 704.718C149.35 704.718 189.671 621.218 104.27 621.218C24.2703 621.218 135.668 408.861 8.16797 424.861Z" fill="#D9D9D9" fill-opacity="0.2"/>
</g>
<defs>
<linearGradient id="paint0_linear_146_372" x1="215" y1="0" x2="215" y2="932" gradientUnits="userSpaceOnUse">
<stop offset="0.025" stop-color="#0E327E"/>
<stop offset="0.365" stop-color="#2144B4"/>
<stop offset="1" stop-color="#BE6BC5"/>
</linearGradient>
<clipPath id="clip0_146_372">
<rect width="430" height="932" fill="white"/>
</clipPath>
</defs>
</svg>
