<svg width="330" height="330" viewBox="0 0 330 330" fill="none" xmlns="http://www.w3.org/2000/svg">
<path d="M167.699 228.987C172.768 234.056 180.992 234.056 186.06 228.987C191.129 223.918 191.129 215.695 186.06 210.626C180.992 205.557 172.768 205.557 167.699 210.626C162.624 215.695 162.624 223.918 167.699 228.987Z" fill="#EBEBEB"/>
<path d="M181.605 212.104C181.651 212.711 181.467 213.338 181.123 213.866C180.787 214.401 180.279 214.83 179.711 215.114C179.13 215.391 178.424 215.49 177.804 215.279C177.19 215.081 176.675 214.671 176.352 214.163C176.84 214.513 177.375 214.757 177.909 214.85C178.18 214.896 178.444 214.902 178.708 214.85C178.972 214.817 179.223 214.718 179.467 214.605C179.586 214.546 179.711 214.48 179.83 214.407C179.942 214.328 180.061 214.262 180.166 214.17C180.391 214.011 180.582 213.807 180.767 213.602C181.13 213.18 181.414 212.672 181.605 212.104Z" fill="#C7C7C7"/>
<path d="M176.932 212.85C176.866 212.434 176.978 211.985 177.202 211.609C177.427 211.226 177.777 210.916 178.179 210.718C178.588 210.514 179.103 210.461 179.532 210.619C179.961 210.771 180.311 211.075 180.502 211.451C180.139 211.24 179.776 211.094 179.427 211.055C179.07 211.002 178.74 211.088 178.423 211.233C177.777 211.543 177.262 212.084 176.932 212.85Z" fill="#C7C7C7"/>
<path d="M176.88 225.905C177.045 226.281 177.045 226.73 176.913 227.139C176.781 227.548 176.51 227.931 176.16 228.188C175.804 228.466 175.322 228.604 174.88 228.532C174.444 228.466 174.055 228.248 173.791 227.931C174.18 228.05 174.557 228.109 174.9 228.089C175.25 228.07 175.547 227.938 175.811 227.733C176.088 227.522 176.319 227.264 176.497 226.961C176.682 226.664 176.807 226.307 176.88 225.905Z" fill="#C7C7C7"/>
<path d="M174.187 227.383C174.035 227.132 174.022 226.809 174.101 226.512C174.187 226.215 174.372 225.938 174.623 225.753C174.88 225.555 175.237 225.456 175.553 225.515C175.864 225.575 176.134 225.746 176.293 225.997C176.009 225.951 175.758 225.931 175.534 225.964C175.316 225.997 175.138 226.076 174.973 226.202C174.616 226.472 174.359 226.829 174.187 227.383Z" fill="#C7C7C7"/>
<path d="M172.2 214.229C172.425 214.434 172.557 214.738 172.57 215.061C172.577 215.391 172.445 215.734 172.2 215.978C171.95 216.242 171.567 216.348 171.25 216.302C170.933 216.262 170.643 216.13 170.432 215.913C170.729 215.913 170.999 215.906 171.237 215.86C171.474 215.813 171.659 215.728 171.791 215.583C171.936 215.431 172.055 215.239 172.121 215.022C172.194 214.791 172.214 214.526 172.2 214.229Z" fill="#C7C7C7"/>
<path d="M170.59 215.49C170.398 215.371 170.286 215.153 170.266 214.916C170.247 214.672 170.339 214.414 170.524 214.236C170.708 214.038 171.006 213.965 171.237 214.005C171.468 214.045 171.666 214.157 171.791 214.342C171.573 214.381 171.395 214.401 171.243 214.447C171.091 214.493 170.999 214.553 170.926 214.632C170.841 214.718 170.761 214.823 170.708 214.962C170.649 215.094 170.616 215.272 170.59 215.49Z" fill="#C7C7C7"/>
<path d="M181.223 227.911C181.084 228.182 180.82 228.38 180.503 228.472C180.186 228.565 179.823 228.518 179.526 228.34C179.21 228.162 179.018 227.812 178.979 227.495C178.939 227.179 178.998 226.868 179.157 226.611C179.236 226.901 179.302 227.165 179.408 227.383C179.513 227.601 179.639 227.759 179.817 227.858C179.995 227.964 180.213 228.03 180.444 228.037C180.675 228.05 180.932 227.997 181.223 227.911Z" fill="#C7C7C7"/>
<path d="M179.605 226.664C179.678 226.453 179.856 226.288 180.087 226.208C180.318 226.129 180.589 226.162 180.813 226.288C181.051 226.42 181.196 226.69 181.209 226.921C181.229 227.152 181.163 227.37 181.018 227.542C180.925 227.337 180.859 227.172 180.78 227.04C180.701 226.908 180.622 226.829 180.529 226.776C180.424 226.717 180.305 226.664 180.16 226.644C180.001 226.624 179.823 226.631 179.605 226.664Z" fill="#C7C7C7"/>
<path d="M185.671 218.777C185.704 219.08 185.605 219.39 185.394 219.648C185.182 219.899 184.852 220.07 184.509 220.09C184.146 220.123 183.79 219.938 183.585 219.701C183.374 219.456 183.249 219.173 183.235 218.869C183.46 219.067 183.664 219.245 183.876 219.364C184.087 219.489 184.278 219.542 184.476 219.529C184.687 219.516 184.899 219.45 185.097 219.324C185.295 219.192 185.479 219.008 185.671 218.777Z" fill="#C7C7C7"/>
<path d="M183.631 218.651C183.572 218.434 183.625 218.203 183.77 218.005C183.915 217.813 184.159 217.681 184.417 217.668C184.687 217.642 184.958 217.787 185.097 217.965C185.242 218.15 185.314 218.361 185.288 218.585C185.103 218.467 184.951 218.368 184.806 218.302C184.661 218.236 184.555 218.216 184.45 218.229C184.331 218.236 184.199 218.269 184.067 218.328C183.935 218.401 183.796 218.506 183.631 218.651Z" fill="#C7C7C7"/>
<path d="M168.472 221.72C168.505 222.024 168.406 222.334 168.194 222.591C167.983 222.842 167.653 223.014 167.31 223.034C166.947 223.067 166.591 222.882 166.386 222.644C166.175 222.4 166.049 222.116 166.036 221.813C166.261 222.011 166.465 222.189 166.676 222.308C166.888 222.433 167.079 222.486 167.277 222.473C167.488 222.459 167.699 222.393 167.897 222.268C168.095 222.136 168.28 221.951 168.472 221.72Z" fill="#C7C7C7"/>
<path d="M166.432 221.588C166.373 221.371 166.426 221.14 166.571 220.942C166.716 220.75 166.96 220.618 167.218 220.605C167.488 220.579 167.759 220.724 167.897 220.902C168.043 221.087 168.115 221.298 168.089 221.522C167.904 221.404 167.752 221.305 167.607 221.239C167.462 221.173 167.356 221.153 167.251 221.166C167.132 221.173 167 221.206 166.868 221.265C166.736 221.338 166.597 221.443 166.432 221.588Z" fill="#C7C7C7"/>
<g opacity="0.4">
<path d="M31.957 171.547C31.99 176.563 32.848 181.606 34.7686 186.166C36.676 190.707 39.6922 194.793 43.5994 197.327C44.5696 197.961 45.5728 198.508 46.609 198.951C47.6518 199.386 48.7276 199.703 49.8034 199.927C51.9616 200.389 54.1528 200.376 56.2714 200.02C60.5218 199.281 64.4488 197.175 67.9138 194.403C68.125 194.232 68.3626 194.047 68.5474 193.882L69.0424 193.413C69.3592 193.077 69.676 192.766 69.9796 192.403C70.5934 191.71 71.1676 190.938 71.7022 190.1C72.7714 188.443 73.7416 186.569 74.5732 184.563C76.2694 180.55 77.5828 176.075 78.7774 171.475C81.1336 162.228 83.0079 152.447 85.2388 142.507C85.7931 140.019 86.3871 137.524 87.0142 135.01C87.6214 132.495 88.3012 129.974 89.014 127.433C90.4594 122.351 92.083 117.236 94.4788 111.976C95.086 110.656 95.7526 109.323 96.5446 107.97C96.9406 107.296 97.3762 106.603 97.8448 105.93C98.32 105.27 98.815 104.63 99.3298 104.023C101.402 101.581 103.785 99.6073 106.2 97.9969C111.045 94.7431 116.021 92.7103 120.8 90.6511C125.604 88.6513 130.29 86.7109 134.739 84.4141C139.181 82.1305 143.385 79.4905 147.101 76.3555C150.83 73.2403 153.998 69.5641 156.433 65.4919C158.855 61.3999 160.624 56.9515 161.139 52.6087C161.396 50.4439 161.37 48.3319 161.02 46.3849C160.657 44.4379 159.984 42.6691 159.033 41.1973C157.146 38.2273 154.288 36.4321 151.061 35.7919C149.45 35.4553 147.741 35.4157 146.005 35.5939C144.269 35.7985 142.494 36.2275 140.738 36.8875C140.296 37.0525 139.86 37.2373 139.425 37.4221L137.867 38.1019C136.838 38.5705 135.821 39.0457 134.818 39.5605C132.818 40.5835 130.865 41.6923 128.937 42.9199C125.09 45.3553 121.308 48.3055 117.097 51.4669C112.913 54.6283 108.227 57.8821 103.158 60.6541C98.0692 63.3865 92.6968 65.6569 87.2715 67.3267C86.5918 67.5577 85.912 67.7293 85.2322 67.9273L83.404 68.4487C82.3942 68.7457 81.3778 69.0691 80.3614 69.4189C78.3286 70.1251 76.3222 70.9435 74.3752 71.8477C66.5608 75.4909 59.743 80.5993 54.8788 87.2389C52.417 90.5455 50.3446 94.1953 48.6946 98.2147C47.8564 100.215 47.1238 102.307 46.5232 104.485C45.8896 106.65 45.4012 108.9 44.9854 111.204C44.5828 113.507 44.2792 115.87 44.0878 118.272C43.9888 119.401 43.9162 120.873 43.8238 122.206C43.7116 123.565 43.5928 124.918 43.4278 126.265C42.7876 131.65 41.7844 136.93 40.4314 142.045C39.118 147.174 37.468 152.13 35.8114 157.014C34.9732 159.456 34.135 161.878 33.3958 164.301C32.6698 166.729 31.9966 169.198 31.957 171.547ZM29.977 171.567C29.9572 170.175 30.1552 168.841 30.3862 167.548C30.6106 166.248 30.9208 164.987 31.2112 163.726C31.8052 161.212 32.4454 158.737 32.9734 156.242C33.5146 153.754 33.97 151.259 34.3132 148.758C34.6564 146.256 34.8478 143.742 34.96 141.247C35.1382 136.244 34.8082 131.274 34.0096 126.43C33.8248 125.215 33.5872 124.014 33.3496 122.82C33.0856 121.599 32.8282 120.516 32.5444 119.097C31.9966 116.398 31.561 113.632 31.3168 110.821C30.7954 105.204 30.9604 99.3565 32.1088 93.5155C33.2506 87.6877 35.389 81.8863 38.5306 76.6195C41.6656 71.3527 45.6982 66.6139 50.2456 62.6077C54.8062 58.5949 59.875 55.3015 65.2078 52.7077C67.8742 51.4009 70.6132 50.2789 73.4182 49.3153C74.8174 48.8269 76.243 48.3979 77.7016 48.0019L81.226 47.0515C85.6084 45.8041 89.806 44.3389 93.8386 42.4183C97.9042 40.5505 101.811 38.2075 106.022 35.5213C110.22 32.8483 114.754 29.7991 119.777 27.1261C122.278 25.7929 124.878 24.5389 127.545 23.4631C128.878 22.9219 130.224 22.4203 131.571 21.9451L133.604 21.2719C134.376 21.0409 135.148 20.8165 135.94 20.6185C139.095 19.8331 142.415 19.4173 145.794 19.5559C149.173 19.6681 152.605 20.3479 155.846 21.6481C159.08 22.9549 162.109 24.9217 164.584 27.4165C167.072 29.8981 168.993 32.9077 170.181 36.0823C171.389 39.2503 171.884 42.5569 171.851 45.7117C171.831 48.8731 171.29 51.9091 170.425 54.7339C168.643 60.3901 165.785 65.2675 162.472 69.6367C160.822 71.8411 158.981 73.8805 157.067 75.8143C155.126 77.7283 153.087 79.5103 150.962 81.1669C142.454 87.7867 132.792 92.1493 124.06 97.2445C119.711 99.7657 115.553 102.531 112.411 105.706C110.853 107.303 109.586 108.993 108.689 110.722C108.464 111.157 108.26 111.593 108.075 112.029C107.897 112.458 107.732 112.893 107.567 113.375C107.237 114.325 106.946 115.368 106.676 116.451C106.141 118.622 105.725 120.965 105.362 123.354C104.966 125.743 104.663 128.192 104.326 130.66L103.349 138.145C103.026 140.659 102.683 143.194 102.293 145.741C100.736 155.905 98.7556 166.274 95.053 176.603C93.1654 181.758 90.8686 186.919 87.595 191.862C86.7568 193.09 85.8856 194.304 84.9154 195.492C83.9584 196.68 82.9222 197.842 81.7606 198.931C80.6254 200.026 79.378 201.069 78.025 202.013C77.365 202.495 76.639 202.924 75.9262 203.346L74.8174 203.94C74.461 204.125 74.1442 204.257 73.8076 204.415C71.1412 205.63 68.3362 206.62 65.4124 207.247C62.4952 207.874 59.4658 208.131 56.4694 207.907C53.473 207.702 50.5228 206.943 47.83 205.755C46.4836 205.155 45.2032 204.442 44.0152 203.623C42.8206 202.818 41.7052 201.921 40.6822 200.944C36.5968 197.017 33.9832 192.106 32.3596 187.084C30.7492 182.002 30.0694 176.775 29.977 171.567Z" fill="#EBEBEB"/>
<path d="M115.051 193.624C117.85 188.476 119.73 182.866 121.09 177.144C122.47 171.422 123.347 165.581 124.205 159.674C124.661 156.724 125.07 153.741 125.611 150.744C126.133 147.735 126.759 144.699 127.657 141.63C128.568 138.567 129.736 135.445 131.551 132.383C133.353 129.34 135.907 126.311 139.339 124.054C140.184 123.493 141.108 123.024 142.012 122.523C142.943 122.1 143.9 121.704 144.863 121.328C145.834 121.031 146.817 120.741 147.807 120.483C148.784 120.298 149.774 120.12 150.764 119.955C154.506 119.434 158.4 119.526 162.175 120.114C165.957 120.694 169.574 121.836 172.92 123.249C176.266 124.681 179.348 126.384 182.213 128.218C187.941 131.895 192.865 136.013 197.492 140.019L204.25 145.946C205.352 146.916 206.461 147.84 207.557 148.771L209.193 150.144L210.837 151.47C213.048 153.186 215.226 154.849 217.49 156.268C219.727 157.734 222.057 158.974 224.327 159.951C226.684 160.954 229.35 161.733 232.128 162.367C234.914 163 237.824 163.515 240.794 163.951C246.754 164.822 252.938 165.383 259.215 166.109L263.941 166.696C265.525 166.927 267.109 167.165 268.699 167.455C271.887 167.997 275.081 168.749 278.256 169.818C281.417 170.901 284.572 172.353 287.364 174.465C290.162 176.557 292.492 179.329 294.043 182.378C294.848 183.896 295.396 185.487 295.878 187.077L296.472 189.473C296.637 190.265 296.743 191.037 296.881 191.816C297.33 194.944 297.548 198.119 297.416 201.307C297.238 204.481 296.809 207.663 296.017 210.771C295.799 211.543 295.64 212.329 295.39 213.094L294.65 215.385C294.083 216.883 293.509 218.388 292.822 219.84C290.143 225.694 286.486 231.093 282.209 235.904C280.077 238.32 277.82 240.63 275.424 242.781C273.055 244.972 270.54 246.979 267.973 248.926C266.673 249.863 265.386 250.846 264.046 251.731L262.053 253.09L260.02 254.391C257.294 256.1 254.516 257.704 251.678 259.209C250.259 259.954 248.827 260.667 247.394 261.393C245.949 262.08 244.497 262.766 243.038 263.419C241.573 264.053 240.115 264.726 238.63 265.327C237.145 265.914 235.666 266.541 234.168 267.089L225.568 270.297C224.176 270.818 222.803 271.379 221.417 271.92L219.344 272.739L217.292 273.597C206.309 278.098 195.848 283.345 185.572 289.1C180.418 292.011 175.309 295.02 169.758 298.102C167 299.653 164.063 301.158 160.862 302.59C157.654 303.99 154.143 305.316 150.308 306.194C146.487 307.085 142.395 307.507 138.448 307.389C134.475 307.309 130.713 306.669 127.182 305.844C125.387 305.455 123.717 304.933 122.014 304.432C121.176 304.168 120.377 303.884 119.552 303.607C118.734 303.33 117.929 303.059 117.084 302.709L114.589 301.706L113.348 301.198L112.114 300.597C110.471 299.785 108.84 299.013 107.256 297.99C106.458 297.508 105.666 297.027 104.887 296.525L102.604 294.842L101.475 293.991C101.105 293.7 100.755 293.357 100.399 293.047L98.2871 291.12C97.6139 290.44 96.9869 289.701 96.3467 288.988L95.3963 287.912C95.0927 287.542 94.8221 287.14 94.5317 286.757C93.9707 285.978 93.4031 285.206 92.8619 284.421C92.3735 283.602 91.9049 282.771 91.4429 281.939C89.6939 278.586 88.3541 275.062 87.7337 271.537L87.4631 270.224C87.3971 269.788 87.3509 269.346 87.2915 268.911C87.1925 268.039 87.0737 267.168 87.0011 266.297C86.9615 264.574 86.8361 262.852 86.9681 261.182C87.0539 257.809 87.6281 254.582 88.2485 251.427C88.9745 248.299 89.7929 245.243 90.8357 242.306C92.8685 236.406 95.3435 230.802 98.0099 225.364C98.6897 224.011 99.3299 222.638 100.043 221.305C100.736 219.965 101.389 218.612 102.109 217.285C102.802 215.952 103.521 214.632 104.234 213.306L106.372 209.346L115.051 193.624ZM116.807 194.522C113.982 199.756 111.355 205.082 109.019 210.527L108.147 212.566L107.329 214.626C106.768 215.992 106.273 217.384 105.771 218.77C104.748 221.536 103.864 224.347 103.046 227.159C101.422 232.789 100.254 238.518 99.6863 244.187C99.3629 247.018 99.3035 249.83 99.3101 252.582C99.4223 255.328 99.6005 258.034 100.135 260.581C100.313 261.882 100.722 263.089 101.006 264.317L101.607 266.079C101.706 266.37 101.798 266.667 101.904 266.95L102.274 267.775C103.184 270.013 104.425 271.973 105.804 273.748C106.174 274.177 106.53 274.606 106.874 275.042L108.062 276.23C108.26 276.428 108.438 276.633 108.649 276.817L109.309 277.352C109.751 277.702 110.161 278.078 110.616 278.421L112.035 279.405C112.272 279.563 112.49 279.741 112.741 279.893L113.513 280.329L115.031 281.22L116.675 282.005C118.846 283.074 121.255 283.932 123.717 284.724C124.311 284.942 124.978 285.114 125.638 285.292C126.291 285.47 126.951 285.668 127.604 285.826C128.891 286.11 130.185 286.453 131.426 286.651C133.927 287.107 136.316 287.371 138.527 287.331C140.752 287.292 142.837 287.014 144.982 286.467C149.252 285.384 154.018 283.054 159.185 280.289C161.766 278.923 164.399 277.471 167.105 275.999C169.792 274.521 172.577 273.095 175.355 271.656C186.556 265.927 198.33 260.951 210.276 256.852L212.513 256.074L214.764 255.334C216.269 254.846 217.76 254.338 219.265 253.876L228.083 251.196C230.888 250.332 233.66 249.408 236.425 248.464L240.537 246.979C241.89 246.457 243.256 245.949 244.609 245.408C247.289 244.299 249.982 243.21 252.582 241.969L254.549 241.059L256.482 240.102C257.789 239.481 259.023 238.775 260.304 238.108C265.3 235.323 270.112 232.228 274.402 228.591C276.573 226.789 278.54 224.816 280.414 222.757C282.302 220.704 283.925 218.467 285.377 216.13C288.301 211.464 290.129 206.204 290.776 200.746C291.06 198.013 291.053 195.241 290.737 192.483C290.644 191.796 290.572 191.09 290.459 190.423L290.05 188.47C289.674 187.209 289.271 185.955 288.671 184.813C287.536 182.497 285.866 180.517 283.734 178.986C281.609 177.448 279.061 176.352 276.342 175.6C273.623 174.834 270.725 174.432 267.795 174.148C264.851 173.904 261.855 173.818 258.826 173.844C252.767 173.877 246.589 174.253 240.22 174.385C237.026 174.438 233.779 174.405 230.446 174.187C227.113 173.97 223.687 173.567 220.15 172.722C212.949 170.96 206.745 167.733 201.128 164.155C189.974 156.942 181.19 148.302 172.273 141.979C167.825 138.818 163.429 136.297 158.908 134.911C156.644 134.205 154.314 133.822 151.899 133.696C149.668 133.604 147.649 133.809 145.754 134.541C143.86 135.261 141.992 136.508 140.29 138.297C138.587 140.072 137.062 142.309 135.722 144.732C134.376 147.16 133.188 149.787 132.079 152.48C131.016 155.193 130.007 157.965 129.089 160.783C127.202 166.406 125.545 172.155 123.658 177.837C121.777 183.526 119.658 189.169 116.807 194.522Z" fill="#EBEBEB"/>
<path d="M298.795 59.3208C297.917 61.215 296.96 62.8848 295.95 64.4556C295.455 65.2542 294.94 65.9934 294.432 66.7458C293.911 67.4718 293.376 68.2044 292.835 68.8974C291.772 70.3098 290.644 71.6166 289.515 72.9102C284.994 78.0252 280.057 82.4208 275.226 86.7702L273.517 88.3212L272.764 89.0076L272.051 89.76C271.563 90.255 271.121 90.8226 270.659 91.3638C270.223 91.9446 269.788 92.5254 269.365 93.1326C268.949 93.7464 268.534 94.3602 268.151 95.0202C267.761 95.667 267.379 96.3204 267.016 97.0002C266.303 98.3598 265.583 99.7524 264.956 101.191C262.336 106.96 260.369 113.164 257.3 119.368C255.71 122.45 253.809 125.605 251.044 128.344C249.697 129.749 248.087 130.937 246.404 132.02C245.546 132.521 244.668 133.036 243.757 133.439C243.302 133.65 242.84 133.874 242.384 134.066L240.985 134.581C239.098 135.26 237.184 135.689 235.27 136.026C234.293 136.198 233.237 136.25 232.201 136.349C231.164 136.415 230.155 136.356 229.118 136.349C228.089 136.323 227.112 136.171 226.096 136.059C225.587 136.006 225.106 135.907 224.624 135.808L223.159 135.511L222.426 135.353L221.72 135.148L220.307 134.726C219.35 134.475 218.466 134.112 217.562 133.756C213.978 132.337 210.691 130.462 207.701 128.284C204.738 126.086 202.039 123.618 199.63 120.932C197.227 118.246 195.161 115.295 193.373 112.213C192.937 111.434 192.515 110.649 192.099 109.87C191.696 109.078 191.333 108.253 190.957 107.448C190.574 106.649 190.238 105.818 189.921 104.993C189.598 104.161 189.268 103.343 188.997 102.491C187.835 99.1452 187.01 95.6802 186.41 92.2284C185.829 88.77 185.479 85.305 185.459 81.8664C185.426 78.4344 185.631 75.042 186.225 71.7354C186.819 68.4288 187.829 65.2146 189.347 62.238C190.885 59.235 193.168 56.5686 195.94 54.5226C198.706 52.4634 201.854 50.9454 205.075 49.7112C211.556 47.2758 218.38 45.7578 225.106 44.715C228.478 44.1936 231.831 43.857 235.151 43.6458C235.633 43.6326 235.824 43.5534 236.101 43.5138L236.873 43.3818C237.401 43.2234 237.896 43.1772 238.418 42.9858L239.183 42.7746C239.441 42.6822 239.698 42.5766 239.962 42.504C240.477 42.3588 241.018 42.0948 241.533 41.9232C243.678 41.0586 245.981 39.963 248.476 38.577L252.39 36.3792L254.482 35.1978L256.706 33.9966C258.198 33.1782 259.868 32.3928 261.584 31.6074C263.359 30.8616 265.234 30.1158 267.306 29.5284C269.411 28.9542 271.629 28.4526 274.078 28.3008C276.493 28.1358 279.047 28.2282 281.536 28.7562L282.473 28.9344L283.384 29.1786C283.984 29.3502 284.605 29.5086 285.199 29.7066C286.34 30.1488 287.535 30.5646 288.571 31.1322L290.162 31.9572L291.62 32.8614C292.624 33.462 293.468 34.1352 294.346 34.8018C294.584 34.9734 294.755 35.112 295.019 35.3232C295.363 35.607 295.686 35.904 296.016 36.2076C296.669 36.7752 297.296 37.5078 297.884 38.247C298.029 38.4252 298.174 38.6166 298.313 38.808L298.715 39.4218C298.973 39.831 299.224 40.2468 299.461 40.6692C299.897 41.5272 300.28 42.4314 300.577 43.3224C300.709 43.7712 300.834 44.2134 300.94 44.6622C300.999 44.8866 301.052 45.1176 301.091 45.3288L301.19 45.9756C301.25 46.398 301.303 46.827 301.342 47.256C301.388 47.6784 301.375 48.0546 301.388 48.4572C301.395 48.8466 301.388 49.2492 301.375 49.632L301.283 50.7144C301.243 51.0708 301.217 51.447 301.157 51.777L300.979 52.7538C300.484 55.341 299.659 57.4266 298.795 59.3208Z" fill="#EBEBEB"/>
<path d="M81.1007 233.871C81.4439 235.864 81.5561 237.759 81.5033 239.587C81.4505 243.25 80.6255 246.603 79.7213 249.87C78.8039 253.143 77.6885 256.324 76.2959 259.393C74.8769 262.449 73.1477 265.38 70.9961 268.066C68.8379 270.745 66.3563 273.26 63.3929 275.412C60.4163 277.524 56.7203 279.075 52.6679 279.682C50.6483 279.979 48.5429 280.038 46.4903 279.807C44.4443 279.563 42.4643 279.042 40.7351 278.256C38.9927 277.484 37.5077 276.501 36.2207 275.458C34.9271 274.408 33.8117 273.3 32.7293 272.184C32.1617 271.564 31.6535 270.897 31.2047 270.178C30.7823 269.445 30.4325 268.673 30.1289 267.868C29.5679 266.257 29.2115 264.541 28.9805 262.792C28.5185 259.294 28.4195 255.552 28.8617 251.968C29.3039 248.385 30.4127 245.045 32.1551 242.194C33.8975 239.343 36.1811 236.92 38.8739 234.987C41.5535 233.033 44.7017 231.634 47.7839 230.36C50.9123 229.119 53.9417 227.951 56.8193 226.591C59.7497 225.278 62.4821 223.72 65.9867 222.631C66.8711 222.367 67.8083 222.123 68.8577 222.011C69.8939 221.879 71.0357 221.853 72.2765 222.064C73.6097 222.288 75.2069 223.034 76.3817 224.064C76.6655 224.321 76.9691 224.598 77.2133 224.875C77.4575 225.153 77.7017 225.436 77.9327 225.733C78.3353 226.294 78.7379 226.902 79.0217 227.463C79.3517 228.057 79.5695 228.585 79.8137 229.165C80.0117 229.693 80.2361 230.274 80.3747 230.782L80.6057 231.581L80.7971 232.353C80.9225 232.875 81.0083 233.363 81.1007 233.871Z" fill="#EBEBEB"/>
</g>
<g opacity="0.4">
<path d="M267.53 123.077C283.047 111.025 298.656 113.368 298.656 113.368C298.656 113.368 298.729 129.149 284.565 142.765C272.619 154.255 261.267 153.602 257.353 149.087C253.446 144.573 254.436 133.241 267.53 123.077Z" fill="#EBEBEB"/>
<path d="M265.808 130.871C275.649 123.228 285.542 124.72 285.542 124.72C285.542 124.72 285.588 134.726 276.606 143.359C269.029 150.645 261.835 150.229 259.353 147.365C256.872 144.5 257.505 137.313 265.808 130.871Z" fill="white"/>
</g>
<path d="M272.929 134.996L271.754 134.059C271.417 133.789 271.364 133.3 271.628 132.964C271.899 132.627 272.387 132.574 272.724 132.838L273.899 133.775C274.235 134.046 274.288 134.534 274.024 134.871C273.754 135.208 273.259 135.267 272.929 134.996Z" fill="#EBEBEB"/>
<path d="M259.683 147.081L258.864 145.82C258.627 145.457 258.732 144.976 259.095 144.745C259.458 144.507 259.94 144.613 260.171 144.976L260.99 146.236C261.227 146.599 261.122 147.081 260.759 147.312C260.402 147.543 259.92 147.437 259.683 147.081Z" fill="#EBEBEB"/>
<path d="M267.418 132.6L266.613 132.574C266.184 132.561 265.848 132.204 265.861 131.769C265.874 131.34 266.23 131.003 266.666 131.016L267.471 131.043C267.9 131.056 268.237 131.412 268.224 131.848C268.204 132.27 267.847 132.614 267.418 132.6Z" fill="#EBEBEB"/>
<path d="M274.889 142.362L274.915 141.557C274.929 141.128 275.285 140.791 275.721 140.804C276.15 140.818 276.486 141.174 276.473 141.61L276.447 142.415C276.433 142.844 276.077 143.18 275.641 143.167C275.212 143.154 274.876 142.791 274.889 142.362Z" fill="#EBEBEB"/>
<path d="M257.683 142.599L257.591 141.794C257.544 141.365 257.848 140.982 258.277 140.936C258.706 140.89 259.089 141.194 259.135 141.623L259.227 142.428C259.274 142.857 258.97 143.24 258.541 143.286C258.119 143.339 257.729 143.028 257.683 142.599Z" fill="#EBEBEB"/>
<path d="M270.785 149.635L270.032 149.932C269.63 150.09 269.181 149.892 269.022 149.49C268.864 149.087 269.062 148.638 269.465 148.48L270.217 148.183C270.62 148.025 271.068 148.223 271.227 148.625C271.385 149.028 271.187 149.483 270.785 149.635Z" fill="#EBEBEB"/>
<path d="M268.066 149.72C272.996 149.17 276.547 144.727 275.996 139.797C275.446 134.866 271.004 131.316 266.073 131.866C261.143 132.416 257.592 136.859 258.143 141.789C258.693 146.719 263.136 150.27 268.066 149.72Z" fill="#EBEBEB"/>
<path d="M263.233 135.868C263.247 136.29 263.425 136.706 263.702 137.042C263.973 137.386 264.355 137.643 264.771 137.788C265.194 137.933 265.689 137.947 266.098 137.755C266.507 137.577 266.83 137.254 267.009 136.877C266.698 137.155 266.355 137.366 265.992 137.471C265.814 137.524 265.629 137.544 265.444 137.531C265.26 137.531 265.081 137.478 264.903 137.425C264.817 137.392 264.725 137.359 264.639 137.32C264.553 137.273 264.468 137.234 264.388 137.181C264.217 137.089 264.078 136.963 263.933 136.838C263.643 136.574 263.405 136.25 263.233 135.868Z" fill="#C7C7C7"/>
<path d="M266.5 136.026C266.513 135.736 266.401 135.439 266.216 135.194C266.031 134.95 265.767 134.759 265.477 134.66C265.18 134.554 264.824 134.554 264.54 134.699C264.256 134.838 264.038 135.069 263.933 135.346C264.164 135.175 264.401 135.049 264.645 134.99C264.883 134.93 265.121 134.957 265.345 135.036C265.82 135.188 266.216 135.524 266.5 136.026Z" fill="#C7C7C7"/>
<path d="M270.217 141.814C270.131 142.085 270.164 142.395 270.289 142.666C270.415 142.936 270.626 143.18 270.883 143.332C271.147 143.497 271.491 143.55 271.788 143.471C272.085 143.392 272.335 143.213 272.487 142.976C272.23 143.088 271.979 143.161 271.735 143.167C271.497 143.18 271.279 143.114 271.081 142.996C270.877 142.877 270.692 142.712 270.547 142.514C270.408 142.322 270.289 142.085 270.217 141.814Z" fill="#C7C7C7"/>
<path d="M272.177 142.619C272.263 142.435 272.25 142.21 272.17 142.012C272.091 141.814 271.939 141.643 271.755 141.53C271.563 141.412 271.312 141.372 271.095 141.438C270.883 141.504 270.712 141.643 270.626 141.827C270.817 141.775 270.989 141.742 271.147 141.748C271.299 141.755 271.431 141.794 271.557 141.867C271.814 142.032 272.019 142.256 272.177 142.619Z" fill="#C7C7C7"/>
<path d="M273.193 139.471C273.054 139.629 272.981 139.847 273.001 140.072C273.021 140.303 273.14 140.527 273.325 140.672C273.516 140.837 273.793 140.877 274.004 140.824C274.222 140.771 274.407 140.659 274.532 140.494C274.328 140.514 274.143 140.534 273.971 140.52C273.806 140.507 273.674 140.461 273.569 140.369C273.457 140.276 273.358 140.151 273.298 140.006C273.239 139.854 273.206 139.676 273.193 139.471Z" fill="#C7C7C7"/>
<path d="M274.394 140.21C274.513 140.111 274.579 139.959 274.572 139.788C274.566 139.616 274.48 139.451 274.341 139.339C274.196 139.214 273.985 139.187 273.833 139.233C273.675 139.28 273.549 139.372 273.477 139.511C273.628 139.517 273.754 139.524 273.859 139.544C273.965 139.563 274.031 139.596 274.09 139.643C274.156 139.695 274.216 139.761 274.262 139.854C274.321 139.946 274.361 140.065 274.394 140.21Z" fill="#C7C7C7"/>
<path d="M260.66 138.197C260.66 138.408 260.753 138.613 260.918 138.771C261.083 138.93 261.32 139.022 261.558 139.009C261.809 139.002 262.04 138.851 262.165 138.672C262.29 138.488 262.356 138.283 262.343 138.072C262.205 138.224 262.079 138.362 261.941 138.461C261.809 138.56 261.677 138.613 261.538 138.62C261.393 138.626 261.241 138.6 261.096 138.527C260.951 138.461 260.812 138.342 260.66 138.197Z" fill="#C7C7C7"/>
<path d="M262.053 137.953C262.079 137.801 262.02 137.643 261.907 137.524C261.789 137.405 261.617 137.333 261.439 137.339C261.247 137.339 261.076 137.465 260.99 137.597C260.904 137.735 260.871 137.887 260.904 138.039C261.023 137.946 261.122 137.861 261.214 137.808C261.307 137.755 261.379 137.729 261.452 137.729C261.538 137.722 261.624 137.735 261.723 137.768C261.828 137.801 261.927 137.867 262.053 137.953Z" fill="#C7C7C7"/>
<path d="M266.349 143.702C265.405 144.256 264.19 143.939 263.636 142.989C263.082 142.038 263.392 140.824 264.336 140.27C265.279 139.715 266.494 140.032 267.048 140.982C267.603 141.933 267.292 143.147 266.349 143.702Z" fill="#DBDBDB"/>
<path d="M264.31 141.161C263.795 141.464 263.485 141.979 263.432 142.533C263.188 141.682 263.531 140.738 264.329 140.27C265.273 139.715 266.488 140.032 267.042 140.982C267.445 141.669 267.392 142.487 266.983 143.101C267.075 142.672 267.016 142.21 266.771 141.807C266.27 140.949 265.168 140.659 264.31 141.161Z" fill="#C7C7C7"/>
<path d="M262.646 142.626C262.686 143.141 262.91 143.642 263.247 144.051C263.584 144.467 264.052 144.771 264.554 144.956C265.062 145.134 265.663 145.154 266.158 144.923C266.659 144.705 267.055 144.322 267.299 143.873C266.93 144.223 266.507 144.5 266.052 144.639C265.94 144.678 265.821 144.692 265.709 144.711C265.59 144.718 265.478 144.738 265.366 144.725C265.135 144.725 264.91 144.665 264.686 144.593C264.574 144.553 264.461 144.507 264.356 144.461C264.25 144.401 264.145 144.355 264.046 144.289C263.834 144.17 263.656 144.012 263.478 143.853C263.128 143.51 262.844 143.094 262.646 142.626Z" fill="#C7C7C7"/>
<path d="M260.574 143.616C260.191 143.755 259.769 143.55 259.63 143.161C259.492 142.771 259.696 142.349 260.079 142.217C260.462 142.078 260.884 142.283 261.023 142.672C261.155 143.062 260.957 143.484 260.574 143.616Z" fill="#DBDBDB"/>
<path d="M260.007 142.54C259.796 142.613 259.651 142.784 259.591 142.982C259.565 142.652 259.756 142.329 260.08 142.217C260.462 142.078 260.885 142.283 261.023 142.672C261.122 142.949 261.043 143.246 260.852 143.444C260.918 143.293 260.924 143.121 260.865 142.956C260.74 142.606 260.357 142.421 260.007 142.54Z" fill="#C7C7C7"/>
<path d="M259.294 142.963C259.261 143.154 259.3 143.359 259.399 143.537C259.492 143.715 259.643 143.867 259.815 143.972C259.993 144.078 260.218 144.124 260.422 144.071C260.627 144.025 260.798 143.906 260.911 143.748C260.746 143.84 260.567 143.906 260.396 143.92C260.224 143.933 260.059 143.887 259.914 143.801C259.61 143.629 259.393 143.332 259.294 142.963Z" fill="#C7C7C7"/>
<path d="M266.171 147.827C265.597 147.919 265.056 147.536 264.964 146.955C264.865 146.381 265.254 145.84 265.828 145.741C266.402 145.649 266.944 146.031 267.036 146.612C267.128 147.193 266.746 147.734 266.171 147.827Z" fill="#DBDBDB"/>
<path d="M265.643 146.183C265.333 146.236 265.082 146.434 264.95 146.698C264.99 146.229 265.34 145.827 265.821 145.748C266.396 145.655 266.937 146.038 267.029 146.619C267.095 147.035 266.917 147.431 266.594 147.655C266.719 147.464 266.778 147.219 266.739 146.975C266.66 146.447 266.165 146.097 265.643 146.183Z" fill="#C7C7C7"/>
<path d="M264.548 146.593C264.475 146.857 264.488 147.147 264.581 147.411C264.673 147.682 264.845 147.919 265.056 148.104C265.274 148.289 265.564 148.408 265.854 148.394C266.145 148.388 266.409 148.269 266.62 148.097C266.376 148.21 266.112 148.262 265.861 148.243C265.61 148.229 265.379 148.117 265.188 147.959C264.996 147.794 264.838 147.589 264.726 147.358C264.614 147.121 264.548 146.863 264.548 146.593Z" fill="#C7C7C7"/>
<path d="M269.709 137.187C270.263 137.854 271.326 137.894 272.078 137.267C272.831 136.64 272.996 135.59 272.448 134.924C271.893 134.257 270.831 134.217 270.078 134.844C269.319 135.471 269.154 136.521 269.709 137.187Z" fill="#DBDBDB"/>
<path d="M272.164 135.643C272.468 136.006 272.534 136.494 272.388 136.95C272.87 136.329 272.916 135.491 272.448 134.924C271.893 134.257 270.831 134.217 270.078 134.844C269.531 135.293 269.293 135.966 269.412 136.554C269.484 136.191 269.689 135.834 270.012 135.564C270.699 135.003 271.662 135.036 272.164 135.643Z" fill="#C7C7C7"/>
<path d="M268.996 136.059C268.798 136.442 268.758 136.917 268.91 137.359C268.976 137.583 269.114 137.781 269.273 137.953C269.431 138.125 269.623 138.25 269.834 138.362C270.052 138.448 270.289 138.507 270.52 138.514C270.751 138.514 270.982 138.488 271.193 138.422C271.622 138.296 272.005 138.072 272.315 137.775C271.919 137.933 271.523 138.059 271.121 138.125C270.725 138.184 270.329 138.164 269.992 138.012C269.827 137.933 269.662 137.828 269.53 137.696C269.392 137.57 269.273 137.418 269.187 137.247C269.022 136.904 268.963 136.488 268.996 136.059Z" fill="#C7C7C7"/>
<path d="M43.6458 224.842L48.7278 219.76C50.1798 218.308 50.1798 215.945 48.7278 214.493C47.2692 213.041 44.913 213.041 43.461 214.493L38.379 219.575C36.927 221.027 36.927 223.39 38.379 224.842C39.831 226.294 42.1872 226.294 43.6458 224.842Z" fill="#EBEBEB"/>
<path d="M113.065 275.22L116.292 268.798C117.216 266.957 116.471 264.719 114.636 263.795C112.794 262.871 110.557 263.617 109.633 265.452L106.406 271.874C105.482 273.715 106.227 275.953 108.062 276.877C109.904 277.801 112.141 277.061 113.065 275.22Z" fill="#EBEBEB"/>
<path d="M68.5677 210.494L72.3891 209.946C74.4285 209.656 75.8409 207.768 75.5505 205.729C75.2601 203.689 73.3725 202.277 71.3331 202.567L67.5117 203.115C65.4723 203.405 64.0599 205.293 64.3503 207.332C64.6407 209.365 66.5283 210.784 68.5677 210.494Z" fill="#EBEBEB"/>
<path d="M38.234 260.924L37.6862 257.103C37.3958 255.064 35.5082 253.651 33.4688 253.942C31.4294 254.232 30.017 256.12 30.3074 258.159L30.8552 261.98C31.1456 264.02 33.0332 265.432 35.0726 265.142C37.112 264.845 38.5244 262.957 38.234 260.924Z" fill="#EBEBEB"/>
<path d="M120.193 255.169V246.708C120.193 245.922 119.552 245.282 118.767 245.282H114.167C113.381 245.282 112.741 245.922 112.741 246.708V255.169C112.741 255.954 113.381 256.595 114.167 256.595H118.767C119.552 256.595 120.193 255.954 120.193 255.169Z" fill="#EBEBEB"/>
<path d="M61.6507 293.317L65.3797 294.314C67.3663 294.848 69.4123 293.667 69.9403 291.68C70.4749 289.694 69.2935 287.648 67.3069 287.12L63.5779 286.123C61.5913 285.589 59.5453 286.77 59.0173 288.757C58.4827 290.737 59.6641 292.783 61.6507 293.317Z" fill="#EBEBEB"/>
<path d="M74.5608 292.314C98.3048 292.314 117.553 273.066 117.553 249.322C117.553 225.577 98.3048 206.329 74.5608 206.329C50.8167 206.329 31.5684 225.577 31.5684 249.322C31.5684 273.066 50.8167 292.314 74.5608 292.314Z" fill="#EBEBEB"/>
<path d="M90.2025 223.819C90.3543 225.825 89.7339 227.898 88.6119 229.653C87.4965 231.429 85.8201 232.848 83.9391 233.778C82.0185 234.696 79.6689 235.019 77.6229 234.32C75.5835 233.673 73.8807 232.32 72.8115 230.624C74.4351 231.772 76.1907 232.597 77.9727 232.894C78.8637 233.039 79.7481 233.059 80.6127 232.894C81.4839 232.795 82.3089 232.458 83.1141 232.089C83.5167 231.891 83.9259 231.673 84.3153 231.442C84.6915 231.185 85.0875 230.954 85.4307 230.663C86.1831 230.142 86.8035 229.469 87.4305 228.789C88.6317 227.383 89.5821 225.713 90.2025 223.819Z" fill="#C7C7C7"/>
<path d="M74.7458 226.294C74.5214 224.908 74.891 223.436 75.6368 222.182C76.3892 220.922 77.5442 219.886 78.8708 219.239C80.2238 218.572 81.9266 218.387 83.3522 218.915C84.7778 219.41 85.9328 220.414 86.573 221.661C85.3784 220.968 84.1772 220.486 83.0024 220.341C81.8276 220.176 80.732 220.447 79.6892 220.928C77.5376 221.971 75.8414 223.753 74.7458 226.294Z" fill="#C7C7C7"/>
<path d="M60.186 255.823C60.7404 257.07 60.7338 258.555 60.2982 259.921C59.856 261.281 58.9716 262.535 57.8166 263.399C56.6484 264.317 55.038 264.772 53.586 264.541C52.134 264.323 50.847 263.611 49.9824 262.561C51.2694 262.951 52.5102 263.149 53.6586 263.076C54.807 263.003 55.8036 262.568 56.6814 261.908C57.5988 261.221 58.371 260.35 58.965 259.34C59.5392 258.317 59.955 257.149 60.186 255.823Z" fill="#C7C7C7"/>
<path d="M51.2824 260.7C50.7808 259.862 50.728 258.799 50.9854 257.816C51.2626 256.832 51.8896 255.922 52.7146 255.301C53.5594 254.635 54.7474 254.311 55.7902 254.522C56.8264 254.727 57.7108 255.288 58.2322 256.106C57.2884 255.948 56.4502 255.889 55.7242 255.994C54.9916 256.093 54.4108 256.377 53.8564 256.786C52.6882 257.69 51.8434 258.878 51.2824 260.7Z" fill="#C7C7C7"/>
<path d="M44.7678 246.253C45.5202 246.919 45.9558 247.929 45.9954 249.012C46.0218 250.107 45.5862 251.236 44.781 252.048C43.9626 252.925 42.6756 253.262 41.6328 253.123C40.5702 252.998 39.633 252.549 38.9268 251.83C39.9168 251.816 40.8144 251.816 41.5998 251.645C42.3852 251.486 42.9924 251.196 43.4478 250.721C43.9362 250.226 44.3256 249.592 44.5368 248.853C44.7612 248.114 44.8074 247.243 44.7678 246.253Z" fill="#C7C7C7"/>
<path d="M39.4418 250.43C38.8148 250.028 38.4386 249.322 38.3726 248.53C38.3132 247.724 38.6168 246.88 39.224 246.272C39.8444 245.606 40.8278 245.375 41.5736 245.513C42.3392 245.645 42.986 246.022 43.4216 246.629C42.7022 246.754 42.1016 246.827 41.6066 246.985C41.1116 247.137 40.808 247.328 40.5572 247.586C40.2734 247.87 40.0226 248.226 39.8378 248.668C39.6398 249.137 39.5276 249.704 39.4418 250.43Z" fill="#C7C7C7"/>
<path d="M103.68 233.521C103.799 234.524 103.456 235.56 102.763 236.399C102.056 237.237 100.981 237.791 99.8322 237.857C98.631 237.969 97.4496 237.362 96.7632 236.57C96.057 235.772 95.6544 234.808 95.6016 233.805C96.3474 234.458 97.0206 235.046 97.7202 235.442C98.4132 235.851 99.06 236.036 99.7134 235.976C100.406 235.93 101.119 235.712 101.766 235.303C102.433 234.907 103.046 234.287 103.68 233.521Z" fill="#C7C7C7"/>
<path d="M96.9211 233.105C96.7231 232.386 96.9079 231.614 97.3897 230.973C97.8781 230.333 98.6701 229.904 99.5215 229.851C100.426 229.766 101.317 230.247 101.785 230.848C102.267 231.455 102.498 232.168 102.426 232.907C101.805 232.518 101.304 232.175 100.828 231.97C100.353 231.752 100.003 231.693 99.6469 231.726C99.2443 231.752 98.8219 231.851 98.3863 232.056C97.9309 232.267 97.4689 232.617 96.9211 233.105Z" fill="#C7C7C7"/>
<path d="M79.576 262.733C84.3544 264.865 89.9644 262.7 92.1094 257.895C94.2544 253.09 92.116 247.467 87.3376 245.335C82.5592 243.203 76.9492 245.368 74.8042 250.173C72.6592 254.978 74.7976 260.601 79.576 262.733Z" fill="#DBDBDB"/>
<path d="M87.9052 249.553C90.5056 250.714 92.2546 253.018 92.8024 255.618C93.5218 251.434 91.3768 247.13 87.331 245.329C82.5526 243.197 76.9426 245.368 74.7976 250.166C73.2532 253.631 73.9264 257.519 76.2232 260.218C75.55 258.238 75.6028 256.014 76.5268 253.942C78.4738 249.586 83.569 247.619 87.9052 249.553Z" fill="#C7C7C7"/>
<path d="M96.5911 255.631C96.6901 258.1 95.8849 260.607 94.4923 262.733C93.1063 264.878 91.0603 266.594 88.7635 267.736C86.4271 268.851 83.5957 269.253 81.1075 268.428C78.6193 267.669 76.5139 266.059 75.1279 264.033C77.0683 265.518 79.2331 266.594 81.4573 267.009C82.0117 267.122 82.5727 267.141 83.1271 267.188C83.6815 267.155 84.2359 267.188 84.7837 267.056C85.8859 266.937 86.9287 266.514 87.9451 266.052C88.4467 265.795 88.9615 265.524 89.4499 265.234C89.9185 264.911 90.4135 264.62 90.8491 264.251C91.7863 263.584 92.5585 262.739 93.3241 261.875C94.7827 260.093 95.9113 257.974 96.5911 255.631Z" fill="#C7C7C7"/>
<path d="M106.999 259.248C108.9 259.69 110.801 258.495 111.243 256.581C111.685 254.667 110.504 252.76 108.603 252.324C106.702 251.882 104.802 253.077 104.359 254.991C103.911 256.898 105.099 258.806 106.999 259.248Z" fill="#DBDBDB"/>
<path d="M109.111 253.823C110.148 254.06 110.953 254.78 111.336 255.697C111.303 254.113 110.207 252.694 108.597 252.318C106.696 251.876 104.795 253.07 104.353 254.984C104.036 256.364 104.557 257.736 105.594 258.561C105.204 257.882 105.066 257.063 105.257 256.238C105.66 254.509 107.382 253.427 109.111 253.823Z" fill="#C7C7C7"/>
<path d="M112.722 255.433C112.979 256.324 112.893 257.327 112.543 258.225C112.2 259.136 111.56 259.928 110.788 260.522C109.996 261.109 108.946 261.466 107.956 261.32C106.973 261.202 106.082 260.726 105.455 260.047C106.3 260.41 107.164 260.621 107.989 260.594C108.814 260.575 109.573 260.264 110.22 259.776C111.567 258.766 112.464 257.255 112.722 255.433Z" fill="#C7C7C7"/>
<path d="M82.6124 282.256C85.3844 282.401 87.7472 280.269 87.899 277.484C88.0508 274.699 85.9256 272.323 83.1536 272.171C80.3816 272.026 78.0188 274.157 77.867 276.943C77.7152 279.728 79.8404 282.104 82.6124 282.256Z" fill="#DBDBDB"/>
<path d="M84.2365 274.151C85.7479 274.23 87.0481 275.042 87.8137 276.223C87.3781 274.012 85.4971 272.296 83.1541 272.171C80.3887 272.026 78.0193 274.164 77.8675 276.943C77.7619 278.949 78.8311 280.751 80.4811 281.648C79.7749 280.797 79.3723 279.682 79.4383 278.487C79.5703 275.959 81.7219 274.012 84.2365 274.151Z" fill="#C7C7C7"/>
<path d="M89.6877 275.51C90.1761 276.718 90.2686 278.104 89.9716 279.418C89.6878 280.738 89.0014 281.972 88.084 282.968C87.1402 283.958 85.8267 284.698 84.4407 284.764C83.0679 284.869 81.7281 284.46 80.6523 283.741C81.8865 284.13 83.1669 284.242 84.3549 284.031C85.5429 283.827 86.5857 283.193 87.4041 282.322C88.2423 281.437 88.8759 280.381 89.2719 279.22C89.6481 278.065 89.8197 276.797 89.6877 275.51Z" fill="#C7C7C7"/>
<path d="M60.1188 233.554C57.8484 237.032 52.8192 237.772 48.8856 235.204C44.9586 232.637 43.6122 227.733 45.8892 224.255C48.1596 220.777 53.1888 220.037 57.1224 222.605C61.0494 225.172 62.3892 230.076 60.1188 233.554Z" fill="#DBDBDB"/>
<path d="M47.6187 227.515C46.3779 229.409 46.3185 231.772 47.2491 233.858C44.6289 231.152 43.9623 227.192 45.8895 224.248C48.1599 220.77 53.1957 220.031 57.1227 222.598C59.9541 224.453 61.4457 227.515 61.1949 230.386C60.6669 228.69 59.5053 227.119 57.8157 226.01C54.2517 223.687 49.6845 224.354 47.6187 227.515Z" fill="#C7C7C7"/>
<path d="M62.8908 227.812C64.026 229.528 64.4748 231.779 63.9996 233.944C63.795 235.039 63.2472 236.056 62.6004 236.953C61.947 237.871 61.0824 238.57 60.1386 239.217C59.142 239.752 58.0662 240.161 56.964 240.293C55.8684 240.405 54.7662 240.418 53.7234 240.2C51.6246 239.824 49.671 238.979 48.0342 237.732C50.0076 238.273 51.9678 238.669 53.8818 238.742C55.7958 238.821 57.657 238.504 59.175 237.607C59.901 237.138 60.6468 236.564 61.2078 235.858C61.8084 235.184 62.277 234.399 62.5938 233.541C63.2274 231.818 63.3 229.812 62.8908 227.812Z" fill="#C7C7C7"/>
<path d="M255.255 224.314L258.891 224.981L259.703 228.815L260.515 224.981L264.152 224.308L260.528 223.423L259.703 219.806L258.872 223.423L255.255 224.314Z" fill="#C7C7C7"/>
<path d="M105.243 203.623L108.88 204.29L109.692 208.124L110.503 204.29L114.14 203.617L110.523 202.732L109.692 199.115L108.867 202.732L105.243 203.623Z" fill="#C7C7C7"/>
<path d="M218.117 162.65L221.754 163.324L222.566 167.152L223.377 163.324L227.014 162.65L223.397 161.766L222.566 158.143L221.741 161.766L218.117 162.65Z" fill="#C7C7C7"/>
<path d="M289.812 201.749L291.845 202.125L292.301 204.27L292.756 202.125L294.782 201.749L292.763 201.254L292.301 199.234L291.839 201.254L289.812 201.749Z" fill="#C7C7C7"/>
<path d="M135.61 283.259L137.637 283.635L138.092 285.78L138.547 283.635L140.58 283.259L138.554 282.764L138.092 280.744L137.63 282.764L135.61 283.259Z" fill="#C7C7C7"/>
<path d="M284.843 105.329L286.876 105.706L287.331 107.844L287.78 105.706L289.813 105.323L287.793 104.834L287.331 102.808L286.862 104.834L284.843 105.329Z" fill="#C7C7C7"/>
<path d="M45.1377 151.404L47.1705 151.78L47.6259 153.919L48.0813 151.78L50.1075 151.404L48.0879 150.909L47.6259 148.883L47.1639 150.909L45.1377 151.404Z" fill="#C7C7C7"/>
<path d="M56.041 260.429L58.0738 260.806L58.5292 262.951L58.978 260.806L61.0108 260.429L58.9912 259.934L58.5292 257.908L58.0606 259.934L56.041 260.429Z" fill="#C7C7C7"/>
<path d="M277.002 159.588L279.035 159.964L279.484 162.102L279.939 159.964L281.972 159.588L279.952 159.093L279.484 157.067L279.022 159.093L277.002 159.588Z" fill="#C7C7C7"/>
<path d="M191.288 228.815L193.321 229.192L193.776 231.337L194.232 229.192L196.258 228.815L194.238 228.32L193.776 226.301L193.314 228.32L191.288 228.815Z" fill="#C7C7C7"/>
<path d="M117.342 56.8061L119.375 57.1823L119.83 59.3207L120.285 57.1823L122.312 56.8061L120.292 56.3111L119.83 54.2849L119.368 56.3111L117.342 56.8061Z" fill="#C7C7C7"/>
<path d="M196.892 221.034L198.924 221.41L199.38 223.555L199.835 221.41L201.868 221.034L199.842 220.539L199.38 218.513L198.918 220.539L196.892 221.034Z" fill="#C7C7C7"/>
<path d="M130.799 287.892C131.558 287.892 131.558 289.067 130.799 289.067C130.04 289.073 130.04 287.892 130.799 287.892Z" fill="#C7C7C7"/>
<path d="M235.878 177.415C236.637 177.415 236.637 178.589 235.878 178.589C235.119 178.596 235.119 177.415 235.878 177.415Z" fill="#C7C7C7"/>
<path d="M185.619 227.053C186.378 227.053 186.378 228.228 185.619 228.228C184.866 228.228 184.86 227.053 185.619 227.053Z" fill="#C7C7C7"/>
<path d="M98.2538 283.477C99.0128 283.477 99.0128 284.651 98.2538 284.651C97.4948 284.651 97.4948 283.477 98.2538 283.477Z" fill="#C7C7C7"/>
<path d="M294.894 291.278C295.653 291.278 295.653 292.453 294.894 292.453C294.135 292.459 294.135 291.278 294.894 291.278Z" fill="#C7C7C7"/>
<path d="M263.907 185.136C264.666 185.136 264.666 186.318 263.907 186.318C263.148 186.311 263.148 185.136 263.907 185.136Z" fill="#C7C7C7"/>
<path d="M145.556 277.299C146.091 277.299 146.091 278.13 145.556 278.13C145.022 278.13 145.022 277.299 145.556 277.299Z" fill="#C7C7C7"/>
<path d="M62.3433 60.9312C62.8779 60.9312 62.8779 61.7628 62.3433 61.7628C61.8087 61.7694 61.8087 60.9312 62.3433 60.9312Z" fill="#C7C7C7"/>
<path d="M223.053 194.865C223.588 194.865 223.588 195.697 223.053 195.697C222.519 195.697 222.519 194.865 223.053 194.865Z" fill="#C7C7C7"/>
<path d="M202.923 230.921C203.458 230.921 203.458 231.753 202.923 231.753C202.389 231.753 202.389 230.921 202.923 230.921Z" fill="#C7C7C7"/>
<path d="M169.957 223.892C170.491 223.892 170.491 224.723 169.957 224.723C169.422 224.73 169.422 223.892 169.957 223.892Z" fill="#C7C7C7"/>
<path d="M208.93 187.295C210.382 187.295 210.388 189.552 208.93 189.552C207.478 189.552 207.478 187.295 208.93 187.295Z" fill="#C7C7C7"/>
<path d="M151.134 73.2402L154.77 73.9134L155.582 77.7414L156.394 73.9134L160.031 73.2402L156.407 72.3558L155.582 68.7324L154.751 72.3558L151.134 73.2402Z" fill="#C7C7C7"/>
<path d="M164.986 40.062L167.019 40.4382L167.475 42.5766L167.93 40.4382L169.956 40.062L167.937 39.567L167.475 37.5408L167.013 39.567L164.986 40.062Z" fill="#C7C7C7"/>
<path d="M41.8046 95.0466C42.5636 95.0466 42.5636 96.2214 41.8046 96.2214C41.0456 96.2214 41.0456 95.0466 41.8046 95.0466Z" fill="#C7C7C7"/>
<path d="M51.0575 251.262C51.8165 251.262 51.8165 252.437 51.0575 252.437C50.2985 252.443 50.2985 251.262 51.0575 251.262Z" fill="#C7C7C7"/>
<path d="M35.1054 280.48C35.8644 280.48 35.8644 281.655 35.1054 281.655C34.3464 281.662 34.3464 280.48 35.1054 280.48Z" fill="#C7C7C7"/>
<path d="M65.2739 144.421C66.0329 144.421 66.0329 145.596 65.2739 145.596C64.5149 145.603 64.5083 144.421 65.2739 144.421Z" fill="#C7C7C7"/>
<path d="M35.1054 42.748C35.8644 42.748 35.8644 43.9229 35.1054 43.9229C34.3464 43.9295 34.3464 42.748 35.1054 42.748Z" fill="#C7C7C7"/>
<path d="M88.5787 223.179C89.1133 223.179 89.1133 224.011 88.5787 224.011C88.0441 224.017 88.0441 223.179 88.5787 223.179Z" fill="#C7C7C7"/>
<path d="M176.477 276.593C177.012 276.593 177.012 277.424 176.477 277.424C175.943 277.424 175.943 276.593 176.477 276.593Z" fill="#C7C7C7"/>
<path d="M238.359 85.9517C238.894 85.9517 238.894 86.7833 238.359 86.7833C237.824 86.7899 237.824 85.9517 238.359 85.9517Z" fill="#C7C7C7"/>
<path d="M163.086 60.4363C163.62 60.4363 163.62 61.2679 163.086 61.2679C162.551 61.2679 162.551 60.4363 163.086 60.4363Z" fill="#C7C7C7"/>
<path d="M138.092 208.375C139.544 208.375 139.551 210.632 138.092 210.632C136.64 210.632 136.64 208.375 138.092 208.375Z" fill="#C7C7C7"/>
<path d="M286.83 123.057C288.282 123.057 288.288 125.314 286.83 125.314C285.378 125.321 285.371 123.057 286.83 123.057Z" fill="#C7C7C7"/>
<path d="M55.7501 222.05C57.2021 222.05 57.2087 224.307 55.7501 224.307C54.2981 224.307 54.2981 222.05 55.7501 222.05Z" fill="#C7C7C7"/>
<path d="M150.612 178.596L152.639 178.972L153.094 181.111L153.549 178.972L155.582 178.596L153.556 178.101L153.094 176.075L152.632 178.101L150.612 178.596Z" fill="#C7C7C7"/>
<path d="M193.776 281.074L195.809 281.45L196.258 283.589L196.713 281.45L198.746 281.068L196.727 280.579L196.258 278.553L195.796 280.579L193.776 281.074Z" fill="#C7C7C7"/>
<path d="M202.778 254.681C203.537 254.681 203.537 255.855 202.778 255.855C202.019 255.862 202.019 254.681 202.778 254.681Z" fill="#C7C7C7"/>
<path d="M225.733 239.012C226.492 239.012 226.492 240.187 225.733 240.187C224.974 240.194 224.974 239.012 225.733 239.012Z" fill="#C7C7C7"/>
<path d="M153.094 266.066L155.127 266.442L155.582 268.587L156.037 266.442L158.07 266.066L156.044 265.571L155.582 263.545L155.12 265.571L153.094 266.066Z" fill="#C7C7C7"/>
<path d="M236.742 76.3489C237.501 76.3489 237.501 77.5237 236.742 77.5237C235.983 77.5303 235.983 76.3489 236.742 76.3489Z" fill="#C7C7C7"/>
<path d="M250.913 240.874C251.447 240.874 251.447 241.705 250.913 241.705C250.378 241.705 250.378 240.874 250.913 240.874Z" fill="#C7C7C7"/>
<path d="M73.6035 170.029L75.6363 170.405L76.0851 172.544L76.5405 170.405L78.5733 170.029L76.5537 169.534L76.0851 167.508L75.6231 169.534L73.6035 170.029Z" fill="#C7C7C7"/>
<path d="M50.1068 202.442C50.8658 202.442 50.8658 203.617 50.1068 203.617C49.3544 203.617 49.3478 202.442 50.1068 202.442Z" fill="#C7C7C7"/>
<path d="M131.367 159.06C132.126 159.06 132.126 160.235 131.367 160.235C130.614 160.235 130.608 159.06 131.367 159.06Z" fill="#C7C7C7"/>
<path d="M62.3433 99.5479C62.8779 99.5479 62.8779 100.379 62.3433 100.379C61.8087 100.386 61.8087 99.5479 62.3433 99.5479Z" fill="#C7C7C7"/>
<path d="M57.004 95.7197C58.456 95.7197 58.4626 97.9769 57.004 97.9769C55.552 97.9769 55.552 95.7197 57.004 95.7197Z" fill="#C7C7C7"/>
<path d="M287.918 45.8633C289.37 45.8633 289.377 48.1205 287.918 48.1205C286.466 48.1205 286.466 45.8633 287.918 45.8633Z" fill="#C7C7C7"/>
<path d="M259.583 273.555C268.222 265.402 268.617 251.789 260.465 243.15C252.312 234.51 238.699 234.115 230.059 242.268C221.419 250.42 221.024 264.034 229.177 272.673C237.33 281.313 250.943 281.708 259.583 273.555Z" fill="#455A64"/>
<path d="M224.809 265.815C225.779 264.805 227.779 262.931 231.165 261.102C235.263 258.885 246.661 255.908 251.79 252.773C259.01 248.371 259.617 244.206 259.406 242.101C257.347 240.207 254.964 238.755 252.397 237.798C252.034 240.009 250.569 246.932 238.425 252.351C232.161 255.143 225.858 254.12 223.726 253.776C222.941 257.71 223.258 261.888 224.809 265.815Z" fill="#37474F"/>
<path d="M234.504 276.797C240.728 280.196 248.496 280.44 255.175 276.777C257.518 275.49 259.525 273.834 261.161 271.92C260.284 271.504 258.515 270.917 257.188 270.705C251.314 269.768 245.189 273.035 242.972 274.527C239.434 276.909 236.227 276.982 234.504 276.797Z" fill="#37474F"/>
<path d="M226.34 268.93C226.439 269.102 226.538 269.267 226.643 269.432C226.736 269.584 226.835 269.729 226.934 269.88C227.158 270.217 227.383 270.541 227.627 270.857C227.845 271.141 228.062 271.425 228.293 271.695C228.379 271.801 228.465 271.893 228.551 271.999C228.65 272.111 228.749 272.224 228.848 272.336C228.947 272.448 229.052 272.56 229.151 272.666C229.27 272.791 229.396 272.923 229.521 273.048C229.646 273.174 229.772 273.299 229.897 273.418C230.009 273.524 230.115 273.629 230.227 273.728C230.471 273.953 230.716 274.171 230.973 274.382H230.98C232.346 274.685 234.121 274.362 236.656 273.121C240.424 271.28 244.331 267.267 251.638 263.954C258.541 260.825 264.56 261.763 265.979 261.862H265.986C266.778 257.618 266.303 253.117 264.389 248.952C263.016 249.011 258.653 249.995 249.889 258.509C246.556 261.743 243.579 264.079 240.946 265.742C233.257 270.6 228.511 269.722 226.492 268.904H226.485C226.432 268.917 226.386 268.923 226.34 268.93Z" fill="#37474F"/>
<path d="M245.844 245.487C246.306 246.325 247.665 246.464 248.88 245.79C250.101 245.124 250.715 243.903 250.253 243.065C249.791 242.226 248.431 242.088 247.217 242.761C246.002 243.428 245.388 244.649 245.844 245.487Z" fill="#263238"/>
<path d="M252.048 246.464C252.305 246.939 253.111 246.992 253.843 246.589C254.576 246.187 254.959 245.48 254.695 245.005C254.437 244.53 253.632 244.477 252.899 244.88C252.173 245.282 251.791 245.989 252.048 246.464Z" fill="#263238"/>
<path d="M237.831 274.283C238.227 274.996 239.409 275.101 240.471 274.52C241.534 273.933 242.082 272.884 241.692 272.164C241.296 271.451 240.115 271.346 239.052 271.927C237.983 272.514 237.442 273.57 237.831 274.283Z" fill="#263238"/>
<path d="M241.844 274.665C242.055 275.048 242.629 275.134 243.131 274.857C243.632 274.58 243.87 274.052 243.665 273.669C243.454 273.286 242.88 273.2 242.378 273.477C241.87 273.755 241.632 274.283 241.844 274.665Z" fill="#263238"/>
<path d="M242.3 272.62C242.425 272.851 242.788 272.89 243.105 272.719C243.422 272.54 243.58 272.217 243.455 271.986C243.329 271.755 242.966 271.715 242.65 271.887C242.333 272.065 242.174 272.395 242.3 272.62Z" fill="#263238"/>
<path d="M255.664 271.346C256.014 271.986 256.991 272.124 257.842 271.656C258.693 271.187 259.103 270.29 258.753 269.649C258.403 269.009 257.426 268.871 256.575 269.339C255.717 269.808 255.314 270.705 255.664 271.346Z" fill="#263238"/>
<path d="M254.879 268.475C255.077 268.838 255.579 268.956 255.988 268.725C256.397 268.501 256.569 268.019 256.371 267.656C256.173 267.293 255.671 267.174 255.262 267.405C254.846 267.63 254.681 268.112 254.879 268.475Z" fill="#263238"/>
<path d="M227.628 270.857C233.396 269.696 240.075 267.927 247.098 265.617C254.318 263.247 260.912 260.64 266.337 258.093C275.979 253.565 281.919 249.229 281.114 246.78C280.329 244.371 273.075 244.299 262.898 246.266C263.169 246.695 263.433 247.13 263.677 247.579C263.769 247.751 263.862 247.916 263.948 248.087C269.366 247.394 272.957 247.711 273.445 249.203C273.94 250.714 271.148 253.149 266.231 255.855C261.42 258.502 254.576 261.406 246.807 263.954C239.026 266.508 231.779 268.224 226.334 268.937C220.797 269.669 217.114 269.366 216.619 267.848C216.137 266.363 218.83 263.987 223.575 261.34C223.457 260.621 223.377 259.888 223.338 259.162C213.755 263.676 207.722 268.164 208.521 270.606C209.339 273.088 216.923 273.015 227.628 270.857Z" fill="#263238"/>
<path d="M228.842 272.329C234.67 271.101 241.144 269.379 247.87 267.207H247.876C254.569 265.049 260.786 262.68 266.211 260.284C279.596 254.37 288.143 248.292 287.028 244.82C285.919 241.382 275.629 241.421 261.525 244.358C261.736 244.616 261.934 244.886 262.132 245.157C273.973 242.886 282.46 243.005 283.417 245.988C284.388 248.998 277.431 254.133 266.297 259.268C260.905 261.749 254.549 264.224 247.626 266.462C240.669 268.706 234.016 270.422 228.169 271.557C216.19 273.88 207.583 273.768 206.62 270.771C205.663 267.808 212.428 262.759 223.311 257.697C223.318 257.36 223.324 257.024 223.344 256.687C210.237 262.535 201.907 268.501 203.01 271.933C204.132 275.391 214.579 275.325 228.842 272.329Z" fill="#37474F"/>
<path d="M155.739 156.788C162.373 154.524 165.915 147.31 163.65 140.676C161.385 134.042 154.172 130.5 147.538 132.765C140.904 135.03 137.362 142.244 139.627 148.877C141.892 155.511 149.106 159.053 155.739 156.788Z" fill="#EBEBEB"/>
<path d="M163.786 148.454C163.166 147.906 161.905 146.896 159.826 145.986C157.311 144.877 150.467 143.662 147.299 142.065C142.844 139.815 142.29 137.399 142.316 136.145C143.438 134.931 144.771 133.967 146.237 133.281C146.553 134.568 147.748 138.567 155.147 141.181C158.961 142.527 162.624 141.63 163.865 141.319C164.505 143.603 164.512 146.071 163.786 148.454Z" fill="#DBDBDB"/>
<path d="M158.605 155.377C155.107 157.668 150.546 158.182 146.448 156.348C145.009 155.701 143.748 154.823 142.692 153.774C143.187 153.49 144.204 153.054 144.969 152.869C148.382 152.038 152.137 153.675 153.51 154.44C155.708 155.674 157.602 155.569 158.605 155.377Z" fill="#DBDBDB"/>
<path d="M163.034 150.361C162.981 150.467 162.928 150.566 162.875 150.672C162.829 150.764 162.776 150.856 162.723 150.949C162.605 151.153 162.492 151.358 162.36 151.556C162.248 151.734 162.129 151.912 162.011 152.084C161.964 152.15 161.918 152.209 161.872 152.275C161.819 152.348 161.766 152.421 161.714 152.487C161.661 152.559 161.608 152.625 161.549 152.698C161.483 152.777 161.417 152.863 161.351 152.942C161.285 153.021 161.219 153.1 161.146 153.18C161.087 153.246 161.027 153.312 160.968 153.378C160.836 153.523 160.704 153.661 160.559 153.8C159.767 154.044 158.711 153.939 157.16 153.325C154.856 152.421 152.368 150.243 147.913 148.645C143.702 147.134 140.211 147.966 139.379 148.098C138.713 145.636 138.779 142.969 139.703 140.428C140.514 140.395 143.128 140.772 148.685 145.365C150.797 147.114 152.665 148.342 154.289 149.2C159.041 151.688 161.793 150.949 162.941 150.375C162.981 150.355 163.007 150.355 163.034 150.361Z" fill="#DBDBDB"/>
<path d="M150.968 155.133C151.193 154.618 151.985 154.46 152.737 154.79C153.49 155.12 153.919 155.8 153.688 156.321C153.463 156.836 152.671 156.994 151.919 156.664C151.166 156.334 150.744 155.654 150.968 155.133Z" fill="#C7C7C7"/>
<path d="M154.56 154.229C154.685 153.938 155.154 153.859 155.609 154.057C156.058 154.255 156.322 154.651 156.196 154.942C156.071 155.232 155.602 155.311 155.147 155.113C154.698 154.922 154.434 154.526 154.56 154.229Z" fill="#C7C7C7"/>
<path d="M144.712 138.64C144.903 138.198 145.596 138.072 146.25 138.363C146.91 138.646 147.286 139.24 147.095 139.683C146.903 140.125 146.21 140.25 145.557 139.96C144.897 139.676 144.521 139.082 144.712 138.64Z" fill="#C7C7C7"/>
<path d="M147.055 138.204C147.16 137.967 147.49 137.887 147.8 138.026C148.111 138.158 148.276 138.462 148.177 138.699C148.071 138.937 147.741 139.016 147.431 138.877C147.121 138.739 146.949 138.442 147.055 138.204Z" fill="#C7C7C7"/>
<path d="M147.432 139.379C147.491 139.24 147.702 139.194 147.9 139.28C148.098 139.366 148.21 139.55 148.144 139.689C148.085 139.828 147.874 139.874 147.676 139.788C147.478 139.709 147.372 139.524 147.432 139.379Z" fill="#C7C7C7"/>
<path d="M155.351 139.412C155.523 139.016 156.09 138.884 156.618 139.115C157.146 139.346 157.43 139.847 157.259 140.243C157.087 140.639 156.519 140.771 155.991 140.54C155.47 140.316 155.18 139.808 155.351 139.412Z" fill="#C7C7C7"/>
<path d="M155.047 141.141C155.146 140.917 155.43 140.824 155.688 140.93C155.938 141.042 156.071 141.313 155.972 141.537C155.873 141.762 155.589 141.854 155.331 141.748C155.074 141.643 154.948 141.366 155.047 141.141Z" fill="#C7C7C7"/>
<path d="M67.2572 68.2981C73.7648 65.6926 76.9282 58.305 74.3227 51.7974C71.7173 45.2898 64.3297 42.1265 57.8221 44.7319C51.3145 47.3373 48.1512 54.7249 50.7566 61.2325C53.362 67.7401 60.7496 70.9035 67.2572 68.2981Z" fill="#523DD8"/>
<path opacity="0.1" d="M67.2572 68.2981C73.7648 65.6926 76.9282 58.305 74.3227 51.7974C71.7173 45.2898 64.3297 42.1265 57.8221 44.7319C51.3145 47.3373 48.1512 54.7249 50.7566 61.2325C53.362 67.7401 60.7496 70.9035 67.2572 68.2981Z" fill="black"/>
<g opacity="0.1">
<path d="M74.6855 60.2051C74.0651 59.6573 72.8045 58.6475 70.7255 57.7367C68.2109 56.6279 61.3667 55.4135 58.1987 53.8163C53.7437 51.5657 53.1893 49.1501 53.2157 47.8961C54.3377 46.6817 55.6709 45.7181 57.1361 45.0317C57.4529 46.3187 58.6475 50.3183 66.0461 52.9319C69.8609 54.2783 73.5239 53.3741 74.7647 53.0705C75.3983 55.3541 75.4115 57.8225 74.6855 60.2051Z" fill="black"/>
<path d="M69.4976 67.1285C65.9996 69.4187 61.439 69.9335 57.3404 68.0987C55.9016 67.4519 54.641 66.5741 53.585 65.5247C54.08 65.2409 55.0964 64.8053 55.862 64.6205C59.2742 63.7889 63.0296 65.4257 64.4024 66.1913C66.6002 67.4255 68.4944 67.3199 69.4976 67.1285Z" fill="black"/>
<path d="M73.9265 62.1125C73.8737 62.2181 73.8209 62.3171 73.7681 62.4227C73.7219 62.5151 73.6691 62.6075 73.6163 62.6999C73.5041 62.9045 73.3853 63.1091 73.2533 63.3071C73.1411 63.4853 73.0223 63.6635 72.9035 63.8351C72.8573 63.9011 72.8111 63.9605 72.7649 64.0265C72.7121 64.0991 72.6593 64.1717 72.6065 64.2377C72.5537 64.3103 72.5009 64.3763 72.4415 64.4489C72.3755 64.5281 72.3095 64.6139 72.2435 64.6931C72.1775 64.7723 72.1115 64.8515 72.0389 64.9307C71.9795 64.9967 71.9201 65.0627 71.8607 65.1287C71.7287 65.2739 71.5967 65.4125 71.4581 65.5511C70.6661 65.7953 69.6101 65.6897 68.0591 65.0759C65.7557 64.1717 63.2675 61.9937 58.8125 60.3965C54.6017 58.8851 51.1103 59.7167 50.2787 59.8487C49.6121 57.3869 49.6781 54.7205 50.6021 52.1795C51.4139 52.1465 54.0275 52.5227 59.5847 57.1163C61.6967 58.8653 63.5645 60.0929 65.1881 60.9509C69.9401 63.4391 72.6923 62.6999 73.8407 62.1257C73.8737 62.1059 73.9001 62.1125 73.9265 62.1125Z" fill="black"/>
</g>
<g opacity="0.1">
<path d="M61.8614 66.8909C62.0858 66.3761 62.8778 66.2177 63.6302 66.5477C64.3826 66.8777 64.8116 67.5575 64.5806 68.0789C64.3562 68.5937 63.5642 68.7521 62.8118 68.4221C62.066 68.0921 61.637 67.4057 61.8614 66.8909Z" fill="black"/>
<path d="M65.4588 65.9867C65.5842 65.6963 66.0528 65.6171 66.5082 65.8151C66.957 66.0131 67.221 66.4091 67.0956 66.6995C66.9702 66.9899 66.5016 67.0691 66.0462 66.8711C65.5908 66.6731 65.3268 66.2771 65.4588 65.9867Z" fill="black"/>
<path d="M55.6114 50.3977C55.8028 49.9555 56.4958 49.8301 57.1492 50.1205C57.8092 50.4043 58.1854 50.9983 57.994 51.4405C57.8026 51.8827 57.1096 52.0081 56.4562 51.7177C55.7962 51.4273 55.42 50.8399 55.6114 50.3977Z" fill="black"/>
<path d="M57.9476 49.9554C58.0532 49.7178 58.3832 49.6386 58.6934 49.7772C59.0036 49.9092 59.1686 50.2128 59.0696 50.4504C58.964 50.688 58.634 50.7672 58.3238 50.6286C58.0136 50.49 57.8486 50.193 57.9476 49.9554Z" fill="black"/>
<path d="M58.3236 51.1367C58.383 50.9981 58.5942 50.9519 58.7922 51.0377C58.9902 51.1235 59.1024 51.3083 59.0364 51.4469C58.977 51.5855 58.7658 51.6317 58.5678 51.5459C58.3764 51.4601 58.2642 51.2753 58.3236 51.1367Z" fill="black"/>
<path d="M66.2502 51.1631C66.4218 50.7671 66.9894 50.6351 67.5174 50.8661C68.0454 51.0971 68.3292 51.5987 68.1576 51.9947C67.986 52.3907 67.4184 52.5227 66.8904 52.2917C66.3624 52.0673 66.0786 51.5591 66.2502 51.1631Z" fill="black"/>
<path d="M65.9401 52.8925C66.0391 52.6681 66.3229 52.5757 66.5803 52.6813C66.8311 52.7935 66.9631 53.0641 66.8641 53.2885C66.7651 53.5129 66.4813 53.6053 66.2239 53.4997C65.9665 53.3941 65.8411 53.1235 65.9401 52.8925Z" fill="black"/>
</g>
<path d="M154.203 81.0744C153.734 80.52 126.582 67.9206 101.99 86.6844C79.3849 103.937 71.5309 136.363 74.5339 137.141C78.2101 138.092 88.2817 122.615 107.613 114.114C114.471 111.098 125.38 114.114 125.38 114.114L154.203 81.0744Z" fill="#523DD8"/>
<path opacity="0.1" d="M125.393 114.107C125.393 114.107 120.661 112.801 115.474 112.774C119.737 103.851 127.697 87.1992 132.865 76.4214C145.028 76.5336 153.938 80.751 154.209 81.0678L125.393 114.107Z" fill="black"/>
<path d="M198.931 133.828C199.4 134.383 207.386 163.231 184.853 184.417C164.136 203.901 130.859 206.336 130.588 203.247C130.251 199.465 147.167 192.06 158.717 174.379C162.809 168.109 161.628 156.849 161.628 156.849L198.931 133.828Z" fill="#523DD8"/>
<path opacity="0.1" d="M200.007 155.793C188.43 159.166 170.676 164.334 161.291 167.059C162.156 161.865 161.628 156.856 161.628 156.856L198.931 133.835C199.201 134.145 201.934 143.709 200.007 155.793Z" fill="black"/>
<path d="M135.716 169.092L109.197 137.815C109.197 137.815 123.024 100.729 155.899 75.8209C172.313 63.3997 191.572 54.0937 208.811 47.9425C232.604 39.4153 252.51 36.9403 255.592 40.5769C258.687 44.2267 252.978 63.4525 240.689 85.5427C231.786 101.528 219.457 119.005 204.514 133.162C174.564 161.515 135.716 169.092 135.716 169.092Z" fill="#FF7C72"/>
<path d="M200.139 119.77C190.179 128.218 175.257 126.984 166.809 117.025C158.361 107.065 159.595 92.1427 169.554 83.6947C179.514 75.2467 194.436 76.4743 202.884 86.4403C211.326 96.3997 210.098 111.322 200.139 119.77Z" fill="#E6554D"/>
<path d="M201.433 117.573C191.473 126.021 176.551 124.786 168.103 114.827C159.655 104.868 160.889 89.945 170.848 81.497C180.808 73.049 195.73 74.2766 204.178 84.2426C212.62 94.202 211.392 109.125 201.433 117.573Z" fill="#523DD8"/>
<path d="M196.753 112.035C189.849 117.896 179.5 117.051 173.633 110.148C167.772 103.244 168.617 92.8951 175.521 87.0277C182.424 81.1669 192.773 82.0117 198.64 88.9153C204.501 95.8255 203.656 106.174 196.753 112.035Z" fill="white"/>
<path d="M196.759 112.035C195.162 113.388 193.38 114.391 191.512 115.031L178.339 113.956C176.603 113.018 174.999 111.738 173.646 110.147C172.663 108.986 171.871 107.732 171.264 106.412L199.716 108.735C198.898 109.936 197.921 111.052 196.759 112.035Z" fill="#EBEBEB"/>
<path d="M200.059 90.8689L173.798 88.7239C174.319 88.1299 174.893 87.5557 175.514 87.0277C182.424 81.1603 192.773 82.0051 198.634 88.9153C199.168 89.5423 199.643 90.1957 200.059 90.8689Z" fill="#EBEBEB"/>
<path d="M201.485 105.336L170.069 102.775C169.964 102.293 169.891 101.818 169.845 101.317L201.947 103.937C201.815 104.399 201.657 104.867 201.485 105.336Z" fill="#EBEBEB"/>
<path d="M240.69 85.5427L208.812 47.9425C232.605 39.4153 252.51 36.9403 255.592 40.5769C258.688 44.2267 252.979 63.4525 240.69 85.5427Z" fill="#523DD8"/>
<path d="M218.183 51.1171C217.602 51.6121 216.731 51.5395 216.236 50.9587C215.741 50.3779 215.814 49.5067 216.394 49.0117C216.975 48.5167 217.846 48.5893 218.341 49.1701C218.836 49.7575 218.764 50.6287 218.183 51.1171Z" fill="white"/>
<path d="M223.852 57.8095C223.271 58.3045 222.4 58.2319 221.905 57.6511C221.41 57.0703 221.483 56.1991 222.063 55.7041C222.644 55.2091 223.515 55.2817 224.01 55.8625C224.505 56.4433 224.433 57.3145 223.852 57.8095Z" fill="white"/>
<path d="M229.522 64.4953C228.941 64.9903 228.07 64.9177 227.575 64.3369C227.08 63.7561 227.153 62.8849 227.733 62.3899C228.314 61.8949 229.185 61.9675 229.68 62.5483C230.175 63.1357 230.109 64.0069 229.522 64.4953Z" fill="white"/>
<path d="M235.198 71.1877C234.617 71.6827 233.746 71.6101 233.251 71.0293C232.756 70.4485 232.828 69.5773 233.409 69.0823C233.99 68.5873 234.861 68.6599 235.356 69.2407C235.851 69.8215 235.779 70.6927 235.198 71.1877Z" fill="white"/>
<path d="M240.868 77.8735C240.287 78.3685 239.416 78.2959 238.921 77.7151C238.426 77.1343 238.498 76.2631 239.079 75.7681C239.66 75.2731 240.531 75.3457 241.026 75.9265C241.521 76.5073 241.448 77.3785 240.868 77.8735Z" fill="white"/>
<path d="M116.847 137.082C116.266 137.577 115.395 137.504 114.9 136.924C114.405 136.343 114.478 135.472 115.059 134.977C115.639 134.482 116.511 134.554 117.006 135.135C117.501 135.722 117.435 136.594 116.847 137.082Z" fill="#E6554D"/>
<path d="M122.523 143.774C121.942 144.269 121.071 144.197 120.576 143.616C120.081 143.035 120.154 142.164 120.734 141.669C121.315 141.174 122.186 141.247 122.681 141.827C123.176 142.408 123.104 143.279 122.523 143.774Z" fill="#E6554D"/>
<path d="M128.193 150.46C127.612 150.955 126.741 150.883 126.246 150.302C125.751 149.721 125.823 148.85 126.404 148.355C126.985 147.86 127.856 147.932 128.351 148.513C128.846 149.101 128.774 149.972 128.193 150.46Z" fill="#E6554D"/>
<path d="M133.862 157.153C133.281 157.648 132.41 157.575 131.915 156.994C131.42 156.413 131.492 155.542 132.073 155.047C132.654 154.552 133.525 154.625 134.02 155.206C134.515 155.786 134.443 156.658 133.862 157.153Z" fill="#E6554D"/>
<path d="M139.532 163.838C138.951 164.333 138.08 164.261 137.585 163.68C137.09 163.099 137.162 162.228 137.743 161.733C138.324 161.238 139.195 161.311 139.69 161.891C140.185 162.472 140.119 163.343 139.532 163.838Z" fill="#E6554D"/>
<path opacity="0.2" d="M254.1 39.6462C235.739 40.953 203.953 52.0806 170.485 78.3222C145.761 97.7064 127.723 131.63 119.315 149.747L109.197 137.815C109.197 137.815 123.024 100.729 155.899 75.8208C172.313 63.393 191.572 54.0936 208.811 47.9424C230.136 40.293 248.332 37.521 254.1 39.6462Z" fill="white"/>
<path d="M123.869 174.187L102.307 148.751L110.695 139.583L134.284 167.409L123.869 174.187Z" fill="#523DD8"/>
<path opacity="0.1" d="M134.283 167.409L129.208 170.709L107.487 143.088L110.695 139.59L134.283 167.409Z" fill="black"/>
<path d="M240.353 88.9415L230.499 88.2815L225.866 97.6667L226.288 87.2123L217.325 83.0675L227.278 83.1665L231.806 74.3423L231.561 84.2555L240.353 88.9415Z" fill="#FCFCFC"/>
<path d="M237.93 52.5426L232.419 52.1796L229.831 57.4266L230.069 51.579L225.06 49.2624L230.617 49.3152L233.151 44.385L233.019 49.929L237.93 52.5426Z" fill="#FCFCFC"/>
<path d="M193.367 164.426L187.863 164.063L185.275 169.303L185.506 163.462L180.497 161.146L186.061 161.199L188.595 156.268L188.457 161.812L193.367 164.426Z" fill="#FCFCFC"/>
<path d="M95.3436 115.751L89.8326 115.381L87.2454 120.628L87.483 114.787L82.4736 112.471L88.0374 112.523L90.5652 107.593L90.4332 113.131L95.3436 115.751Z" fill="#FCFCFC"/>
<path opacity="0.6" d="M119.13 168.511C109.137 175.25 100.307 183.856 93.865 194.126C87.4168 204.356 83.4172 216.282 83.0476 228.611C82.8892 234.762 83.635 240.979 85.2982 247.012C86.9614 253.044 89.542 258.885 92.9278 264.304C96.307 269.722 100.478 274.719 105.21 279.187C109.943 283.655 115.229 287.602 120.859 291.054C114.873 288.282 109.098 284.949 103.732 280.949C98.3728 276.956 93.4294 272.29 89.179 266.97C84.9286 261.657 81.3778 255.684 78.7708 249.249C76.1572 242.821 74.4874 235.944 73.8538 228.928C72.613 214.863 75.583 200.429 81.7342 187.552C87.8722 174.623 97.0792 163.245 107.936 153.912L119.13 168.511Z" fill="url(#paint0_linear_180_5693)"/>
<path d="M102.029 183.843L98.1021 184.569L97.2177 188.714L96.3399 184.569L92.4062 183.837L96.3267 182.88L97.2177 178.966L98.1153 182.88L102.029 183.843Z" fill="white"/>
<path d="M87.5558 261.479L85.358 261.888L84.8696 264.205L84.3746 261.888L82.1768 261.479L84.368 260.944L84.8696 258.76L85.3712 260.944L87.5558 261.479Z" fill="white"/>
<path d="M86.3741 241.369L84.1763 241.771L83.6879 244.095L83.1929 241.771L80.9951 241.369L83.1863 240.834L83.6879 238.643L84.1895 240.834L86.3741 241.369Z" fill="white"/>
<path d="M99.1251 170.92L96.9273 171.323L96.4323 173.64L95.9439 171.323L93.7461 170.914L95.9373 170.379L96.4323 168.195L96.9339 170.379L99.1251 170.92Z" fill="white"/>
<path d="M92.7564 266.495C91.938 266.495 91.938 267.769 92.7564 267.769C93.5748 267.769 93.5814 266.495 92.7564 266.495Z" fill="white"/>
<path d="M110.946 167.812C110.127 167.812 110.127 169.086 110.946 169.086C111.764 169.086 111.771 167.812 110.946 167.812Z" fill="white"/>
<path d="M76.6392 224.644C75.8208 224.644 75.8208 225.918 76.6392 225.918C77.4576 225.918 77.4576 224.644 76.6392 224.644Z" fill="white"/>
<path d="M91.6211 263.175C91.0403 263.175 91.0403 264.079 91.6211 264.079C92.2019 264.079 92.2019 263.175 91.6211 263.175Z" fill="white"/>
<path d="M76.4083 202.376C75.8275 202.376 75.8275 203.28 76.4083 203.28C76.9825 203.274 76.9891 202.376 76.4083 202.376Z" fill="white"/>
<path d="M80.995 248.484C79.4242 248.484 79.4176 250.926 80.995 250.926C82.5724 250.932 82.5724 248.484 80.995 248.484Z" fill="white"/>
<path d="M82.1767 198.231C80.6059 198.231 80.5993 200.673 82.1767 200.673C83.7475 200.673 83.7541 198.231 82.1767 198.231Z" fill="white"/>
<defs>
<linearGradient id="paint0_linear_180_5693" x1="97.2176" y1="153.912" x2="97.2176" y2="291.054" gradientUnits="userSpaceOnUse">
<stop offset="0.025" stop-color="#0E327E"/>
<stop offset="0.365" stop-color="#2144B4"/>
<stop offset="1" stop-color="#BE6BC5"/>
</linearGradient>
</defs>
</svg>
